{"glyphs":{"0":{"ha":1031,"x_min":114,"x_max":917,"o":"m 519 -14 q 295 46 386 -14 q 159 217 204 106 q 114 486 114 328 q 159 756 114 644 q 295 926 204 867 q 519 986 386 986 q 740 926 651 986 q 873 756 829 867 q 917 486 917 644 q 873 217 917 328 q 740 46 829 106 q 519 -14 651 -14 m 519 17 q 790 138 696 17 q 885 486 885 260 q 790 834 885 713 q 519 956 696 956 q 244 834 342 956 q 146 486 146 713 q 244 138 146 260 q 519 17 342 17 z "},"1":{"ha":653,"x_min":96,"x_max":524,"o":"m 313 11 l 313 958 l 329 954 l 107 815 l 96 840 l 322 986 l 343 986 l 343 11 l 313 11 m 128 0 l 128 31 l 524 31 l 524 0 l 128 0 z "},"2":{"ha":938,"x_min":124,"x_max":818,"o":"m 154 0 l 143 25 l 556 422 q 614 480 578 444 q 686 559 650 515 q 746 650 722 603 q 769 744 769 697 q 737 856 769 808 q 640 929 704 903 q 489 956 576 956 q 365 934 425 956 q 249 863 304 913 q 147 722 193 813 l 124 738 q 216 876 161 821 q 341 958 271 931 q 492 986 411 986 q 655 957 585 986 q 763 875 725 928 q 801 750 801 822 q 785 665 801 707 q 743 585 768 624 q 688 512 718 546 q 630 451 657 478 q 583 406 603 425 l 171 10 l 169 31 l 818 31 l 818 0 l 154 0 z "},"3":{"ha":918,"x_min":82,"x_max":817,"o":"m 463 -14 q 244 38 340 -14 q 82 192 149 90 l 106 214 q 206 103 150 147 q 326 38 261 60 q 464 17 392 17 q 635 55 563 17 q 747 158 707 93 q 786 306 786 224 q 753 446 786 385 q 658 542 719 507 q 513 578 597 578 q 439 572 471 578 q 378 551 407 567 q 314 503 349 535 l 293 524 l 763 954 l 767 942 l 178 942 l 178 972 l 778 972 l 789 935 l 368 553 l 350 560 q 421 596 386 583 q 506 608 456 608 q 638 586 581 608 q 735 524 694 564 q 796 431 775 485 q 817 313 817 376 q 772 143 817 217 q 647 28 726 69 q 463 -14 567 -14 z "},"4":{"ha":983,"x_min":79,"x_max":911,"o":"m 681 0 l 681 953 l 697 951 l 110 282 l 104 294 l 911 294 l 911 264 l 94 264 l 79 294 l 676 972 l 711 972 l 711 0 l 681 0 z "},"5":{"ha":938,"x_min":110,"x_max":824,"o":"m 443 -14 q 249 32 333 -14 q 110 150 165 78 l 133 175 q 267 59 186 101 q 444 17 347 17 q 623 58 544 17 q 746 172 701 100 q 790 336 790 244 q 748 476 790 413 q 635 576 706 539 q 476 614 564 614 q 344 598 406 614 q 236 556 282 582 q 164 506 190 531 l 146 524 l 210 972 l 763 972 l 763 942 l 217 942 l 238 958 l 176 535 l 167 543 q 256 597 207 574 q 362 632 306 619 q 478 644 418 644 q 651 605 574 644 q 776 495 729 565 q 824 329 824 425 q 775 154 824 232 q 640 31 726 76 q 443 -14 554 -14 z "},"6":{"ha":1024,"x_min":149,"x_max":851,"o":"m 496 -14 q 363 10 425 -14 q 252 78 300 33 q 176 185 204 124 q 149 324 149 247 q 160 425 149 376 q 192 522 171 474 q 242 615 213 569 q 307 706 271 661 l 521 972 l 553 972 l 556 965 l 336 696 q 258 588 294 643 q 202 485 222 532 q 182 406 182 438 l 172 407 q 217 497 188 456 q 291 567 247 538 q 388 615 335 597 q 503 632 442 632 q 680 590 601 632 q 805 476 758 549 q 851 308 851 403 q 806 149 851 222 q 679 31 760 76 q 496 -14 599 -14 m 500 17 q 658 55 586 17 q 775 159 731 93 q 819 310 819 225 q 779 459 819 393 q 667 563 739 525 q 500 601 594 601 q 336 561 408 601 q 222 455 264 521 q 181 310 181 389 q 222 164 181 231 q 335 57 263 97 q 500 17 407 17 z "},"7":{"ha":768,"x_min":24,"x_max":668,"o":"m 214 0 l 642 963 l 653 942 l 24 942 l 24 972 l 649 972 l 668 947 l 249 0 l 214 0 z "},"8":{"ha":988,"x_min":128,"x_max":861,"o":"m 494 -4 q 306 32 389 -4 q 176 130 224 68 q 128 268 128 192 q 149 367 128 324 q 210 444 171 411 q 303 501 250 478 q 421 535 357 524 l 424 519 q 326 544 371 524 q 250 594 282 564 q 201 663 218 625 q 183 744 183 701 q 223 869 183 815 q 333 954 263 922 q 494 986 404 986 q 655 955 585 986 q 765 870 725 924 q 806 743 806 817 q 787 660 806 699 q 735 592 768 622 q 661 544 703 563 q 574 519 619 525 l 575 536 q 688 502 636 525 q 778 445 740 479 q 839 367 817 411 q 861 268 861 324 q 813 129 861 192 q 682 31 764 67 q 494 -4 600 -4 m 494 26 q 662 59 586 26 q 783 147 738 92 q 829 268 829 203 q 785 393 829 339 q 665 478 742 447 q 494 510 588 510 q 324 478 400 510 q 204 392 249 447 q 160 267 160 338 q 205 148 160 203 q 326 60 250 93 q 494 26 403 26 m 494 538 q 642 565 579 538 q 740 640 706 592 q 774 749 774 688 q 738 856 774 810 q 640 929 703 903 q 494 956 576 956 q 352 929 415 956 q 252 856 289 903 q 215 749 215 810 q 253 637 215 685 q 356 563 292 589 q 494 538 419 538 z "},"9":{"ha":936,"x_min":126,"x_max":828,"o":"m 486 0 l 483 7 l 792 532 l 803 561 q 757 474 788 515 q 684 403 726 433 q 589 357 642 374 q 474 340 536 340 q 297 382 376 340 q 172 497 218 424 q 126 664 126 569 q 172 824 126 751 q 298 942 218 897 q 481 986 378 986 q 614 963 551 986 q 724 894 676 939 q 799 790 771 850 q 828 654 828 729 q 815 565 828 610 q 781 472 803 519 q 732 373 760 424 q 671 268 704 322 l 517 0 l 486 0 m 478 371 q 641 411 569 371 q 753 517 713 451 q 794 663 794 583 q 754 808 794 742 q 642 915 714 875 q 478 956 571 956 q 319 918 392 956 q 201 814 246 881 q 157 663 157 747 q 197 513 157 579 q 310 409 238 447 q 478 371 382 371 z "},"A":{"ha":1076,"x_min":85,"x_max":993,"o":"m 85 0 l 515 972 l 560 972 l 993 0 l 957 0 l 625 747 q 606 785 617 761 q 583 839 596 810 q 558 899 571 868 q 532 957 544 929 l 540 956 q 519 905 531 933 q 494 846 507 876 q 469 790 481 815 q 450 746 458 764 l 119 0 l 85 0 m 240 313 l 253 343 l 826 343 l 839 313 l 240 313 z "},"Á":{"ha":1076,"x_min":85,"x_max":993,"o":"m 85 0 l 515 972 l 560 972 l 993 0 l 957 0 l 625 747 q 606 785 617 761 q 583 839 596 810 q 558 899 571 868 q 532 957 544 929 l 540 956 q 519 905 531 933 q 494 846 507 876 q 469 790 481 815 q 450 746 458 764 l 119 0 l 85 0 m 240 313 l 253 343 l 826 343 l 839 313 l 240 313 m 449 1061 l 436 1083 l 644 1211 l 663 1181 l 449 1061 z "},"Ă":{"ha":1076,"x_min":85,"x_max":993,"o":"m 85 0 l 515 972 l 560 972 l 993 0 l 957 0 l 625 747 q 606 785 617 761 q 583 839 596 810 q 558 899 571 868 q 532 957 544 929 l 540 956 q 519 905 531 933 q 494 846 507 876 q 469 790 481 815 q 450 746 458 764 l 119 0 l 85 0 m 240 313 l 253 343 l 826 343 l 839 313 l 240 313 m 539 1058 q 454 1078 492 1058 q 392 1132 417 1097 q 356 1211 367 1167 l 386 1214 q 442 1123 400 1158 q 539 1088 483 1088 q 636 1123 593 1088 q 692 1214 679 1158 l 722 1211 q 687 1132 713 1167 q 624 1078 661 1097 q 539 1058 586 1058 z "},"Ắ":{"ha":1076,"x_min":85,"x_max":993,"o":"m 85 0 l 515 972 l 560 972 l 993 0 l 957 0 l 625 747 q 606 785 617 761 q 583 839 596 810 q 558 899 571 868 q 532 957 544 929 l 540 956 q 519 905 531 933 q 494 846 507 876 q 469 790 481 815 q 450 746 458 764 l 119 0 l 85 0 m 240 313 l 253 343 l 826 343 l 839 313 l 240 313 m 539 1058 q 422 1097 468 1058 q 356 1197 375 1136 l 388 1200 q 444 1119 404 1150 q 539 1088 483 1088 q 634 1119 593 1088 q 690 1200 675 1150 l 722 1197 q 656 1097 704 1136 q 539 1058 608 1058 m 531 1210 l 511 1224 l 621 1378 l 653 1354 l 531 1210 z "},"Ặ":{"ha":1076,"x_min":85,"x_max":993,"o":"m 85 0 l 515 972 l 560 972 l 993 0 l 957 0 l 625 747 q 606 785 617 761 q 583 839 596 810 q 558 899 571 868 q 532 957 544 929 l 540 956 q 519 905 531 933 q 494 846 507 876 q 469 790 481 815 q 450 746 458 764 l 119 0 l 85 0 m 240 313 l 253 343 l 826 343 l 839 313 l 240 313 m 539 -193 q 509 -181 518 -193 q 500 -153 500 -169 q 508 -126 500 -139 q 539 -112 517 -112 q 568 -124 558 -112 q 578 -153 578 -136 q 569 -181 578 -168 q 539 -193 561 -193 m 539 1058 q 454 1078 492 1058 q 392 1132 417 1097 q 356 1211 367 1167 l 386 1214 q 442 1123 400 1158 q 539 1088 483 1088 q 636 1123 593 1088 q 692 1214 679 1158 l 722 1211 q 687 1132 713 1167 q 624 1078 661 1097 q 539 1058 586 1058 z "},"Ằ":{"ha":1076,"x_min":85,"x_max":993,"o":"m 85 0 l 515 972 l 560 972 l 993 0 l 957 0 l 625 747 q 606 785 617 761 q 583 839 596 810 q 558 899 571 868 q 532 957 544 929 l 540 956 q 519 905 531 933 q 494 846 507 876 q 469 790 481 815 q 450 746 458 764 l 119 0 l 85 0 m 240 313 l 253 343 l 826 343 l 839 313 l 240 313 m 539 1058 q 422 1095 468 1058 q 356 1197 375 1132 l 388 1200 q 444 1117 404 1146 q 539 1088 483 1088 q 634 1117 593 1088 q 690 1200 675 1146 l 722 1197 q 656 1095 704 1132 q 539 1058 608 1058 m 558 1210 l 436 1354 l 468 1378 l 578 1224 l 558 1210 z "},"Ẳ":{"ha":1076,"x_min":85,"x_max":993,"o":"m 85 0 l 515 972 l 560 972 l 993 0 l 957 0 l 625 747 q 606 785 617 761 q 583 839 596 810 q 558 899 571 868 q 532 957 544 929 l 540 956 q 519 905 531 933 q 494 846 507 876 q 469 790 481 815 q 450 746 458 764 l 119 0 l 85 0 m 240 313 l 253 343 l 826 343 l 839 313 l 240 313 m 539 1058 q 422 1097 468 1058 q 356 1197 375 1136 l 388 1200 q 444 1119 404 1150 q 539 1088 483 1088 q 634 1119 593 1088 q 690 1200 675 1150 l 722 1197 q 656 1097 704 1136 q 539 1058 608 1058 m 535 1211 q 529 1224 532 1218 q 526 1238 526 1229 q 542 1263 526 1251 q 575 1286 557 1275 q 608 1308 594 1297 q 622 1328 622 1318 q 599 1352 622 1344 q 544 1360 576 1360 q 495 1356 519 1360 q 444 1343 471 1353 l 435 1371 q 485 1385 458 1381 q 544 1390 511 1390 q 626 1374 594 1390 q 657 1328 657 1357 q 638 1293 657 1307 q 599 1268 618 1279 q 572 1251 583 1258 q 560 1233 560 1243 q 562 1226 560 1229 q 565 1218 564 1222 l 535 1211 z "},"Ẵ":{"ha":1076,"x_min":85,"x_max":993,"o":"m 85 0 l 515 972 l 560 972 l 993 0 l 957 0 l 625 747 q 606 785 617 761 q 583 839 596 810 q 558 899 571 868 q 532 957 544 929 l 540 956 q 519 905 531 933 q 494 846 507 876 q 469 790 481 815 q 450 746 458 764 l 119 0 l 85 0 m 240 313 l 253 343 l 826 343 l 839 313 l 240 313 m 539 1058 q 422 1097 468 1058 q 356 1197 375 1136 l 388 1200 q 444 1119 404 1150 q 539 1088 483 1088 q 634 1119 593 1088 q 690 1200 675 1150 l 722 1197 q 656 1097 704 1136 q 539 1058 608 1058 m 631 1300 q 584 1308 608 1300 q 535 1325 560 1315 q 490 1341 513 1333 q 449 1349 468 1349 q 417 1338 431 1349 q 397 1300 404 1326 l 365 1306 q 395 1359 372 1339 q 449 1379 418 1379 q 496 1371 472 1379 q 542 1354 519 1363 q 585 1338 564 1346 q 629 1331 607 1331 q 663 1341 649 1331 q 688 1382 678 1351 l 714 1376 q 697 1335 710 1351 q 667 1309 685 1318 q 631 1300 650 1300 z "},"Ǎ":{"ha":1076,"x_min":85,"x_max":993,"o":"m 85 0 l 515 972 l 560 972 l 993 0 l 957 0 l 625 747 q 606 785 617 761 q 583 839 596 810 q 558 899 571 868 q 532 957 544 929 l 540 956 q 519 905 531 933 q 494 846 507 876 q 469 790 481 815 q 450 746 458 764 l 119 0 l 85 0 m 240 313 l 253 343 l 826 343 l 839 313 l 240 313 m 519 1069 l 371 1183 l 388 1201 l 550 1088 l 529 1088 l 690 1201 l 707 1183 l 558 1069 l 519 1069 z "},"Â":{"ha":1076,"x_min":85,"x_max":993,"o":"m 85 0 l 515 972 l 560 972 l 993 0 l 957 0 l 625 747 q 606 785 617 761 q 583 839 596 810 q 558 899 571 868 q 532 957 544 929 l 540 956 q 519 905 531 933 q 494 846 507 876 q 469 790 481 815 q 450 746 458 764 l 119 0 l 85 0 m 240 313 l 253 343 l 826 343 l 839 313 l 240 313 m 388 1069 l 371 1088 l 519 1201 l 558 1201 l 707 1088 l 690 1069 l 529 1183 l 550 1183 l 388 1069 z "},"Ấ":{"ha":1076,"x_min":85,"x_max":993,"o":"m 85 0 l 515 972 l 560 972 l 993 0 l 957 0 l 625 747 q 606 785 617 761 q 583 839 596 810 q 558 899 571 868 q 532 957 544 929 l 540 956 q 519 905 531 933 q 494 846 507 876 q 469 790 481 815 q 450 746 458 764 l 119 0 l 85 0 m 240 313 l 253 343 l 826 343 l 839 313 l 240 313 m 388 1069 l 371 1088 l 519 1201 l 558 1201 l 707 1088 l 690 1069 l 529 1183 l 550 1183 l 388 1069 m 697 1196 l 678 1210 l 788 1364 l 819 1340 l 697 1196 z "},"Ậ":{"ha":1076,"x_min":85,"x_max":993,"o":"m 85 0 l 515 972 l 560 972 l 993 0 l 957 0 l 625 747 q 606 785 617 761 q 583 839 596 810 q 558 899 571 868 q 532 957 544 929 l 540 956 q 519 905 531 933 q 494 846 507 876 q 469 790 481 815 q 450 746 458 764 l 119 0 l 85 0 m 240 313 l 253 343 l 826 343 l 839 313 l 240 313 m 539 -193 q 509 -181 518 -193 q 500 -153 500 -169 q 508 -126 500 -139 q 539 -112 517 -112 q 568 -124 558 -112 q 578 -153 578 -136 q 569 -181 578 -168 q 539 -193 561 -193 m 388 1069 l 371 1088 l 519 1201 l 558 1201 l 707 1088 l 690 1069 l 529 1183 l 550 1183 l 388 1069 z "},"Ầ":{"ha":1076,"x_min":85,"x_max":993,"o":"m 85 0 l 515 972 l 560 972 l 993 0 l 957 0 l 625 747 q 606 785 617 761 q 583 839 596 810 q 558 899 571 868 q 532 957 544 929 l 540 956 q 519 905 531 933 q 494 846 507 876 q 469 790 481 815 q 450 746 458 764 l 119 0 l 85 0 m 240 313 l 253 343 l 826 343 l 839 313 l 240 313 m 388 1069 l 371 1088 l 519 1201 l 558 1201 l 707 1088 l 690 1069 l 529 1183 l 550 1183 l 388 1069 m 725 1196 l 603 1340 l 635 1364 l 744 1210 l 725 1196 z "},"Ẩ":{"ha":1076,"x_min":85,"x_max":993,"o":"m 85 0 l 515 972 l 560 972 l 993 0 l 957 0 l 625 747 q 606 785 617 761 q 583 839 596 810 q 558 899 571 868 q 532 957 544 929 l 540 956 q 519 905 531 933 q 494 846 507 876 q 469 790 481 815 q 450 746 458 764 l 119 0 l 85 0 m 240 313 l 253 343 l 826 343 l 839 313 l 240 313 m 388 1069 l 371 1088 l 519 1201 l 558 1201 l 707 1088 l 690 1069 l 529 1183 l 550 1183 l 388 1069 m 701 1206 q 696 1218 699 1213 q 693 1232 693 1224 q 708 1258 693 1246 q 742 1281 724 1269 q 775 1302 761 1292 q 789 1322 789 1313 q 767 1347 789 1339 q 713 1354 744 1354 q 662 1350 686 1354 q 611 1338 638 1346 l 601 1365 q 651 1380 625 1375 q 713 1385 678 1385 q 792 1368 761 1385 q 824 1322 824 1351 q 804 1288 824 1301 q 765 1263 785 1274 q 738 1245 750 1253 q 726 1228 726 1238 q 728 1220 726 1224 q 732 1213 731 1217 l 701 1206 z "},"Ẫ":{"ha":1076,"x_min":85,"x_max":993,"o":"m 85 0 l 515 972 l 560 972 l 993 0 l 957 0 l 625 747 q 606 785 617 761 q 583 839 596 810 q 558 899 571 868 q 532 957 544 929 l 540 956 q 519 905 531 933 q 494 846 507 876 q 469 790 481 815 q 450 746 458 764 l 119 0 l 85 0 m 240 313 l 253 343 l 826 343 l 839 313 l 240 313 m 388 1069 l 371 1088 l 519 1201 l 558 1201 l 707 1088 l 690 1069 l 529 1183 l 550 1183 l 388 1069 m 631 1286 q 584 1294 608 1286 q 535 1311 560 1301 q 490 1327 513 1319 q 449 1335 468 1335 q 417 1324 431 1335 q 397 1286 404 1313 l 365 1292 q 395 1345 372 1325 q 449 1365 418 1365 q 496 1357 472 1365 q 542 1340 519 1349 q 585 1324 564 1332 q 629 1317 607 1317 q 663 1327 649 1317 q 688 1368 678 1338 l 714 1363 q 697 1321 710 1338 q 667 1295 685 1304 q 631 1286 650 1286 z "},"Ȁ":{"ha":1076,"x_min":85,"x_max":993,"o":"m 85 0 l 515 972 l 560 972 l 993 0 l 957 0 l 625 747 q 606 785 617 761 q 583 839 596 810 q 558 899 571 868 q 532 957 544 929 l 540 956 q 519 905 531 933 q 494 846 507 876 q 469 790 481 815 q 450 746 458 764 l 119 0 l 85 0 m 240 313 l 253 343 l 826 343 l 839 313 l 240 313 m 633 1057 l 422 1183 l 439 1214 l 646 1079 l 633 1057 m 446 1057 l 235 1183 l 251 1214 l 458 1079 l 446 1057 z "},"Ä":{"ha":1076,"x_min":85,"x_max":993,"o":"m 85 0 l 515 972 l 560 972 l 993 0 l 957 0 l 625 747 q 606 785 617 761 q 583 839 596 810 q 558 899 571 868 q 532 957 544 929 l 540 956 q 519 905 531 933 q 494 846 507 876 q 469 790 481 815 q 450 746 458 764 l 119 0 l 85 0 m 240 313 l 253 343 l 826 343 l 839 313 l 240 313 m 643 1099 q 616 1109 626 1099 q 606 1136 606 1119 q 615 1163 606 1151 q 643 1174 625 1174 q 672 1163 663 1174 q 681 1136 681 1153 q 672 1109 681 1119 q 643 1099 663 1099 m 435 1099 q 408 1109 418 1099 q 397 1136 397 1119 q 407 1163 397 1151 q 435 1174 417 1174 q 463 1163 454 1174 q 472 1136 472 1153 q 463 1109 472 1119 q 435 1099 454 1099 z "},"Ạ":{"ha":1076,"x_min":85,"x_max":993,"o":"m 85 0 l 515 972 l 560 972 l 993 0 l 957 0 l 625 747 q 606 785 617 761 q 583 839 596 810 q 558 899 571 868 q 532 957 544 929 l 540 956 q 519 905 531 933 q 494 846 507 876 q 469 790 481 815 q 450 746 458 764 l 119 0 l 85 0 m 240 313 l 253 343 l 826 343 l 839 313 l 240 313 m 539 -193 q 509 -181 518 -193 q 500 -153 500 -169 q 508 -126 500 -139 q 539 -112 517 -112 q 568 -124 558 -112 q 578 -153 578 -136 q 569 -181 578 -168 q 539 -193 561 -193 z "},"À":{"ha":1076,"x_min":85,"x_max":993,"o":"m 85 0 l 515 972 l 560 972 l 993 0 l 957 0 l 625 747 q 606 785 617 761 q 583 839 596 810 q 558 899 571 868 q 532 957 544 929 l 540 956 q 519 905 531 933 q 494 846 507 876 q 469 790 481 815 q 450 746 458 764 l 119 0 l 85 0 m 240 313 l 253 343 l 826 343 l 839 313 l 240 313 m 626 1061 l 413 1181 l 431 1211 l 639 1083 l 626 1061 z "},"Ả":{"ha":1076,"x_min":85,"x_max":993,"o":"m 85 0 l 515 972 l 560 972 l 993 0 l 957 0 l 625 747 q 606 785 617 761 q 583 839 596 810 q 558 899 571 868 q 532 957 544 929 l 540 956 q 519 905 531 933 q 494 846 507 876 q 469 790 481 815 q 450 746 458 764 l 119 0 l 85 0 m 240 313 l 253 343 l 826 343 l 839 313 l 240 313 m 526 1063 q 521 1075 524 1069 q 518 1089 518 1081 q 533 1121 518 1108 q 567 1144 549 1133 q 602 1167 588 1157 q 617 1196 617 1178 q 592 1226 617 1217 q 532 1236 568 1236 q 486 1233 510 1236 q 436 1219 463 1229 l 426 1247 q 476 1262 450 1257 q 531 1267 501 1267 q 618 1247 585 1267 q 651 1196 651 1228 q 631 1154 651 1169 q 590 1126 611 1139 q 563 1108 575 1117 q 551 1088 551 1099 q 553 1078 551 1082 q 557 1069 556 1074 l 526 1063 z "},"Ȃ":{"ha":1076,"x_min":85,"x_max":993,"o":"m 85 0 l 515 972 l 560 972 l 993 0 l 957 0 l 625 747 q 606 785 617 761 q 583 839 596 810 q 558 899 571 868 q 532 957 544 929 l 540 956 q 519 905 531 933 q 494 846 507 876 q 469 790 481 815 q 450 746 458 764 l 119 0 l 85 0 m 240 313 l 253 343 l 826 343 l 839 313 l 240 313 m 386 1065 l 356 1068 q 392 1148 367 1114 q 455 1201 417 1182 q 539 1221 493 1221 q 624 1201 586 1221 q 686 1148 661 1182 q 722 1068 711 1114 l 692 1065 q 636 1157 678 1122 q 539 1192 594 1192 q 442 1157 485 1192 q 386 1065 399 1122 z "},"Ā":{"ha":1076,"x_min":85,"x_max":993,"o":"m 85 0 l 515 972 l 560 972 l 993 0 l 957 0 l 625 747 q 606 785 617 761 q 583 839 596 810 q 558 899 571 868 q 532 957 544 929 l 540 956 q 519 905 531 933 q 494 846 507 876 q 469 790 481 815 q 450 746 458 764 l 119 0 l 85 0 m 240 313 l 253 343 l 826 343 l 839 313 l 240 313 m 351 1121 l 351 1151 l 726 1151 l 726 1121 l 351 1121 z "},"Ą":{"ha":1076,"x_min":85,"x_max":999,"o":"m 85 0 l 515 972 l 560 972 l 993 0 l 957 0 l 625 747 q 606 785 617 761 q 583 839 596 810 q 558 899 571 868 q 532 957 544 929 l 540 956 q 519 905 531 933 q 494 846 507 876 q 469 790 481 815 q 450 746 458 764 l 119 0 l 85 0 m 240 313 l 253 343 l 826 343 l 839 313 l 240 313 m 874 -319 q 804 -301 836 -319 q 753 -251 772 -283 q 735 -181 735 -219 q 756 -97 735 -133 q 810 -35 776 -61 q 880 6 843 -10 q 950 25 917 21 l 957 0 q 862 -31 906 -7 q 792 -92 818 -56 q 765 -181 765 -129 q 796 -258 765 -226 q 874 -289 826 -289 q 938 -270 911 -289 q 978 -226 964 -251 l 999 -244 q 951 -297 983 -274 q 874 -319 919 -319 z "},"Å":{"ha":1076,"x_min":85,"x_max":993,"o":"m 85 0 l 515 972 l 560 972 l 993 0 l 957 0 l 625 747 q 606 785 617 761 q 583 839 596 810 q 558 899 571 868 q 532 957 544 929 l 540 956 q 519 905 531 933 q 494 846 507 876 q 469 790 481 815 q 450 746 458 764 l 119 0 l 85 0 m 240 313 l 253 343 l 826 343 l 839 313 l 240 313 m 539 1011 q 476 1028 506 1011 q 429 1072 447 1044 q 411 1133 411 1100 q 428 1196 411 1168 q 475 1241 446 1224 q 539 1258 504 1258 q 603 1241 575 1258 q 649 1196 632 1224 q 667 1133 667 1168 q 649 1073 667 1101 q 602 1028 631 1044 q 539 1011 574 1011 m 539 1039 q 609 1067 581 1039 q 638 1133 638 1096 q 609 1204 638 1178 q 539 1231 581 1231 q 468 1203 496 1231 q 440 1133 440 1176 q 469 1067 440 1096 q 539 1039 499 1039 z "},"Ǻ":{"ha":1076,"x_min":85,"x_max":993,"o":"m 85 0 l 515 972 l 560 972 l 993 0 l 957 0 l 625 747 q 606 785 617 761 q 583 839 596 810 q 558 899 571 868 q 532 957 544 929 l 540 956 q 519 905 531 933 q 494 846 507 876 q 469 790 481 815 q 450 746 458 764 l 119 0 l 85 0 m 240 313 l 253 343 l 826 343 l 839 313 l 240 313 m 539 1011 q 476 1028 506 1011 q 429 1072 447 1044 q 411 1133 411 1100 q 428 1196 411 1168 q 475 1241 446 1224 q 539 1258 504 1258 q 603 1241 575 1258 q 649 1196 632 1224 q 667 1133 667 1168 q 649 1073 667 1101 q 602 1028 631 1044 q 539 1011 574 1011 m 539 1039 q 609 1067 581 1039 q 638 1133 638 1096 q 609 1204 638 1178 q 539 1231 581 1231 q 468 1203 496 1231 q 440 1133 440 1176 q 469 1067 440 1096 q 539 1039 499 1039 m 449 1303 l 436 1325 l 644 1453 l 663 1422 l 449 1303 z "},"Ã":{"ha":1076,"x_min":85,"x_max":993,"o":"m 85 0 l 515 972 l 560 972 l 993 0 l 957 0 l 625 747 q 606 785 617 761 q 583 839 596 810 q 558 899 571 868 q 532 957 544 929 l 540 956 q 519 905 531 933 q 494 846 507 876 q 469 790 481 815 q 450 746 458 764 l 119 0 l 85 0 m 240 313 l 253 343 l 826 343 l 839 313 l 240 313 m 622 1089 q 583 1095 606 1089 q 508 1128 561 1101 q 478 1142 500 1132 q 436 1153 457 1153 q 401 1137 417 1153 q 385 1090 385 1121 l 354 1090 q 378 1158 354 1133 q 433 1183 403 1183 q 496 1169 467 1183 q 550 1143 525 1156 q 597 1124 583 1128 q 619 1119 610 1119 q 668 1134 646 1119 q 692 1182 690 1149 l 722 1182 q 708 1132 722 1153 q 672 1100 694 1111 q 622 1089 649 1089 z "},"Æ":{"ha":1635,"x_min":71,"x_max":1479,"o":"m 71 0 l 843 972 l 1479 972 l 1479 942 l 885 942 l 885 508 l 1400 508 l 1400 479 l 885 479 l 885 31 l 1479 31 l 1479 0 l 854 0 l 854 300 l 339 300 l 364 331 l 854 331 l 854 953 l 863 946 l 111 0 l 71 0 z "},"Ǽ":{"ha":1635,"x_min":71,"x_max":1479,"o":"m 71 0 l 843 972 l 1479 972 l 1479 942 l 885 942 l 885 508 l 1400 508 l 1400 479 l 885 479 l 885 31 l 1479 31 l 1479 0 l 854 0 l 854 300 l 339 300 l 364 331 l 854 331 l 854 953 l 863 946 l 111 0 l 71 0 m 1013 1061 l 1000 1083 l 1208 1211 l 1226 1181 l 1013 1061 z "},"B":{"ha":1151,"x_min":218,"x_max":1013,"o":"m 218 0 l 218 972 l 674 972 q 828 942 764 972 q 926 861 892 913 q 961 739 961 810 q 900 584 961 646 q 728 506 839 522 l 724 522 q 882 483 818 517 q 979 394 946 450 q 1013 265 1013 339 q 992 156 1013 206 q 930 72 971 107 q 826 19 889 38 q 681 0 764 0 l 218 0 m 249 31 l 674 31 q 844 57 776 29 q 947 138 913 85 q 981 263 981 190 q 945 389 981 336 q 842 471 910 442 q 681 500 775 500 l 249 500 l 249 31 m 249 529 l 682 529 q 812 556 756 529 q 898 629 868 582 q 928 740 928 676 q 862 886 928 831 q 678 942 796 942 l 249 942 l 249 529 z "},"C":{"ha":1193,"x_min":139,"x_max":1074,"o":"m 679 -14 q 460 23 560 -14 q 289 126 361 60 q 178 284 217 193 q 139 483 139 375 q 178 683 139 592 q 290 843 217 775 q 461 949 363 911 q 679 986 560 986 q 833 967 760 986 q 966 911 906 947 q 1074 826 1026 875 l 1057 799 q 953 883 1013 847 q 826 937 894 918 q 678 956 757 956 q 475 920 568 956 q 314 821 382 885 q 208 671 246 757 q 171 483 171 585 q 208 298 171 383 q 314 149 246 213 q 475 51 382 86 q 678 17 568 17 q 819 33 753 17 q 940 79 885 49 q 1042 150 996 110 l 1060 125 q 953 51 1013 82 q 825 3 893 21 q 679 -14 757 -14 z "},"Ć":{"ha":1193,"x_min":139,"x_max":1074,"o":"m 679 -14 q 460 23 560 -14 q 289 126 361 60 q 178 284 217 193 q 139 483 139 375 q 178 683 139 592 q 290 843 217 775 q 461 949 363 911 q 679 986 560 986 q 833 967 760 986 q 966 911 906 947 q 1074 826 1026 875 l 1057 799 q 953 883 1013 847 q 826 937 894 918 q 678 956 757 956 q 475 920 568 956 q 314 821 382 885 q 208 671 246 757 q 171 483 171 585 q 208 298 171 383 q 314 149 246 213 q 475 51 382 86 q 678 17 568 17 q 819 33 753 17 q 940 79 885 49 q 1042 150 996 110 l 1060 125 q 953 51 1013 82 q 825 3 893 21 q 679 -14 757 -14 m 589 1061 l 576 1083 l 785 1211 l 803 1181 l 589 1061 z "},"Č":{"ha":1193,"x_min":139,"x_max":1074,"o":"m 679 -14 q 460 23 560 -14 q 289 126 361 60 q 178 284 217 193 q 139 483 139 375 q 178 683 139 592 q 290 843 217 775 q 461 949 363 911 q 679 986 560 986 q 833 967 760 986 q 966 911 906 947 q 1074 826 1026 875 l 1057 799 q 953 883 1013 847 q 826 937 894 918 q 678 956 757 956 q 475 920 568 956 q 314 821 382 885 q 208 671 246 757 q 171 483 171 585 q 208 298 171 383 q 314 149 246 213 q 475 51 382 86 q 678 17 568 17 q 819 33 753 17 q 940 79 885 49 q 1042 150 996 110 l 1060 125 q 953 51 1013 82 q 825 3 893 21 q 679 -14 757 -14 m 660 1069 l 511 1183 l 528 1201 l 690 1088 l 669 1088 l 831 1201 l 847 1183 l 699 1069 l 660 1069 z "},"Ç":{"ha":1193,"x_min":139,"x_max":1074,"o":"m 679 -14 q 460 23 560 -14 q 289 126 361 60 q 178 284 217 193 q 139 483 139 375 q 178 683 139 592 q 290 843 217 775 q 461 949 363 911 q 679 986 560 986 q 833 967 760 986 q 966 911 906 947 q 1074 826 1026 875 l 1057 799 q 953 883 1013 847 q 826 937 894 918 q 678 956 757 956 q 475 920 568 956 q 314 821 382 885 q 208 671 246 757 q 171 483 171 585 q 208 298 171 383 q 314 149 246 213 q 475 51 382 86 q 678 17 568 17 q 819 33 753 17 q 940 79 885 49 q 1042 150 996 110 l 1060 125 q 953 51 1013 82 q 825 3 893 21 q 679 -14 757 -14 m 557 -315 l 550 -289 q 638 -274 596 -282 q 705 -247 679 -265 q 731 -194 731 -228 q 713 -151 731 -167 q 664 -129 696 -136 q 592 -122 632 -122 l 576 -100 l 650 0 l 681 0 l 607 -96 q 719 -122 679 -97 q 760 -193 760 -147 q 740 -253 760 -232 q 690 -287 721 -275 q 624 -306 660 -300 q 557 -315 589 -311 z "},"Ḉ":{"ha":1193,"x_min":139,"x_max":1074,"o":"m 679 -14 q 460 23 560 -14 q 289 126 361 60 q 178 284 217 193 q 139 483 139 375 q 178 683 139 592 q 290 843 217 775 q 461 949 363 911 q 679 986 560 986 q 833 967 760 986 q 966 911 906 947 q 1074 826 1026 875 l 1057 799 q 953 883 1013 847 q 826 937 894 918 q 678 956 757 956 q 475 920 568 956 q 314 821 382 885 q 208 671 246 757 q 171 483 171 585 q 208 298 171 383 q 314 149 246 213 q 475 51 382 86 q 678 17 568 17 q 819 33 753 17 q 940 79 885 49 q 1042 150 996 110 l 1060 125 q 953 51 1013 82 q 825 3 893 21 q 679 -14 757 -14 m 557 -315 l 550 -289 q 638 -274 596 -282 q 705 -247 679 -265 q 731 -194 731 -228 q 713 -151 731 -167 q 664 -129 696 -136 q 592 -122 632 -122 l 576 -100 l 650 0 l 681 0 l 607 -96 q 719 -122 679 -97 q 760 -193 760 -147 q 740 -253 760 -232 q 690 -287 721 -275 q 624 -306 660 -300 q 557 -315 589 -311 m 589 1061 l 576 1083 l 785 1211 l 803 1181 l 589 1061 z "},"Ĉ":{"ha":1193,"x_min":139,"x_max":1074,"o":"m 679 -14 q 460 23 560 -14 q 289 126 361 60 q 178 284 217 193 q 139 483 139 375 q 178 683 139 592 q 290 843 217 775 q 461 949 363 911 q 679 986 560 986 q 833 967 760 986 q 966 911 906 947 q 1074 826 1026 875 l 1057 799 q 953 883 1013 847 q 826 937 894 918 q 678 956 757 956 q 475 920 568 956 q 314 821 382 885 q 208 671 246 757 q 171 483 171 585 q 208 298 171 383 q 314 149 246 213 q 475 51 382 86 q 678 17 568 17 q 819 33 753 17 q 940 79 885 49 q 1042 150 996 110 l 1060 125 q 953 51 1013 82 q 825 3 893 21 q 679 -14 757 -14 m 528 1069 l 511 1088 l 660 1201 l 699 1201 l 847 1088 l 831 1069 l 669 1183 l 690 1183 l 528 1069 z "},"Ċ":{"ha":1193,"x_min":139,"x_max":1074,"o":"m 679 -14 q 460 23 560 -14 q 289 126 361 60 q 178 284 217 193 q 139 483 139 375 q 178 683 139 592 q 290 843 217 775 q 461 949 363 911 q 679 986 560 986 q 833 967 760 986 q 966 911 906 947 q 1074 826 1026 875 l 1057 799 q 953 883 1013 847 q 826 937 894 918 q 678 956 757 956 q 475 920 568 956 q 314 821 382 885 q 208 671 246 757 q 171 483 171 585 q 208 298 171 383 q 314 149 246 213 q 475 51 382 86 q 678 17 568 17 q 819 33 753 17 q 940 79 885 49 q 1042 150 996 110 l 1060 125 q 953 51 1013 82 q 825 3 893 21 q 679 -14 757 -14 m 679 1096 q 650 1107 660 1096 q 640 1136 640 1118 q 650 1165 640 1153 q 679 1176 660 1176 q 708 1165 697 1176 q 718 1136 718 1154 q 708 1107 718 1118 q 679 1096 699 1096 z "},"D":{"ha":1264,"x_min":218,"x_max":1125,"o":"m 218 0 l 218 972 l 624 972 q 820 936 729 972 q 979 835 911 900 q 1086 681 1047 771 q 1125 486 1125 592 q 1086 291 1125 381 q 980 137 1047 201 q 821 36 913 72 q 624 0 729 0 l 218 0 m 249 18 l 235 31 l 617 31 q 803 65 715 31 q 956 160 890 99 q 1057 304 1021 221 q 1093 486 1093 388 q 1057 668 1093 585 q 955 813 1021 751 q 802 908 889 874 q 617 942 715 942 l 233 942 l 249 957 l 249 18 z "},"Ǳ":{"ha":2257,"x_min":218,"x_max":2139,"o":"m 218 0 l 218 972 l 624 972 q 820 936 729 972 q 979 835 911 900 q 1086 681 1047 771 q 1125 486 1125 592 q 1086 291 1125 381 q 980 137 1047 201 q 821 36 913 72 q 624 0 729 0 l 218 0 m 249 18 l 235 31 l 617 31 q 803 65 715 31 q 956 160 890 99 q 1057 304 1021 221 q 1093 486 1093 388 q 1057 668 1093 585 q 955 813 1021 751 q 802 908 889 874 q 617 942 715 942 l 233 942 l 249 957 l 249 18 m 1315 0 l 1315 33 l 2100 961 l 2104 942 l 1351 942 l 1351 972 l 2124 972 l 2124 940 l 1340 14 l 1340 31 l 2139 31 l 2139 0 l 1315 0 z "},"Ǆ":{"ha":2257,"x_min":218,"x_max":2139,"o":"m 218 0 l 218 972 l 624 972 q 820 936 729 972 q 979 835 911 900 q 1086 681 1047 771 q 1125 486 1125 592 q 1086 291 1125 381 q 980 137 1047 201 q 821 36 913 72 q 624 0 729 0 l 218 0 m 249 18 l 235 31 l 617 31 q 803 65 715 31 q 956 160 890 99 q 1057 304 1021 221 q 1093 486 1093 388 q 1057 668 1093 585 q 955 813 1021 751 q 802 908 889 874 q 617 942 715 942 l 233 942 l 249 957 l 249 18 m 1315 0 l 1315 33 l 2100 961 l 2104 942 l 1351 942 l 1351 972 l 2124 972 l 2124 940 l 1340 14 l 1340 31 l 2139 31 l 2139 0 l 1315 0 m 1708 1069 l 1560 1183 l 1576 1201 l 1739 1088 l 1718 1088 l 1879 1201 l 1896 1183 l 1747 1069 l 1708 1069 z "},"Ð":{"ha":1264,"x_min":89,"x_max":1125,"o":"m 89 472 l 89 499 l 569 499 l 569 472 l 89 472 m 218 0 l 218 972 l 624 972 q 820 936 729 972 q 979 835 911 900 q 1086 681 1047 771 q 1125 486 1125 592 q 1086 291 1125 381 q 980 137 1047 201 q 821 36 913 72 q 624 0 729 0 l 218 0 m 249 18 l 235 31 l 617 31 q 803 65 715 31 q 956 160 890 99 q 1057 304 1021 221 q 1093 486 1093 388 q 1057 668 1093 585 q 955 813 1021 751 q 802 908 889 874 q 617 942 715 942 l 233 942 l 249 957 l 249 18 z "},"Ď":{"ha":1264,"x_min":218,"x_max":1125,"o":"m 218 0 l 218 972 l 624 972 q 820 936 729 972 q 979 835 911 900 q 1086 681 1047 771 q 1125 486 1125 592 q 1086 291 1125 381 q 980 137 1047 201 q 821 36 913 72 q 624 0 729 0 l 218 0 m 249 18 l 235 31 l 617 31 q 803 65 715 31 q 956 160 890 99 q 1057 304 1021 221 q 1093 486 1093 388 q 1057 668 1093 585 q 955 813 1021 751 q 802 908 889 874 q 617 942 715 942 l 233 942 l 249 957 l 249 18 m 615 1069 l 467 1183 l 483 1201 l 646 1088 l 625 1088 l 786 1201 l 803 1183 l 654 1069 l 615 1069 z "},"Đ":{"ha":1264,"x_min":89,"x_max":1125,"o":"m 89 472 l 89 499 l 569 499 l 569 472 l 89 472 m 218 0 l 218 972 l 624 972 q 820 936 729 972 q 979 835 911 900 q 1086 681 1047 771 q 1125 486 1125 592 q 1086 291 1125 381 q 980 137 1047 201 q 821 36 913 72 q 624 0 729 0 l 218 0 m 249 18 l 235 31 l 617 31 q 803 65 715 31 q 956 160 890 99 q 1057 304 1021 221 q 1093 486 1093 388 q 1057 668 1093 585 q 955 813 1021 751 q 802 908 889 874 q 617 942 715 942 l 233 942 l 249 957 l 249 18 z "},"Ḍ":{"ha":1264,"x_min":218,"x_max":1125,"o":"m 218 0 l 218 972 l 624 972 q 820 936 729 972 q 979 835 911 900 q 1086 681 1047 771 q 1125 486 1125 592 q 1086 291 1125 381 q 980 137 1047 201 q 821 36 913 72 q 624 0 729 0 l 218 0 m 249 18 l 235 31 l 617 31 q 803 65 715 31 q 956 160 890 99 q 1057 304 1021 221 q 1093 486 1093 388 q 1057 668 1093 585 q 955 813 1021 751 q 802 908 889 874 q 617 942 715 942 l 233 942 l 249 957 l 249 18 m 635 -193 q 605 -181 614 -193 q 596 -153 596 -169 q 604 -126 596 -139 q 635 -112 613 -112 q 664 -124 654 -112 q 674 -153 674 -136 q 665 -181 674 -168 q 635 -193 657 -193 z "},"Ḏ":{"ha":1264,"x_min":218,"x_max":1125,"o":"m 218 0 l 218 972 l 624 972 q 820 936 729 972 q 979 835 911 900 q 1086 681 1047 771 q 1125 486 1125 592 q 1086 291 1125 381 q 980 137 1047 201 q 821 36 913 72 q 624 0 729 0 l 218 0 m 249 18 l 235 31 l 617 31 q 803 65 715 31 q 956 160 890 99 q 1057 304 1021 221 q 1093 486 1093 388 q 1057 668 1093 585 q 955 813 1021 751 q 802 908 889 874 q 617 942 715 942 l 233 942 l 249 957 l 249 18 m 447 -168 l 447 -137 l 824 -137 l 824 -168 l 447 -168 z "},"ǲ":{"ha":2049,"x_min":218,"x_max":1957,"o":"m 218 0 l 218 972 l 624 972 q 820 936 729 972 q 979 835 911 900 q 1086 681 1047 771 q 1125 486 1125 592 q 1086 291 1125 381 q 980 137 1047 201 q 821 36 913 72 q 624 0 729 0 l 218 0 m 249 18 l 235 31 l 617 31 q 803 65 715 31 q 956 160 890 99 q 1057 304 1021 221 q 1093 486 1093 388 q 1057 668 1093 585 q 955 813 1021 751 q 802 908 889 874 q 617 942 715 942 l 233 942 l 249 957 l 249 18 m 1350 0 l 1350 36 l 1910 718 l 1911 699 l 1350 699 l 1350 729 l 1928 729 l 1928 690 l 1374 17 l 1369 31 l 1957 31 l 1957 0 l 1350 0 z "},"ǅ":{"ha":2049,"x_min":218,"x_max":1957,"o":"m 218 0 l 218 972 l 624 972 q 820 936 729 972 q 979 835 911 900 q 1086 681 1047 771 q 1125 486 1125 592 q 1086 291 1125 381 q 980 137 1047 201 q 821 36 913 72 q 624 0 729 0 l 218 0 m 249 18 l 235 31 l 617 31 q 803 65 715 31 q 956 160 890 99 q 1057 304 1021 221 q 1093 486 1093 388 q 1057 668 1093 585 q 955 813 1021 751 q 802 908 889 874 q 617 942 715 942 l 233 942 l 249 957 l 249 18 m 1350 0 l 1350 36 l 1910 718 l 1911 699 l 1350 699 l 1350 729 l 1928 729 l 1928 690 l 1374 17 l 1369 31 l 1957 31 l 1957 0 l 1350 0 m 1635 863 l 1486 990 l 1503 1008 l 1665 881 l 1644 881 l 1806 1008 l 1822 990 l 1674 863 l 1635 863 z "},"E":{"ha":1026,"x_min":218,"x_max":869,"o":"m 218 0 l 218 972 l 869 972 l 869 942 l 249 942 l 249 31 l 861 31 l 861 0 l 218 0 m 236 488 l 236 518 l 789 518 l 789 488 l 236 488 z "},"É":{"ha":1026,"x_min":218,"x_max":869,"o":"m 218 0 l 218 972 l 869 972 l 869 942 l 249 942 l 249 31 l 861 31 l 861 0 l 218 0 m 236 488 l 236 518 l 789 518 l 789 488 l 236 488 m 465 1061 l 453 1083 l 661 1211 l 679 1181 l 465 1061 z "},"Ĕ":{"ha":1026,"x_min":218,"x_max":869,"o":"m 218 0 l 218 972 l 869 972 l 869 942 l 249 942 l 249 31 l 861 31 l 861 0 l 218 0 m 236 488 l 236 518 l 789 518 l 789 488 l 236 488 m 554 1058 q 469 1078 507 1058 q 407 1132 432 1097 q 371 1211 382 1167 l 401 1214 q 457 1123 415 1158 q 554 1088 499 1088 q 651 1123 608 1088 q 707 1214 694 1158 l 738 1211 q 702 1132 728 1167 q 639 1078 676 1097 q 554 1058 601 1058 z "},"Ě":{"ha":1026,"x_min":218,"x_max":869,"o":"m 218 0 l 218 972 l 869 972 l 869 942 l 249 942 l 249 31 l 861 31 l 861 0 l 218 0 m 236 488 l 236 518 l 789 518 l 789 488 l 236 488 m 535 1069 l 386 1183 l 403 1201 l 565 1088 l 544 1088 l 706 1201 l 722 1183 l 574 1069 l 535 1069 z "},"Ḝ":{"ha":1026,"x_min":218,"x_max":869,"o":"m 218 0 l 218 972 l 869 972 l 869 942 l 249 942 l 249 31 l 861 31 l 861 0 l 218 0 m 236 488 l 236 518 l 789 518 l 789 488 l 236 488 m 406 -315 l 399 -289 q 486 -274 444 -282 q 553 -247 528 -265 q 579 -194 579 -228 q 562 -151 579 -167 q 513 -129 544 -136 q 440 -122 481 -122 l 425 -100 l 499 0 l 529 0 l 456 -96 q 568 -122 528 -97 q 608 -193 608 -147 q 589 -253 608 -232 q 539 -287 569 -275 q 473 -306 508 -300 q 406 -315 438 -311 m 554 1058 q 469 1078 507 1058 q 407 1132 432 1097 q 371 1211 382 1167 l 401 1214 q 457 1123 415 1158 q 554 1088 499 1088 q 651 1123 608 1088 q 707 1214 694 1158 l 738 1211 q 702 1132 728 1167 q 639 1078 676 1097 q 554 1058 601 1058 z "},"Ê":{"ha":1026,"x_min":218,"x_max":869,"o":"m 218 0 l 218 972 l 869 972 l 869 942 l 249 942 l 249 31 l 861 31 l 861 0 l 218 0 m 236 488 l 236 518 l 789 518 l 789 488 l 236 488 m 403 1069 l 386 1088 l 535 1201 l 574 1201 l 722 1088 l 706 1069 l 544 1183 l 565 1183 l 403 1069 z "},"Ế":{"ha":1026,"x_min":218,"x_max":869,"o":"m 218 0 l 218 972 l 869 972 l 869 942 l 249 942 l 249 31 l 861 31 l 861 0 l 218 0 m 236 488 l 236 518 l 789 518 l 789 488 l 236 488 m 403 1069 l 386 1088 l 535 1201 l 574 1201 l 722 1088 l 706 1069 l 544 1183 l 565 1183 l 403 1069 m 713 1196 l 693 1210 l 803 1364 l 835 1340 l 713 1196 z "},"Ệ":{"ha":1026,"x_min":218,"x_max":869,"o":"m 218 0 l 218 972 l 869 972 l 869 942 l 249 942 l 249 31 l 861 31 l 861 0 l 218 0 m 236 488 l 236 518 l 789 518 l 789 488 l 236 488 m 513 -193 q 483 -181 492 -193 q 474 -153 474 -169 q 482 -126 474 -139 q 513 -112 490 -112 q 542 -124 532 -112 q 551 -153 551 -136 q 543 -181 551 -168 q 513 -193 535 -193 m 403 1069 l 386 1088 l 535 1201 l 574 1201 l 722 1088 l 706 1069 l 544 1183 l 565 1183 l 403 1069 z "},"Ề":{"ha":1026,"x_min":218,"x_max":869,"o":"m 218 0 l 218 972 l 869 972 l 869 942 l 249 942 l 249 31 l 861 31 l 861 0 l 218 0 m 236 488 l 236 518 l 789 518 l 789 488 l 236 488 m 403 1069 l 386 1088 l 535 1201 l 574 1201 l 722 1088 l 706 1069 l 544 1183 l 565 1183 l 403 1069 m 740 1196 l 618 1340 l 650 1364 l 760 1210 l 740 1196 z "},"Ể":{"ha":1026,"x_min":218,"x_max":869,"o":"m 218 0 l 218 972 l 869 972 l 869 942 l 249 942 l 249 31 l 861 31 l 861 0 l 218 0 m 236 488 l 236 518 l 789 518 l 789 488 l 236 488 m 403 1069 l 386 1088 l 535 1201 l 574 1201 l 722 1088 l 706 1069 l 544 1183 l 565 1183 l 403 1069 m 717 1206 q 711 1218 714 1213 q 708 1232 708 1224 q 724 1258 708 1246 q 757 1281 739 1269 q 790 1302 776 1292 q 804 1322 804 1313 q 782 1347 804 1339 q 728 1354 760 1354 q 677 1350 701 1354 q 626 1338 653 1346 l 617 1365 q 667 1380 640 1375 q 728 1385 693 1385 q 808 1368 776 1385 q 839 1322 839 1351 q 819 1288 839 1301 q 781 1263 800 1274 q 753 1245 765 1253 q 742 1228 742 1238 q 744 1220 742 1224 q 747 1213 746 1217 l 717 1206 z "},"Ễ":{"ha":1026,"x_min":218,"x_max":869,"o":"m 218 0 l 218 972 l 869 972 l 869 942 l 249 942 l 249 31 l 861 31 l 861 0 l 218 0 m 236 488 l 236 518 l 789 518 l 789 488 l 236 488 m 403 1069 l 386 1088 l 535 1201 l 574 1201 l 722 1088 l 706 1069 l 544 1183 l 565 1183 l 403 1069 m 646 1286 q 599 1294 624 1286 q 550 1311 575 1301 q 506 1327 528 1319 q 464 1335 483 1335 q 433 1324 446 1335 q 413 1286 419 1313 l 381 1292 q 410 1345 388 1325 q 464 1365 433 1365 q 511 1357 488 1365 q 557 1340 535 1349 q 601 1324 579 1332 q 644 1317 622 1317 q 678 1327 664 1317 q 703 1368 693 1338 l 729 1363 q 713 1321 725 1338 q 683 1295 700 1304 q 646 1286 665 1286 z "},"Ȅ":{"ha":1026,"x_min":218,"x_max":869,"o":"m 218 0 l 218 972 l 869 972 l 869 942 l 249 942 l 249 31 l 861 31 l 861 0 l 218 0 m 236 488 l 236 518 l 789 518 l 789 488 l 236 488 m 650 1057 l 439 1183 l 456 1214 l 663 1079 l 650 1057 m 463 1057 l 251 1183 l 268 1214 l 475 1079 l 463 1057 z "},"Ë":{"ha":1026,"x_min":218,"x_max":869,"o":"m 218 0 l 218 972 l 869 972 l 869 942 l 249 942 l 249 31 l 861 31 l 861 0 l 218 0 m 236 488 l 236 518 l 789 518 l 789 488 l 236 488 m 658 1099 q 631 1109 642 1099 q 621 1136 621 1119 q 631 1163 621 1151 q 658 1174 640 1174 q 687 1163 678 1174 q 696 1136 696 1153 q 687 1109 696 1119 q 658 1099 678 1099 m 450 1099 q 423 1109 433 1099 q 413 1136 413 1119 q 422 1163 413 1151 q 450 1174 432 1174 q 478 1163 469 1174 q 488 1136 488 1153 q 478 1109 488 1119 q 450 1099 469 1099 z "},"Ė":{"ha":1026,"x_min":218,"x_max":869,"o":"m 218 0 l 218 972 l 869 972 l 869 942 l 249 942 l 249 31 l 861 31 l 861 0 l 218 0 m 236 488 l 236 518 l 789 518 l 789 488 l 236 488 m 554 1096 q 525 1107 535 1096 q 515 1136 515 1118 q 525 1165 515 1153 q 554 1176 535 1176 q 583 1165 572 1176 q 593 1136 593 1154 q 583 1107 593 1118 q 554 1096 574 1096 z "},"Ẹ":{"ha":1026,"x_min":218,"x_max":869,"o":"m 218 0 l 218 972 l 869 972 l 869 942 l 249 942 l 249 31 l 861 31 l 861 0 l 218 0 m 236 488 l 236 518 l 789 518 l 789 488 l 236 488 m 513 -193 q 483 -181 492 -193 q 474 -153 474 -169 q 482 -126 474 -139 q 513 -112 490 -112 q 542 -124 532 -112 q 551 -153 551 -136 q 543 -181 551 -168 q 513 -193 535 -193 z "},"È":{"ha":1026,"x_min":218,"x_max":869,"o":"m 218 0 l 218 972 l 869 972 l 869 942 l 249 942 l 249 31 l 861 31 l 861 0 l 218 0 m 236 488 l 236 518 l 789 518 l 789 488 l 236 488 m 643 1061 l 429 1181 l 447 1211 l 656 1083 l 643 1061 z "},"Ẻ":{"ha":1026,"x_min":218,"x_max":869,"o":"m 218 0 l 218 972 l 869 972 l 869 942 l 249 942 l 249 31 l 861 31 l 861 0 l 218 0 m 236 488 l 236 518 l 789 518 l 789 488 l 236 488 m 542 1063 q 536 1075 539 1069 q 533 1089 533 1081 q 549 1121 533 1108 q 582 1144 564 1133 q 617 1167 603 1157 q 632 1196 632 1178 q 608 1226 632 1217 q 547 1236 583 1236 q 501 1233 525 1236 q 451 1219 478 1229 l 442 1247 q 491 1262 465 1257 q 546 1267 517 1267 q 633 1247 600 1267 q 667 1196 667 1228 q 647 1154 667 1169 q 606 1126 626 1139 q 578 1108 590 1117 q 567 1088 567 1099 q 569 1078 567 1082 q 572 1069 571 1074 l 542 1063 z "},"Ȇ":{"ha":1026,"x_min":218,"x_max":869,"o":"m 218 0 l 218 972 l 869 972 l 869 942 l 249 942 l 249 31 l 861 31 l 861 0 l 218 0 m 236 488 l 236 518 l 789 518 l 789 488 l 236 488 m 401 1065 l 371 1068 q 407 1148 382 1114 q 470 1201 432 1182 q 554 1221 508 1221 q 639 1201 601 1221 q 701 1148 676 1182 q 738 1068 726 1114 l 707 1065 q 651 1157 693 1122 q 554 1192 610 1192 q 457 1157 500 1192 q 401 1065 414 1122 z "},"Ē":{"ha":1026,"x_min":218,"x_max":869,"o":"m 218 0 l 218 972 l 869 972 l 869 942 l 249 942 l 249 31 l 861 31 l 861 0 l 218 0 m 236 488 l 236 518 l 789 518 l 789 488 l 236 488 m 367 1121 l 367 1151 l 742 1151 l 742 1121 l 367 1121 z "},"Ḗ":{"ha":1026,"x_min":218,"x_max":869,"o":"m 218 0 l 218 972 l 869 972 l 869 942 l 249 942 l 249 31 l 861 31 l 861 0 l 218 0 m 236 488 l 236 518 l 789 518 l 789 488 l 236 488 m 367 1121 l 367 1151 l 742 1151 l 742 1121 l 367 1121 m 465 1228 l 453 1250 l 661 1378 l 679 1347 l 465 1228 z "},"Ḕ":{"ha":1026,"x_min":218,"x_max":869,"o":"m 218 0 l 218 972 l 869 972 l 869 942 l 249 942 l 249 31 l 861 31 l 861 0 l 218 0 m 236 488 l 236 518 l 789 518 l 789 488 l 236 488 m 367 1121 l 367 1151 l 742 1151 l 742 1121 l 367 1121 m 643 1228 l 429 1347 l 447 1378 l 656 1250 l 643 1228 z "},"Ę":{"ha":1026,"x_min":218,"x_max":876,"o":"m 218 0 l 218 972 l 869 972 l 869 942 l 249 942 l 249 31 l 861 31 l 861 0 l 218 0 m 236 488 l 236 518 l 789 518 l 789 488 l 236 488 m 751 -319 q 682 -301 714 -319 q 631 -251 650 -283 q 613 -181 613 -219 q 633 -97 613 -133 q 688 -35 654 -61 q 758 6 721 -10 q 828 25 794 21 l 835 0 q 740 -31 783 -7 q 669 -92 696 -56 q 643 -181 643 -129 q 674 -258 643 -226 q 751 -289 704 -289 q 815 -270 789 -289 q 856 -226 842 -251 l 876 -244 q 829 -297 861 -274 q 751 -319 797 -319 z "},"Ẽ":{"ha":1026,"x_min":218,"x_max":869,"o":"m 218 0 l 218 972 l 869 972 l 869 942 l 249 942 l 249 31 l 861 31 l 861 0 l 218 0 m 236 488 l 236 518 l 789 518 l 789 488 l 236 488 m 638 1089 q 599 1095 621 1089 q 524 1128 576 1101 q 494 1142 515 1132 q 451 1153 472 1153 q 416 1137 432 1153 q 400 1090 400 1121 l 369 1090 q 394 1158 369 1133 q 449 1183 418 1183 q 511 1169 482 1183 q 565 1143 540 1156 q 612 1124 599 1128 q 635 1119 625 1119 q 683 1134 661 1119 q 707 1182 706 1149 l 738 1182 q 724 1132 738 1153 q 687 1100 710 1111 q 638 1089 664 1089 z "},"F":{"ha":1028,"x_min":218,"x_max":854,"o":"m 218 0 l 218 972 l 249 972 l 249 0 l 218 0 m 233 465 l 233 496 l 775 496 l 775 465 l 233 465 m 238 942 l 238 972 l 854 972 l 854 942 l 238 942 z "},"G":{"ha":1311,"x_min":139,"x_max":1189,"o":"m 679 -14 q 461 23 561 -14 q 290 126 361 60 q 178 285 218 193 q 139 483 139 376 q 178 683 139 592 q 289 842 217 775 q 460 948 361 910 q 679 986 560 986 q 838 965 764 986 q 973 907 911 944 q 1082 818 1035 869 l 1065 792 q 962 878 1021 842 q 831 935 903 915 q 679 956 760 956 q 474 920 568 956 q 313 821 381 885 q 208 671 246 757 q 171 483 171 585 q 208 297 171 382 q 314 149 246 213 q 475 51 382 86 q 679 17 568 17 q 874 51 786 17 q 1026 145 963 85 q 1123 284 1089 206 q 1158 453 1157 363 l 1157 471 l 1171 460 l 685 460 l 685 489 l 1188 489 q 1188 479 1188 483 q 1188 473 1188 475 q 1189 469 1189 471 q 1153 274 1189 364 q 1049 121 1117 185 q 888 22 981 57 q 679 -14 794 -14 z "},"Ğ":{"ha":1310,"x_min":139,"x_max":1189,"o":"m 679 -14 q 461 23 561 -14 q 290 126 361 60 q 178 285 218 193 q 139 483 139 376 q 178 683 139 592 q 289 842 217 775 q 460 948 361 910 q 679 986 560 986 q 838 965 764 986 q 973 907 911 944 q 1082 818 1035 869 l 1065 792 q 962 878 1021 842 q 831 935 903 915 q 679 956 760 956 q 474 920 568 956 q 313 821 381 885 q 208 671 246 757 q 171 483 171 585 q 208 297 171 382 q 314 149 246 213 q 475 51 382 86 q 679 17 568 17 q 874 51 786 17 q 1026 145 963 85 q 1123 284 1089 206 q 1158 453 1157 363 l 1157 471 l 1171 460 l 685 460 l 685 489 l 1188 489 q 1188 479 1188 483 q 1188 473 1188 475 q 1189 469 1189 471 q 1153 274 1189 364 q 1049 121 1117 185 q 888 22 981 57 q 679 -14 794 -14 m 676 1058 q 592 1078 629 1058 q 529 1132 554 1097 q 493 1211 504 1167 l 524 1214 q 579 1123 538 1158 q 676 1088 621 1088 q 774 1123 731 1088 q 829 1214 817 1158 l 860 1211 q 824 1132 850 1167 q 761 1078 799 1097 q 676 1058 724 1058 z "},"Ǧ":{"ha":1310,"x_min":139,"x_max":1189,"o":"m 679 -14 q 461 23 561 -14 q 290 126 361 60 q 178 285 218 193 q 139 483 139 376 q 178 683 139 592 q 289 842 217 775 q 460 948 361 910 q 679 986 560 986 q 838 965 764 986 q 973 907 911 944 q 1082 818 1035 869 l 1065 792 q 962 878 1021 842 q 831 935 903 915 q 679 956 760 956 q 474 920 568 956 q 313 821 381 885 q 208 671 246 757 q 171 483 171 585 q 208 297 171 382 q 314 149 246 213 q 475 51 382 86 q 679 17 568 17 q 874 51 786 17 q 1026 145 963 85 q 1123 284 1089 206 q 1158 453 1157 363 l 1157 471 l 1171 460 l 685 460 l 685 489 l 1188 489 q 1188 479 1188 483 q 1188 473 1188 475 q 1189 469 1189 471 q 1153 274 1189 364 q 1049 121 1117 185 q 888 22 981 57 q 679 -14 794 -14 m 657 1069 l 508 1183 l 525 1201 l 688 1088 l 667 1088 l 828 1201 l 844 1183 l 696 1069 l 657 1069 z "},"Ĝ":{"ha":1310,"x_min":139,"x_max":1189,"o":"m 679 -14 q 461 23 561 -14 q 290 126 361 60 q 178 285 218 193 q 139 483 139 376 q 178 683 139 592 q 289 842 217 775 q 460 948 361 910 q 679 986 560 986 q 838 965 764 986 q 973 907 911 944 q 1082 818 1035 869 l 1065 792 q 962 878 1021 842 q 831 935 903 915 q 679 956 760 956 q 474 920 568 956 q 313 821 381 885 q 208 671 246 757 q 171 483 171 585 q 208 297 171 382 q 314 149 246 213 q 475 51 382 86 q 679 17 568 17 q 874 51 786 17 q 1026 145 963 85 q 1123 284 1089 206 q 1158 453 1157 363 l 1157 471 l 1171 460 l 685 460 l 685 489 l 1188 489 q 1188 479 1188 483 q 1188 473 1188 475 q 1189 469 1189 471 q 1153 274 1189 364 q 1049 121 1117 185 q 888 22 981 57 q 679 -14 794 -14 m 525 1069 l 508 1088 l 657 1201 l 696 1201 l 844 1088 l 828 1069 l 667 1183 l 688 1183 l 525 1069 z "},"Ģ":{"ha":1310,"x_min":139,"x_max":1189,"o":"m 679 -14 q 461 23 561 -14 q 290 126 361 60 q 178 285 218 193 q 139 483 139 376 q 178 683 139 592 q 289 842 217 775 q 460 948 361 910 q 679 986 560 986 q 838 965 764 986 q 973 907 911 944 q 1082 818 1035 869 l 1065 792 q 962 878 1021 842 q 831 935 903 915 q 679 956 760 956 q 474 920 568 956 q 313 821 381 885 q 208 671 246 757 q 171 483 171 585 q 208 297 171 382 q 314 149 246 213 q 475 51 382 86 q 679 17 568 17 q 874 51 786 17 q 1026 145 963 85 q 1123 284 1089 206 q 1158 453 1157 363 l 1157 471 l 1171 460 l 685 460 l 685 489 l 1188 489 q 1188 479 1188 483 q 1188 473 1188 475 q 1189 469 1189 471 q 1153 274 1189 364 q 1049 121 1117 185 q 888 22 981 57 q 679 -14 794 -14 m 636 -283 l 618 -265 q 639 -246 628 -256 q 658 -225 650 -236 q 665 -200 665 -214 q 661 -182 665 -189 q 642 -168 657 -175 q 621 -151 628 -161 q 614 -128 614 -142 q 624 -105 614 -115 q 651 -94 633 -94 q 688 -112 675 -94 q 701 -158 701 -129 q 699 -192 701 -176 q 689 -223 696 -208 q 669 -252 682 -237 q 636 -283 656 -267 z "},"Ġ":{"ha":1310,"x_min":139,"x_max":1189,"o":"m 679 -14 q 461 23 561 -14 q 290 126 361 60 q 178 285 218 193 q 139 483 139 376 q 178 683 139 592 q 289 842 217 775 q 460 948 361 910 q 679 986 560 986 q 838 965 764 986 q 973 907 911 944 q 1082 818 1035 869 l 1065 792 q 962 878 1021 842 q 831 935 903 915 q 679 956 760 956 q 474 920 568 956 q 313 821 381 885 q 208 671 246 757 q 171 483 171 585 q 208 297 171 382 q 314 149 246 213 q 475 51 382 86 q 679 17 568 17 q 874 51 786 17 q 1026 145 963 85 q 1123 284 1089 206 q 1158 453 1157 363 l 1157 471 l 1171 460 l 685 460 l 685 489 l 1188 489 q 1188 479 1188 483 q 1188 473 1188 475 q 1189 469 1189 471 q 1153 274 1189 364 q 1049 121 1117 185 q 888 22 981 57 q 679 -14 794 -14 m 676 1096 q 647 1107 657 1096 q 638 1136 638 1118 q 647 1165 638 1153 q 676 1176 657 1176 q 705 1165 694 1176 q 715 1136 715 1154 q 706 1107 715 1118 q 676 1096 696 1096 z "},"Ḡ":{"ha":1310,"x_min":139,"x_max":1189,"o":"m 679 -14 q 461 23 561 -14 q 290 126 361 60 q 178 285 218 193 q 139 483 139 376 q 178 683 139 592 q 289 842 217 775 q 460 948 361 910 q 679 986 560 986 q 838 965 764 986 q 973 907 911 944 q 1082 818 1035 869 l 1065 792 q 962 878 1021 842 q 831 935 903 915 q 679 956 760 956 q 474 920 568 956 q 313 821 381 885 q 208 671 246 757 q 171 483 171 585 q 208 297 171 382 q 314 149 246 213 q 475 51 382 86 q 679 17 568 17 q 874 51 786 17 q 1026 145 963 85 q 1123 284 1089 206 q 1158 453 1157 363 l 1157 471 l 1171 460 l 685 460 l 685 489 l 1188 489 q 1188 479 1188 483 q 1188 473 1188 475 q 1189 469 1189 471 q 1153 274 1189 364 q 1049 121 1117 185 q 888 22 981 57 q 679 -14 794 -14 m 489 1121 l 489 1151 l 864 1151 l 864 1121 l 489 1121 z "},"H":{"ha":1256,"x_min":218,"x_max":1036,"o":"m 1006 0 l 1006 972 l 1036 972 l 1036 0 l 1006 0 m 218 0 l 218 972 l 249 972 l 249 0 l 218 0 m 233 467 l 235 497 l 1021 497 l 1021 467 l 233 467 z "},"Ħ":{"ha":1232,"x_min":33,"x_max":1199,"o":"m 33 751 l 33 781 l 217 781 l 231 781 l 1006 781 l 1017 781 l 1199 781 l 1199 751 l 1015 751 l 1007 751 l 231 751 l 214 751 l 33 751 m 994 0 l 994 972 l 1025 972 l 1025 0 l 994 0 m 207 0 l 207 972 l 238 972 l 238 0 l 207 0 m 222 467 l 222 497 l 1010 497 l 1010 467 l 222 467 z "},"Ḫ":{"ha":1256,"x_min":218,"x_max":1036,"o":"m 1006 0 l 1006 972 l 1036 972 l 1036 0 l 1006 0 m 218 0 l 218 972 l 249 972 l 249 0 l 218 0 m 233 467 l 235 497 l 1021 497 l 1021 467 l 233 467 m 628 -251 q 508 -206 556 -251 q 444 -85 460 -161 l 475 -82 q 528 -183 488 -143 q 628 -222 569 -222 q 727 -183 685 -222 q 781 -82 769 -143 l 811 -85 q 748 -206 797 -161 q 628 -251 699 -251 z "},"Ĥ":{"ha":1256,"x_min":218,"x_max":1036,"o":"m 1006 0 l 1006 972 l 1036 972 l 1036 0 l 1006 0 m 218 0 l 218 972 l 249 972 l 249 0 l 218 0 m 233 467 l 235 497 l 1021 497 l 1021 467 l 233 467 m 476 1069 l 460 1088 l 608 1201 l 647 1201 l 796 1088 l 779 1069 l 618 1183 l 639 1183 l 476 1069 z "},"Ḥ":{"ha":1256,"x_min":218,"x_max":1036,"o":"m 1006 0 l 1006 972 l 1036 972 l 1036 0 l 1006 0 m 218 0 l 218 972 l 249 972 l 249 0 l 218 0 m 233 467 l 235 497 l 1021 497 l 1021 467 l 233 467 m 628 -193 q 598 -181 607 -193 q 589 -153 589 -169 q 597 -126 589 -139 q 628 -112 606 -112 q 657 -124 647 -112 q 667 -153 667 -136 q 658 -181 667 -168 q 628 -193 650 -193 z "},"I":{"ha":829,"x_min":161,"x_max":667,"o":"m 161 0 l 161 31 l 399 31 l 399 942 l 161 942 l 161 972 l 667 972 l 667 942 l 429 942 l 429 31 l 667 31 l 667 0 l 161 0 z "},"Ĳ":{"ha":1790,"x_min":161,"x_max":1722,"o":"m 161 0 l 161 31 l 399 31 l 399 942 l 161 942 l 161 972 l 667 972 l 667 942 l 429 942 l 429 31 l 667 31 l 667 0 l 161 0 m 1232 -14 q 1128 1 1176 -14 q 1040 44 1081 17 q 970 110 1000 72 q 924 190 940 149 l 947 213 q 997 131 968 167 q 1062 70 1025 96 q 1142 31 1099 44 q 1235 17 1186 17 q 1386 53 1321 17 q 1488 163 1451 90 q 1525 343 1525 235 l 1525 942 l 1311 942 l 1311 972 l 1722 972 l 1722 942 l 1556 942 l 1556 343 q 1533 188 1556 254 q 1469 76 1511 122 q 1367 8 1426 31 q 1232 -14 1307 -14 z "},"Í":{"ha":829,"x_min":161,"x_max":667,"o":"m 161 0 l 161 31 l 399 31 l 399 942 l 161 942 l 161 972 l 667 972 l 667 942 l 429 942 l 429 31 l 667 31 l 667 0 l 161 0 m 325 1061 l 313 1083 l 521 1211 l 539 1181 l 325 1061 z "},"Ĭ":{"ha":829,"x_min":161,"x_max":667,"o":"m 161 0 l 161 31 l 399 31 l 399 942 l 161 942 l 161 972 l 667 972 l 667 942 l 429 942 l 429 31 l 667 31 l 667 0 l 161 0 m 414 1058 q 329 1078 367 1058 q 267 1132 292 1097 q 231 1211 242 1167 l 261 1214 q 317 1123 275 1158 q 414 1088 358 1088 q 511 1123 468 1088 q 567 1214 554 1158 l 597 1211 q 562 1132 588 1167 q 499 1078 536 1097 q 414 1058 461 1058 z "},"Ǐ":{"ha":829,"x_min":161,"x_max":667,"o":"m 161 0 l 161 31 l 399 31 l 399 942 l 161 942 l 161 972 l 667 972 l 667 942 l 429 942 l 429 31 l 667 31 l 667 0 l 161 0 m 394 1069 l 246 1183 l 263 1201 l 425 1088 l 404 1088 l 565 1201 l 582 1183 l 433 1069 l 394 1069 z "},"Î":{"ha":829,"x_min":161,"x_max":667,"o":"m 161 0 l 161 31 l 399 31 l 399 942 l 161 942 l 161 972 l 667 972 l 667 942 l 429 942 l 429 31 l 667 31 l 667 0 l 161 0 m 263 1069 l 246 1088 l 394 1201 l 433 1201 l 582 1088 l 565 1069 l 404 1183 l 425 1183 l 263 1069 z "},"Ȉ":{"ha":829,"x_min":111,"x_max":667,"o":"m 161 0 l 161 31 l 399 31 l 399 942 l 161 942 l 161 972 l 667 972 l 667 942 l 429 942 l 429 31 l 667 31 l 667 0 l 161 0 m 510 1057 l 299 1183 l 315 1214 l 522 1079 l 510 1057 m 322 1057 l 111 1183 l 128 1214 l 335 1079 l 322 1057 z "},"Ï":{"ha":829,"x_min":161,"x_max":667,"o":"m 161 0 l 161 31 l 399 31 l 399 942 l 161 942 l 161 972 l 667 972 l 667 942 l 429 942 l 429 31 l 667 31 l 667 0 l 161 0 m 518 1099 q 491 1109 501 1099 q 481 1136 481 1119 q 490 1163 481 1151 q 518 1174 500 1174 q 547 1163 538 1174 q 556 1136 556 1153 q 547 1109 556 1119 q 518 1099 538 1099 m 310 1099 q 283 1109 293 1099 q 272 1136 272 1119 q 282 1163 272 1151 q 310 1174 292 1174 q 338 1163 329 1174 q 347 1136 347 1153 q 338 1109 347 1119 q 310 1099 329 1099 z "},"Ḯ":{"ha":829,"x_min":161,"x_max":667,"o":"m 161 0 l 161 31 l 399 31 l 399 942 l 161 942 l 161 972 l 667 972 l 667 942 l 429 942 l 429 31 l 667 31 l 667 0 l 161 0 m 340 1228 l 328 1250 l 536 1378 l 554 1347 l 340 1228 m 310 1099 q 283 1109 293 1099 q 272 1136 272 1119 q 282 1163 272 1151 q 310 1174 292 1174 q 338 1163 329 1174 q 347 1136 347 1153 q 338 1109 347 1119 q 310 1099 329 1099 m 518 1099 q 491 1109 501 1099 q 481 1136 481 1119 q 490 1163 481 1151 q 518 1174 500 1174 q 547 1163 538 1174 q 556 1136 556 1153 q 547 1109 556 1119 q 518 1099 538 1099 z "},"İ":{"ha":829,"x_min":161,"x_max":667,"o":"m 161 0 l 161 31 l 399 31 l 399 942 l 161 942 l 161 972 l 667 972 l 667 942 l 429 942 l 429 31 l 667 31 l 667 0 l 161 0 m 414 1096 q 385 1107 394 1096 q 375 1136 375 1118 q 385 1165 375 1153 q 414 1176 394 1176 q 442 1165 432 1176 q 453 1136 453 1154 q 443 1107 453 1118 q 414 1096 433 1096 z "},"Ị":{"ha":829,"x_min":161,"x_max":667,"o":"m 161 0 l 161 31 l 399 31 l 399 942 l 161 942 l 161 972 l 667 972 l 667 942 l 429 942 l 429 31 l 667 31 l 667 0 l 161 0 m 414 -193 q 384 -181 393 -193 q 375 -153 375 -169 q 383 -126 375 -139 q 414 -112 392 -112 q 443 -124 433 -112 q 453 -153 453 -136 q 444 -181 453 -168 q 414 -193 436 -193 z "},"Ì":{"ha":829,"x_min":161,"x_max":667,"o":"m 161 0 l 161 31 l 399 31 l 399 942 l 161 942 l 161 972 l 667 972 l 667 942 l 429 942 l 429 31 l 667 31 l 667 0 l 161 0 m 503 1061 l 289 1181 l 307 1211 l 515 1083 l 503 1061 z "},"Ỉ":{"ha":829,"x_min":161,"x_max":667,"o":"m 161 0 l 161 31 l 399 31 l 399 942 l 161 942 l 161 972 l 667 972 l 667 942 l 429 942 l 429 31 l 667 31 l 667 0 l 161 0 m 401 1063 q 396 1075 399 1069 q 393 1089 393 1081 q 408 1121 393 1108 q 442 1144 424 1133 q 477 1167 463 1157 q 492 1196 492 1178 q 467 1226 492 1217 q 407 1236 443 1236 q 361 1233 385 1236 q 311 1219 338 1229 l 301 1247 q 351 1262 325 1257 q 406 1267 376 1267 q 493 1247 460 1267 q 526 1196 526 1228 q 506 1154 526 1169 q 465 1126 486 1139 q 438 1108 450 1117 q 426 1088 426 1099 q 428 1078 426 1082 q 432 1069 431 1074 l 401 1063 z "},"Ȋ":{"ha":829,"x_min":161,"x_max":667,"o":"m 161 0 l 161 31 l 399 31 l 399 942 l 161 942 l 161 972 l 667 972 l 667 942 l 429 942 l 429 31 l 667 31 l 667 0 l 161 0 m 261 1065 l 231 1068 q 267 1148 242 1114 q 330 1201 292 1182 q 414 1221 368 1221 q 499 1201 461 1221 q 561 1148 536 1182 q 597 1068 586 1114 l 567 1065 q 511 1157 553 1122 q 414 1192 469 1192 q 317 1157 360 1192 q 261 1065 274 1122 z "},"Ī":{"ha":829,"x_min":161,"x_max":667,"o":"m 161 0 l 161 31 l 399 31 l 399 942 l 161 942 l 161 972 l 667 972 l 667 942 l 429 942 l 429 31 l 667 31 l 667 0 l 161 0 m 226 1121 l 226 1151 l 601 1151 l 601 1121 l 226 1121 z "},"Į":{"ha":829,"x_min":161,"x_max":667,"o":"m 161 0 l 161 31 l 399 31 l 399 942 l 161 942 l 161 972 l 667 972 l 667 942 l 429 942 l 429 31 l 667 31 l 667 0 l 161 0 m 428 -319 q 358 -301 390 -319 q 308 -251 326 -283 q 289 -181 289 -219 q 310 -97 289 -133 q 364 -35 331 -61 q 434 6 397 -10 q 504 25 471 21 l 511 0 q 416 -31 460 -7 q 346 -92 372 -56 q 319 -181 319 -129 q 350 -258 319 -226 q 428 -289 381 -289 q 492 -270 465 -289 q 532 -226 518 -251 l 553 -244 q 506 -297 538 -274 q 428 -319 474 -319 z "},"Ĩ":{"ha":829,"x_min":161,"x_max":667,"o":"m 161 0 l 161 31 l 399 31 l 399 942 l 161 942 l 161 972 l 667 972 l 667 942 l 429 942 l 429 31 l 667 31 l 667 0 l 161 0 m 497 1089 q 458 1095 481 1089 q 383 1128 436 1101 q 353 1142 375 1132 q 311 1153 332 1153 q 276 1137 292 1153 q 260 1090 260 1121 l 229 1090 q 253 1158 229 1133 q 308 1183 278 1183 q 371 1169 342 1183 q 425 1143 400 1156 q 472 1124 458 1128 q 494 1119 485 1119 q 543 1134 521 1119 q 567 1182 565 1149 l 597 1182 q 583 1132 597 1153 q 547 1100 569 1111 q 497 1089 524 1089 z "},"J":{"ha":963,"x_min":94,"x_max":893,"o":"m 403 -14 q 299 1 347 -14 q 211 44 251 17 q 141 110 171 72 q 94 190 111 149 l 118 213 q 167 131 139 167 q 233 70 196 96 q 313 31 269 44 q 406 17 357 17 q 557 53 492 17 q 659 163 622 90 q 696 343 696 235 l 696 942 l 482 942 l 482 972 l 893 972 l 893 942 l 726 942 l 726 343 q 704 188 726 254 q 640 76 682 122 q 538 8 597 31 q 403 -14 478 -14 z "},"Ĵ":{"ha":963,"x_min":94,"x_max":893,"o":"m 403 -14 q 299 1 347 -14 q 211 44 251 17 q 141 110 171 72 q 94 190 111 149 l 118 213 q 167 131 139 167 q 233 70 196 96 q 313 31 269 44 q 406 17 357 17 q 557 53 492 17 q 659 163 622 90 q 696 343 696 235 l 696 942 l 482 942 l 482 972 l 893 972 l 893 942 l 726 942 l 726 343 q 704 188 726 254 q 640 76 682 122 q 538 8 597 31 q 403 -14 478 -14 m 546 1069 l 529 1088 l 678 1201 l 717 1201 l 865 1088 l 849 1069 l 688 1183 l 708 1183 l 546 1069 z "},"K":{"ha":1147,"x_min":218,"x_max":1029,"o":"m 233 306 l 233 346 l 963 972 l 1010 972 l 233 306 m 218 0 l 218 972 l 249 972 l 249 0 l 218 0 m 988 0 l 532 575 l 556 594 l 1029 0 l 988 0 z "},"Ķ":{"ha":1147,"x_min":218,"x_max":1029,"o":"m 233 306 l 233 346 l 963 972 l 1010 972 l 233 306 m 218 0 l 218 972 l 249 972 l 249 0 l 218 0 m 988 0 l 532 575 l 556 594 l 1029 0 l 988 0 m 540 -283 l 522 -265 q 543 -246 532 -256 q 562 -225 554 -236 q 569 -200 569 -214 q 565 -182 569 -189 q 546 -168 561 -175 q 525 -151 532 -161 q 518 -128 518 -142 q 528 -105 518 -115 q 556 -94 538 -94 q 592 -112 579 -94 q 606 -158 606 -129 q 603 -192 606 -176 q 593 -223 600 -208 q 573 -252 586 -237 q 540 -283 560 -267 z "},"L":{"ha":942,"x_min":218,"x_max":844,"o":"m 218 0 l 218 972 l 249 972 l 249 31 l 844 31 l 844 0 l 218 0 z "},"Ǉ":{"ha":1904,"x_min":218,"x_max":1835,"o":"m 218 0 l 218 972 l 249 972 l 249 31 l 844 31 l 844 0 l 218 0 m 1344 -14 q 1241 1 1289 -14 q 1153 44 1193 17 q 1083 110 1113 72 q 1036 190 1053 149 l 1060 213 q 1109 131 1081 167 q 1174 70 1138 96 q 1255 31 1211 44 q 1347 17 1299 17 q 1499 53 1433 17 q 1601 163 1564 90 q 1638 343 1638 235 l 1638 942 l 1424 942 l 1424 972 l 1835 972 l 1835 942 l 1668 942 l 1668 343 q 1646 188 1668 254 q 1581 76 1624 122 q 1479 8 1539 31 q 1344 -14 1419 -14 z "},"Ĺ":{"ha":942,"x_min":131,"x_max":844,"o":"m 218 0 l 218 972 l 249 972 l 249 31 l 844 31 l 844 0 l 218 0 m 143 1061 l 131 1083 l 339 1211 l 357 1181 l 143 1061 z "},"Ľ":{"ha":942,"x_min":218,"x_max":844,"o":"m 218 0 l 218 972 l 249 972 l 249 31 l 844 31 l 844 0 l 218 0 m 583 785 l 567 801 q 585 821 575 810 q 605 844 596 832 q 614 867 614 857 q 608 888 614 881 q 589 900 603 894 q 569 915 576 906 q 563 938 563 924 q 573 963 563 953 q 600 972 583 972 q 637 956 624 972 q 650 908 650 939 q 647 876 650 893 q 636 844 643 860 q 616 815 629 829 q 583 785 603 800 z "},"Ļ":{"ha":942,"x_min":218,"x_max":844,"o":"m 218 0 l 218 972 l 249 972 l 249 31 l 844 31 l 844 0 l 218 0 m 453 -283 l 435 -265 q 456 -246 444 -256 q 474 -225 467 -236 q 482 -200 482 -214 q 478 -182 482 -189 q 458 -168 474 -175 q 438 -151 444 -161 q 431 -128 431 -142 q 440 -105 431 -115 q 468 -94 450 -94 q 505 -112 492 -94 q 518 -158 518 -129 q 515 -192 518 -176 q 506 -223 513 -208 q 485 -252 499 -237 q 453 -283 472 -267 z "},"Ŀ":{"ha":942,"x_min":218,"x_max":844,"o":"m 218 0 l 218 972 l 249 972 l 249 31 l 844 31 l 844 0 l 218 0 m 715 465 q 684 476 694 465 q 674 508 674 488 q 684 540 674 528 q 715 551 694 551 q 745 540 735 551 q 756 508 756 529 q 745 478 756 490 q 715 465 735 465 z "},"Ḷ":{"ha":942,"x_min":218,"x_max":844,"o":"m 218 0 l 218 972 l 249 972 l 249 31 l 844 31 l 844 0 l 218 0 m 475 -193 q 445 -181 454 -193 q 436 -153 436 -169 q 444 -126 436 -139 q 475 -112 453 -112 q 504 -124 494 -112 q 514 -153 514 -136 q 506 -181 514 -168 q 475 -193 497 -193 z "},"ǈ":{"ha":1468,"x_min":218,"x_max":1292,"o":"m 218 0 l 218 972 l 249 972 l 249 31 l 844 31 l 844 0 l 218 0 m 1032 -269 l 1025 -240 q 1147 -200 1099 -233 q 1217 -110 1194 -167 q 1239 24 1239 -53 l 1239 729 l 1269 729 l 1269 18 q 1240 -138 1269 -75 q 1156 -234 1210 -201 q 1032 -269 1103 -267 m 1253 921 q 1224 932 1233 921 q 1214 961 1214 943 q 1224 990 1214 978 q 1253 1001 1233 1001 q 1281 990 1271 1001 q 1292 961 1292 979 q 1282 932 1292 943 q 1253 921 1272 921 z "},"Ḻ":{"ha":942,"x_min":218,"x_max":844,"o":"m 218 0 l 218 972 l 249 972 l 249 31 l 844 31 l 844 0 l 218 0 m 288 -168 l 288 -137 l 664 -137 l 664 -168 l 288 -168 z "},"Ł":{"ha":932,"x_min":-4,"x_max":835,"o":"m 4 399 l -4 426 l 574 663 l 582 635 l 4 399 m 208 0 l 208 972 l 239 972 l 239 31 l 835 31 l 835 0 l 208 0 z "},"M":{"ha":1408,"x_min":218,"x_max":1189,"o":"m 218 0 l 218 972 l 244 972 l 710 324 l 697 325 l 1163 972 l 1189 972 l 1189 0 l 1158 0 l 1158 754 q 1158 851 1157 803 q 1163 950 1160 900 l 1182 946 l 713 293 l 692 293 l 226 944 l 244 949 q 249 856 247 904 q 250 757 250 808 l 249 0 l 218 0 z "},"Ṃ":{"ha":1408,"x_min":218,"x_max":1189,"o":"m 218 0 l 218 972 l 244 972 l 710 324 l 697 325 l 1163 972 l 1189 972 l 1189 0 l 1158 0 l 1158 754 q 1158 851 1157 803 q 1163 950 1160 900 l 1182 946 l 713 293 l 692 293 l 226 944 l 244 949 q 249 856 247 904 q 250 757 250 808 l 249 0 l 218 0 m 704 -193 q 674 -181 683 -193 q 665 -153 665 -169 q 674 -126 665 -139 q 704 -112 682 -112 q 733 -124 724 -112 q 743 -153 743 -136 q 735 -181 743 -168 q 704 -193 726 -193 z "},"N":{"ha":1271,"x_min":218,"x_max":1051,"o":"m 218 0 l 218 972 l 256 972 l 1031 33 l 1024 32 q 1022 75 1022 51 q 1022 127 1022 99 q 1022 188 1022 156 q 1022 256 1021 219 q 1021 335 1022 293 l 1021 972 l 1051 972 l 1051 0 l 1015 0 l 233 951 l 246 951 q 247 913 246 936 q 248 860 247 890 q 249 797 249 831 q 249 728 249 764 q 249 653 249 692 l 249 0 l 218 0 z "},"Ǌ":{"ha":2233,"x_min":218,"x_max":2164,"o":"m 218 0 l 218 972 l 256 972 l 1031 33 l 1024 32 q 1022 75 1022 51 q 1022 127 1022 99 q 1022 188 1022 156 q 1022 256 1021 219 q 1021 335 1022 293 l 1021 972 l 1051 972 l 1051 0 l 1015 0 l 233 951 l 246 951 q 247 913 246 936 q 248 860 247 890 q 249 797 249 831 q 249 728 249 764 q 249 653 249 692 l 249 0 l 218 0 m 1674 -14 q 1570 1 1618 -14 q 1482 44 1522 17 q 1412 110 1442 72 q 1365 190 1382 149 l 1389 213 q 1438 131 1410 167 q 1503 70 1467 96 q 1584 31 1540 44 q 1676 17 1628 17 q 1828 53 1763 17 q 1930 163 1893 90 q 1967 343 1967 235 l 1967 942 l 1753 942 l 1753 972 l 2164 972 l 2164 942 l 1997 942 l 1997 343 q 1975 188 1997 254 q 1910 76 1953 122 q 1808 8 1868 31 q 1674 -14 1749 -14 z "},"Ń":{"ha":1271,"x_min":218,"x_max":1051,"o":"m 218 0 l 218 972 l 256 972 l 1031 33 l 1024 32 q 1022 75 1022 51 q 1022 127 1022 99 q 1022 188 1022 156 q 1022 256 1021 219 q 1021 335 1022 293 l 1021 972 l 1051 972 l 1051 0 l 1015 0 l 233 951 l 246 951 q 247 913 246 936 q 248 860 247 890 q 249 797 249 831 q 249 728 249 764 q 249 653 249 692 l 249 0 l 218 0 m 546 1061 l 533 1083 l 742 1211 l 760 1181 l 546 1061 z "},"Ň":{"ha":1271,"x_min":218,"x_max":1051,"o":"m 218 0 l 218 972 l 256 972 l 1031 33 l 1024 32 q 1022 75 1022 51 q 1022 127 1022 99 q 1022 188 1022 156 q 1022 256 1021 219 q 1021 335 1022 293 l 1021 972 l 1051 972 l 1051 0 l 1015 0 l 233 951 l 246 951 q 247 913 246 936 q 248 860 247 890 q 249 797 249 831 q 249 728 249 764 q 249 653 249 692 l 249 0 l 218 0 m 617 1069 l 468 1183 l 485 1201 l 647 1088 l 626 1088 l 788 1201 l 804 1183 l 656 1069 l 617 1069 z "},"Ņ":{"ha":1271,"x_min":218,"x_max":1051,"o":"m 218 0 l 218 972 l 256 972 l 1031 33 l 1024 32 q 1022 75 1022 51 q 1022 127 1022 99 q 1022 188 1022 156 q 1022 256 1021 219 q 1021 335 1022 293 l 1021 972 l 1051 972 l 1051 0 l 1015 0 l 233 951 l 246 951 q 247 913 246 936 q 248 860 247 890 q 249 797 249 831 q 249 728 249 764 q 249 653 249 692 l 249 0 l 218 0 m 615 -283 l 597 -265 q 618 -246 607 -256 q 637 -225 629 -236 q 644 -200 644 -214 q 640 -182 644 -189 q 621 -168 636 -175 q 600 -151 607 -161 q 593 -128 593 -142 q 603 -105 593 -115 q 631 -94 613 -94 q 667 -112 654 -94 q 681 -158 681 -129 q 678 -192 681 -176 q 668 -223 675 -208 q 648 -252 661 -237 q 615 -283 635 -267 z "},"Ṅ":{"ha":1271,"x_min":218,"x_max":1051,"o":"m 218 0 l 218 972 l 256 972 l 1031 33 l 1024 32 q 1022 75 1022 51 q 1022 127 1022 99 q 1022 188 1022 156 q 1022 256 1021 219 q 1021 335 1022 293 l 1021 972 l 1051 972 l 1051 0 l 1015 0 l 233 951 l 246 951 q 247 913 246 936 q 248 860 247 890 q 249 797 249 831 q 249 728 249 764 q 249 653 249 692 l 249 0 l 218 0 m 636 1096 q 607 1107 617 1096 q 597 1136 597 1118 q 607 1165 597 1153 q 636 1176 617 1176 q 665 1165 654 1176 q 675 1136 675 1154 q 665 1107 675 1118 q 636 1096 656 1096 z "},"Ṇ":{"ha":1271,"x_min":218,"x_max":1051,"o":"m 218 0 l 218 972 l 256 972 l 1031 33 l 1024 32 q 1022 75 1022 51 q 1022 127 1022 99 q 1022 188 1022 156 q 1022 256 1021 219 q 1021 335 1022 293 l 1021 972 l 1051 972 l 1051 0 l 1015 0 l 233 951 l 246 951 q 247 913 246 936 q 248 860 247 890 q 249 797 249 831 q 249 728 249 764 q 249 653 249 692 l 249 0 l 218 0 m 636 -193 q 606 -181 615 -193 q 597 -153 597 -169 q 606 -126 597 -139 q 636 -112 614 -112 q 665 -124 656 -112 q 675 -153 675 -136 q 667 -181 675 -168 q 636 -193 658 -193 z "},"Ɲ":{"ha":1285,"x_min":17,"x_max":1065,"o":"m 25 -269 l 17 -239 q 179 -161 126 -231 q 232 24 232 -92 l 232 972 l 268 972 l 1043 33 l 1036 32 q 1035 88 1036 57 q 1035 156 1035 119 q 1034 238 1035 193 q 1033 335 1033 283 l 1033 972 l 1065 972 l 1065 0 l 1029 0 l 247 953 l 258 951 q 260 910 260 940 q 260 842 260 881 q 261 763 261 803 q 261 694 261 724 q 261 653 261 664 l 261 18 q 231 -138 261 -75 q 148 -234 201 -201 q 25 -269 94 -267 z "},"ǋ":{"ha":1799,"x_min":218,"x_max":1621,"o":"m 218 0 l 218 972 l 256 972 l 1031 33 l 1024 32 q 1022 75 1022 51 q 1022 127 1022 99 q 1022 188 1022 156 q 1022 256 1021 219 q 1021 335 1022 293 l 1021 972 l 1051 972 l 1051 0 l 1015 0 l 233 951 l 246 951 q 247 913 246 936 q 248 860 247 890 q 249 797 249 831 q 249 728 249 764 q 249 653 249 692 l 249 0 l 218 0 m 1361 -269 l 1354 -240 q 1476 -200 1428 -233 q 1546 -110 1524 -167 q 1568 24 1568 -53 l 1568 729 l 1599 729 l 1599 18 q 1569 -138 1599 -75 q 1485 -234 1539 -201 q 1361 -269 1432 -267 m 1582 921 q 1553 932 1563 921 q 1543 961 1543 943 q 1553 990 1543 978 q 1582 1001 1563 1001 q 1610 990 1600 1001 q 1621 961 1621 979 q 1611 932 1621 943 q 1582 921 1601 921 z "},"Ṉ":{"ha":1271,"x_min":218,"x_max":1051,"o":"m 218 0 l 218 972 l 256 972 l 1031 33 l 1024 32 q 1022 75 1022 51 q 1022 127 1022 99 q 1022 188 1022 156 q 1022 256 1021 219 q 1021 335 1022 293 l 1021 972 l 1051 972 l 1051 0 l 1015 0 l 233 951 l 246 951 q 247 913 246 936 q 248 860 247 890 q 249 797 249 831 q 249 728 249 764 q 249 653 249 692 l 249 0 l 218 0 m 449 -168 l 449 -137 l 825 -137 l 825 -168 l 449 -168 z "},"Ñ":{"ha":1271,"x_min":218,"x_max":1051,"o":"m 218 0 l 218 972 l 256 972 l 1031 33 l 1024 32 q 1022 75 1022 51 q 1022 127 1022 99 q 1022 188 1022 156 q 1022 256 1021 219 q 1021 335 1022 293 l 1021 972 l 1051 972 l 1051 0 l 1015 0 l 233 951 l 246 951 q 247 913 246 936 q 248 860 247 890 q 249 797 249 831 q 249 728 249 764 q 249 653 249 692 l 249 0 l 218 0 m 719 1089 q 681 1095 703 1089 q 606 1128 658 1101 q 576 1142 597 1132 q 533 1153 554 1153 q 498 1137 514 1153 q 482 1090 482 1121 l 451 1090 q 476 1158 451 1133 q 531 1183 500 1183 q 593 1169 564 1183 q 647 1143 622 1156 q 694 1124 681 1128 q 717 1119 707 1119 q 765 1134 743 1119 q 789 1182 788 1149 l 819 1182 q 806 1132 819 1153 q 769 1100 792 1111 q 719 1089 746 1089 z "},"Ŋ":{"ha":1271,"x_min":218,"x_max":1051,"o":"m 810 -269 l 801 -243 q 898 -227 856 -243 q 968 -184 940 -211 q 1009 -119 996 -157 q 1022 -37 1022 -81 l 1022 24 l 1031 -10 l 233 953 l 246 953 q 248 915 247 940 q 249 858 249 890 q 249 795 249 826 q 249 739 249 764 q 249 701 249 714 l 249 0 l 218 0 l 218 972 l 257 972 l 1031 39 l 1025 36 q 1024 90 1024 60 q 1022 158 1024 121 q 1021 240 1021 194 q 1021 335 1021 285 l 1021 972 l 1051 972 l 1051 -36 q 1023 -157 1051 -104 q 941 -240 994 -210 q 810 -269 888 -269 z "},"O":{"ha":1357,"x_min":139,"x_max":1218,"o":"m 678 -14 q 460 24 560 -14 q 289 128 361 61 q 178 285 217 194 q 139 485 139 376 q 178 684 139 593 q 289 842 217 775 q 460 948 361 910 q 678 986 560 986 q 897 949 797 986 q 1068 845 996 913 q 1179 686 1140 778 q 1218 485 1218 594 q 1179 284 1218 375 q 1068 126 1140 193 q 897 22 996 58 q 678 -14 797 -14 m 679 17 q 883 52 790 17 q 1044 151 976 88 q 1149 299 1111 214 q 1186 485 1186 385 q 1149 671 1186 585 q 1044 821 1111 757 q 883 920 976 885 q 679 956 789 956 q 475 920 568 956 q 314 822 382 885 q 208 672 246 758 q 171 485 171 586 q 208 299 171 385 q 314 150 246 213 q 475 52 382 88 q 679 17 568 17 z "},"Ó":{"ha":1357,"x_min":139,"x_max":1218,"o":"m 678 -14 q 460 24 560 -14 q 289 128 361 61 q 178 285 217 194 q 139 485 139 376 q 178 684 139 593 q 289 842 217 775 q 460 948 361 910 q 678 986 560 986 q 897 949 797 986 q 1068 845 996 913 q 1179 686 1140 778 q 1218 485 1218 594 q 1179 284 1218 375 q 1068 126 1140 193 q 897 22 996 58 q 678 -14 797 -14 m 679 17 q 883 52 790 17 q 1044 151 976 88 q 1149 299 1111 214 q 1186 485 1186 385 q 1149 671 1186 585 q 1044 821 1111 757 q 883 920 976 885 q 679 956 789 956 q 475 920 568 956 q 314 822 382 885 q 208 672 246 758 q 171 485 171 586 q 208 299 171 385 q 314 150 246 213 q 475 52 382 88 q 679 17 568 17 m 589 1061 l 576 1083 l 785 1211 l 803 1181 l 589 1061 z "},"Ŏ":{"ha":1357,"x_min":139,"x_max":1218,"o":"m 678 -14 q 460 24 560 -14 q 289 128 361 61 q 178 285 217 194 q 139 485 139 376 q 178 684 139 593 q 289 842 217 775 q 460 948 361 910 q 678 986 560 986 q 897 949 797 986 q 1068 845 996 913 q 1179 686 1140 778 q 1218 485 1218 594 q 1179 284 1218 375 q 1068 126 1140 193 q 897 22 996 58 q 678 -14 797 -14 m 679 17 q 883 52 790 17 q 1044 151 976 88 q 1149 299 1111 214 q 1186 485 1186 385 q 1149 671 1186 585 q 1044 821 1111 757 q 883 920 976 885 q 679 956 789 956 q 475 920 568 956 q 314 822 382 885 q 208 672 246 758 q 171 485 171 586 q 208 299 171 385 q 314 150 246 213 q 475 52 382 88 q 679 17 568 17 m 679 1058 q 594 1078 632 1058 q 532 1132 557 1097 q 496 1211 507 1167 l 526 1214 q 582 1123 540 1158 q 679 1088 624 1088 q 776 1123 733 1088 q 832 1214 819 1158 l 863 1211 q 827 1132 853 1167 q 764 1078 801 1097 q 679 1058 726 1058 z "},"Ǒ":{"ha":1357,"x_min":139,"x_max":1218,"o":"m 678 -14 q 460 24 560 -14 q 289 128 361 61 q 178 285 217 194 q 139 485 139 376 q 178 684 139 593 q 289 842 217 775 q 460 948 361 910 q 678 986 560 986 q 897 949 797 986 q 1068 845 996 913 q 1179 686 1140 778 q 1218 485 1218 594 q 1179 284 1218 375 q 1068 126 1140 193 q 897 22 996 58 q 678 -14 797 -14 m 679 17 q 883 52 790 17 q 1044 151 976 88 q 1149 299 1111 214 q 1186 485 1186 385 q 1149 671 1186 585 q 1044 821 1111 757 q 883 920 976 885 q 679 956 789 956 q 475 920 568 956 q 314 822 382 885 q 208 672 246 758 q 171 485 171 586 q 208 299 171 385 q 314 150 246 213 q 475 52 382 88 q 679 17 568 17 m 660 1069 l 511 1183 l 528 1201 l 690 1088 l 669 1088 l 831 1201 l 847 1183 l 699 1069 l 660 1069 z "},"Ô":{"ha":1357,"x_min":139,"x_max":1218,"o":"m 678 -14 q 460 24 560 -14 q 289 128 361 61 q 178 285 217 194 q 139 485 139 376 q 178 684 139 593 q 289 842 217 775 q 460 948 361 910 q 678 986 560 986 q 897 949 797 986 q 1068 845 996 913 q 1179 686 1140 778 q 1218 485 1218 594 q 1179 284 1218 375 q 1068 126 1140 193 q 897 22 996 58 q 678 -14 797 -14 m 679 17 q 883 52 790 17 q 1044 151 976 88 q 1149 299 1111 214 q 1186 485 1186 385 q 1149 671 1186 585 q 1044 821 1111 757 q 883 920 976 885 q 679 956 789 956 q 475 920 568 956 q 314 822 382 885 q 208 672 246 758 q 171 485 171 586 q 208 299 171 385 q 314 150 246 213 q 475 52 382 88 q 679 17 568 17 m 528 1069 l 511 1088 l 660 1201 l 699 1201 l 847 1088 l 831 1069 l 669 1183 l 690 1183 l 528 1069 z "},"Ố":{"ha":1357,"x_min":139,"x_max":1218,"o":"m 678 -14 q 460 24 560 -14 q 289 128 361 61 q 178 285 217 194 q 139 485 139 376 q 178 684 139 593 q 289 842 217 775 q 460 948 361 910 q 678 986 560 986 q 897 949 797 986 q 1068 845 996 913 q 1179 686 1140 778 q 1218 485 1218 594 q 1179 284 1218 375 q 1068 126 1140 193 q 897 22 996 58 q 678 -14 797 -14 m 679 17 q 883 52 790 17 q 1044 151 976 88 q 1149 299 1111 214 q 1186 485 1186 385 q 1149 671 1186 585 q 1044 821 1111 757 q 883 920 976 885 q 679 956 789 956 q 475 920 568 956 q 314 822 382 885 q 208 672 246 758 q 171 485 171 586 q 208 299 171 385 q 314 150 246 213 q 475 52 382 88 q 679 17 568 17 m 528 1069 l 511 1088 l 660 1201 l 699 1201 l 847 1088 l 831 1069 l 669 1183 l 690 1183 l 528 1069 m 838 1196 l 818 1210 l 928 1364 l 960 1340 l 838 1196 z "},"Ộ":{"ha":1357,"x_min":139,"x_max":1218,"o":"m 678 -14 q 460 24 560 -14 q 289 128 361 61 q 178 285 217 194 q 139 485 139 376 q 178 684 139 593 q 289 842 217 775 q 460 948 361 910 q 678 986 560 986 q 897 949 797 986 q 1068 845 996 913 q 1179 686 1140 778 q 1218 485 1218 594 q 1179 284 1218 375 q 1068 126 1140 193 q 897 22 996 58 q 678 -14 797 -14 m 679 17 q 883 52 790 17 q 1044 151 976 88 q 1149 299 1111 214 q 1186 485 1186 385 q 1149 671 1186 585 q 1044 821 1111 757 q 883 920 976 885 q 679 956 789 956 q 475 920 568 956 q 314 822 382 885 q 208 672 246 758 q 171 485 171 586 q 208 299 171 385 q 314 150 246 213 q 475 52 382 88 q 679 17 568 17 m 679 -193 q 649 -181 658 -193 q 640 -153 640 -169 q 649 -126 640 -139 q 679 -112 657 -112 q 708 -124 699 -112 q 718 -153 718 -136 q 710 -181 718 -168 q 679 -193 701 -193 m 528 1069 l 511 1088 l 660 1201 l 699 1201 l 847 1088 l 831 1069 l 669 1183 l 690 1183 l 528 1069 z "},"Ồ":{"ha":1357,"x_min":139,"x_max":1218,"o":"m 678 -14 q 460 24 560 -14 q 289 128 361 61 q 178 285 217 194 q 139 485 139 376 q 178 684 139 593 q 289 842 217 775 q 460 948 361 910 q 678 986 560 986 q 897 949 797 986 q 1068 845 996 913 q 1179 686 1140 778 q 1218 485 1218 594 q 1179 284 1218 375 q 1068 126 1140 193 q 897 22 996 58 q 678 -14 797 -14 m 679 17 q 883 52 790 17 q 1044 151 976 88 q 1149 299 1111 214 q 1186 485 1186 385 q 1149 671 1186 585 q 1044 821 1111 757 q 883 920 976 885 q 679 956 789 956 q 475 920 568 956 q 314 822 382 885 q 208 672 246 758 q 171 485 171 586 q 208 299 171 385 q 314 150 246 213 q 475 52 382 88 q 679 17 568 17 m 528 1069 l 511 1088 l 660 1201 l 699 1201 l 847 1088 l 831 1069 l 669 1183 l 690 1183 l 528 1069 m 865 1196 l 743 1340 l 775 1364 l 885 1210 l 865 1196 z "},"Ổ":{"ha":1357,"x_min":139,"x_max":1218,"o":"m 678 -14 q 460 24 560 -14 q 289 128 361 61 q 178 285 217 194 q 139 485 139 376 q 178 684 139 593 q 289 842 217 775 q 460 948 361 910 q 678 986 560 986 q 897 949 797 986 q 1068 845 996 913 q 1179 686 1140 778 q 1218 485 1218 594 q 1179 284 1218 375 q 1068 126 1140 193 q 897 22 996 58 q 678 -14 797 -14 m 679 17 q 883 52 790 17 q 1044 151 976 88 q 1149 299 1111 214 q 1186 485 1186 385 q 1149 671 1186 585 q 1044 821 1111 757 q 883 920 976 885 q 679 956 789 956 q 475 920 568 956 q 314 822 382 885 q 208 672 246 758 q 171 485 171 586 q 208 299 171 385 q 314 150 246 213 q 475 52 382 88 q 679 17 568 17 m 528 1069 l 511 1088 l 660 1201 l 699 1201 l 847 1088 l 831 1069 l 669 1183 l 690 1183 l 528 1069 m 842 1206 q 836 1218 839 1213 q 833 1232 833 1224 q 849 1258 833 1246 q 882 1281 864 1269 q 915 1302 901 1292 q 929 1322 929 1313 q 907 1347 929 1339 q 853 1354 885 1354 q 802 1350 826 1354 q 751 1338 778 1346 l 742 1365 q 792 1380 765 1375 q 853 1385 818 1385 q 933 1368 901 1385 q 964 1322 964 1351 q 944 1288 964 1301 q 906 1263 925 1274 q 878 1245 890 1253 q 867 1228 867 1238 q 869 1220 867 1224 q 872 1213 871 1217 l 842 1206 z "},"Ỗ":{"ha":1357,"x_min":139,"x_max":1218,"o":"m 678 -14 q 460 24 560 -14 q 289 128 361 61 q 178 285 217 194 q 139 485 139 376 q 178 684 139 593 q 289 842 217 775 q 460 948 361 910 q 678 986 560 986 q 897 949 797 986 q 1068 845 996 913 q 1179 686 1140 778 q 1218 485 1218 594 q 1179 284 1218 375 q 1068 126 1140 193 q 897 22 996 58 q 678 -14 797 -14 m 679 17 q 883 52 790 17 q 1044 151 976 88 q 1149 299 1111 214 q 1186 485 1186 385 q 1149 671 1186 585 q 1044 821 1111 757 q 883 920 976 885 q 679 956 789 956 q 475 920 568 956 q 314 822 382 885 q 208 672 246 758 q 171 485 171 586 q 208 299 171 385 q 314 150 246 213 q 475 52 382 88 q 679 17 568 17 m 528 1069 l 511 1088 l 660 1201 l 699 1201 l 847 1088 l 831 1069 l 669 1183 l 690 1183 l 528 1069 m 771 1286 q 724 1294 749 1286 q 675 1311 700 1301 q 631 1327 653 1319 q 589 1335 608 1335 q 558 1324 571 1335 q 538 1286 544 1313 l 506 1292 q 535 1345 513 1325 q 589 1365 558 1365 q 636 1357 613 1365 q 682 1340 660 1349 q 726 1324 704 1332 q 769 1317 747 1317 q 803 1327 789 1317 q 828 1368 818 1338 l 854 1363 q 838 1321 850 1338 q 808 1295 825 1304 q 771 1286 790 1286 z "},"Ȍ":{"ha":1357,"x_min":139,"x_max":1218,"o":"m 678 -14 q 460 24 560 -14 q 289 128 361 61 q 178 285 217 194 q 139 485 139 376 q 178 684 139 593 q 289 842 217 775 q 460 948 361 910 q 678 986 560 986 q 897 949 797 986 q 1068 845 996 913 q 1179 686 1140 778 q 1218 485 1218 594 q 1179 284 1218 375 q 1068 126 1140 193 q 897 22 996 58 q 678 -14 797 -14 m 679 17 q 883 52 790 17 q 1044 151 976 88 q 1149 299 1111 214 q 1186 485 1186 385 q 1149 671 1186 585 q 1044 821 1111 757 q 883 920 976 885 q 679 956 789 956 q 475 920 568 956 q 314 822 382 885 q 208 672 246 758 q 171 485 171 586 q 208 299 171 385 q 314 150 246 213 q 475 52 382 88 q 679 17 568 17 m 774 1057 l 563 1183 l 579 1214 l 786 1079 l 774 1057 m 586 1057 l 375 1183 l 392 1214 l 599 1079 l 586 1057 z "},"Ö":{"ha":1357,"x_min":139,"x_max":1218,"o":"m 678 -14 q 460 24 560 -14 q 289 128 361 61 q 178 285 217 194 q 139 485 139 376 q 178 684 139 593 q 289 842 217 775 q 460 948 361 910 q 678 986 560 986 q 897 949 797 986 q 1068 845 996 913 q 1179 686 1140 778 q 1218 485 1218 594 q 1179 284 1218 375 q 1068 126 1140 193 q 897 22 996 58 q 678 -14 797 -14 m 679 17 q 883 52 790 17 q 1044 151 976 88 q 1149 299 1111 214 q 1186 485 1186 385 q 1149 671 1186 585 q 1044 821 1111 757 q 883 920 976 885 q 679 956 789 956 q 475 920 568 956 q 314 822 382 885 q 208 672 246 758 q 171 485 171 586 q 208 299 171 385 q 314 150 246 213 q 475 52 382 88 q 679 17 568 17 m 783 1099 q 756 1109 767 1099 q 746 1136 746 1119 q 756 1163 746 1151 q 783 1174 765 1174 q 812 1163 803 1174 q 821 1136 821 1153 q 812 1109 821 1119 q 783 1099 803 1099 m 575 1099 q 548 1109 558 1099 q 538 1136 538 1119 q 547 1163 538 1151 q 575 1174 557 1174 q 603 1163 594 1174 q 613 1136 613 1153 q 603 1109 613 1119 q 575 1099 594 1099 z "},"Ȫ":{"ha":1357,"x_min":139,"x_max":1218,"o":"m 678 -14 q 460 24 560 -14 q 289 128 361 61 q 178 285 217 194 q 139 485 139 376 q 178 684 139 593 q 289 842 217 775 q 460 948 361 910 q 678 986 560 986 q 897 949 797 986 q 1068 845 996 913 q 1179 686 1140 778 q 1218 485 1218 594 q 1179 284 1218 375 q 1068 126 1140 193 q 897 22 996 58 q 678 -14 797 -14 m 679 17 q 883 52 790 17 q 1044 151 976 88 q 1149 299 1111 214 q 1186 485 1186 385 q 1149 671 1186 585 q 1044 821 1111 757 q 883 920 976 885 q 679 956 789 956 q 475 920 568 956 q 314 822 382 885 q 208 672 246 758 q 171 485 171 586 q 208 299 171 385 q 314 150 246 213 q 475 52 382 88 q 679 17 568 17 m 783 1099 q 756 1109 767 1099 q 746 1136 746 1119 q 756 1163 746 1151 q 783 1174 765 1174 q 812 1163 803 1174 q 821 1136 821 1153 q 812 1109 821 1119 q 783 1099 803 1099 m 575 1099 q 548 1109 558 1099 q 538 1136 538 1119 q 547 1163 538 1151 q 575 1174 557 1174 q 603 1163 594 1174 q 613 1136 613 1153 q 603 1109 613 1119 q 575 1099 594 1099 m 492 1288 l 492 1318 l 867 1318 l 867 1288 l 492 1288 z "},"Ȱ":{"ha":1357,"x_min":139,"x_max":1218,"o":"m 678 -14 q 460 24 560 -14 q 289 128 361 61 q 178 285 217 194 q 139 485 139 376 q 178 684 139 593 q 289 842 217 775 q 460 948 361 910 q 678 986 560 986 q 897 949 797 986 q 1068 845 996 913 q 1179 686 1140 778 q 1218 485 1218 594 q 1179 284 1218 375 q 1068 126 1140 193 q 897 22 996 58 q 678 -14 797 -14 m 679 17 q 883 52 790 17 q 1044 151 976 88 q 1149 299 1111 214 q 1186 485 1186 385 q 1149 671 1186 585 q 1044 821 1111 757 q 883 920 976 885 q 679 956 789 956 q 475 920 568 956 q 314 822 382 885 q 208 672 246 758 q 171 485 171 586 q 208 299 171 385 q 314 150 246 213 q 475 52 382 88 q 679 17 568 17 m 679 1096 q 650 1107 660 1096 q 640 1136 640 1118 q 650 1165 640 1153 q 679 1176 660 1176 q 708 1165 697 1176 q 718 1136 718 1154 q 708 1107 718 1118 q 679 1096 699 1096 m 492 1288 l 492 1318 l 867 1318 l 867 1288 l 492 1288 z "},"Ọ":{"ha":1357,"x_min":139,"x_max":1218,"o":"m 678 -14 q 460 24 560 -14 q 289 128 361 61 q 178 285 217 194 q 139 485 139 376 q 178 684 139 593 q 289 842 217 775 q 460 948 361 910 q 678 986 560 986 q 897 949 797 986 q 1068 845 996 913 q 1179 686 1140 778 q 1218 485 1218 594 q 1179 284 1218 375 q 1068 126 1140 193 q 897 22 996 58 q 678 -14 797 -14 m 679 17 q 883 52 790 17 q 1044 151 976 88 q 1149 299 1111 214 q 1186 485 1186 385 q 1149 671 1186 585 q 1044 821 1111 757 q 883 920 976 885 q 679 956 789 956 q 475 920 568 956 q 314 822 382 885 q 208 672 246 758 q 171 485 171 586 q 208 299 171 385 q 314 150 246 213 q 475 52 382 88 q 679 17 568 17 m 679 -193 q 649 -181 658 -193 q 640 -153 640 -169 q 649 -126 640 -139 q 679 -112 657 -112 q 708 -124 699 -112 q 718 -153 718 -136 q 710 -181 718 -168 q 679 -193 701 -193 z "},"Ò":{"ha":1357,"x_min":139,"x_max":1218,"o":"m 678 -14 q 460 24 560 -14 q 289 128 361 61 q 178 285 217 194 q 139 485 139 376 q 178 684 139 593 q 289 842 217 775 q 460 948 361 910 q 678 986 560 986 q 897 949 797 986 q 1068 845 996 913 q 1179 686 1140 778 q 1218 485 1218 594 q 1179 284 1218 375 q 1068 126 1140 193 q 897 22 996 58 q 678 -14 797 -14 m 679 17 q 883 52 790 17 q 1044 151 976 88 q 1149 299 1111 214 q 1186 485 1186 385 q 1149 671 1186 585 q 1044 821 1111 757 q 883 920 976 885 q 679 956 789 956 q 475 920 568 956 q 314 822 382 885 q 208 672 246 758 q 171 485 171 586 q 208 299 171 385 q 314 150 246 213 q 475 52 382 88 q 679 17 568 17 m 767 1061 l 553 1181 l 571 1211 l 779 1083 l 767 1061 z "},"Ỏ":{"ha":1357,"x_min":139,"x_max":1218,"o":"m 678 -14 q 460 24 560 -14 q 289 128 361 61 q 178 285 217 194 q 139 485 139 376 q 178 684 139 593 q 289 842 217 775 q 460 948 361 910 q 678 986 560 986 q 897 949 797 986 q 1068 845 996 913 q 1179 686 1140 778 q 1218 485 1218 594 q 1179 284 1218 375 q 1068 126 1140 193 q 897 22 996 58 q 678 -14 797 -14 m 679 17 q 883 52 790 17 q 1044 151 976 88 q 1149 299 1111 214 q 1186 485 1186 385 q 1149 671 1186 585 q 1044 821 1111 757 q 883 920 976 885 q 679 956 789 956 q 475 920 568 956 q 314 822 382 885 q 208 672 246 758 q 171 485 171 586 q 208 299 171 385 q 314 150 246 213 q 475 52 382 88 q 679 17 568 17 m 667 1063 q 661 1075 664 1069 q 658 1089 658 1081 q 674 1121 658 1108 q 707 1144 689 1133 q 742 1167 728 1157 q 757 1196 757 1178 q 733 1226 757 1217 q 672 1236 708 1236 q 626 1233 650 1236 q 576 1219 603 1229 l 567 1247 q 616 1262 590 1257 q 671 1267 642 1267 q 758 1247 725 1267 q 792 1196 792 1228 q 772 1154 792 1169 q 731 1126 751 1139 q 703 1108 715 1117 q 692 1088 692 1099 q 694 1078 692 1082 q 697 1069 696 1074 l 667 1063 z "},"Ơ":{"ha":1357,"x_min":139,"x_max":1218,"o":"m 679 -14 q 460 24 560 -14 q 289 128 361 61 q 178 285 217 194 q 139 485 139 376 q 178 684 139 593 q 289 842 217 775 q 460 948 361 910 q 679 986 560 986 q 738 983 708 986 q 794 976 767 981 q 866 965 836 969 q 919 961 896 961 q 1024 978 985 961 q 1079 1028 1063 994 q 1096 1110 1096 1061 l 1126 1110 q 1113 1026 1126 1061 q 1072 971 1100 992 q 1001 941 1044 950 q 897 935 958 932 l 883 953 q 1061 851 986 919 q 1177 690 1136 783 q 1218 485 1218 597 q 1179 284 1218 375 q 1068 126 1140 193 q 897 23 996 60 q 679 -14 797 -14 m 679 17 q 883 52 790 17 q 1044 151 976 88 q 1149 299 1111 214 q 1186 485 1186 385 q 1147 671 1186 585 q 1039 821 1108 757 q 877 920 969 885 q 679 956 785 956 q 475 920 568 956 q 314 822 382 885 q 208 672 246 758 q 171 485 171 586 q 208 299 171 385 q 314 150 246 213 q 475 52 382 88 q 679 17 568 17 z "},"Ớ":{"ha":1357,"x_min":139,"x_max":1218,"o":"m 679 -14 q 460 24 560 -14 q 289 128 361 61 q 178 285 217 194 q 139 485 139 376 q 178 684 139 593 q 289 842 217 775 q 460 948 361 910 q 679 986 560 986 q 738 983 708 986 q 794 976 767 981 q 866 965 836 969 q 919 961 896 961 q 1024 978 985 961 q 1079 1028 1063 994 q 1096 1110 1096 1061 l 1126 1110 q 1113 1026 1126 1061 q 1072 971 1100 992 q 1001 941 1044 950 q 897 935 958 932 l 883 953 q 1061 851 986 919 q 1177 690 1136 783 q 1218 485 1218 597 q 1179 284 1218 375 q 1068 126 1140 193 q 897 23 996 60 q 679 -14 797 -14 m 679 17 q 883 52 790 17 q 1044 151 976 88 q 1149 299 1111 214 q 1186 485 1186 385 q 1147 671 1186 585 q 1039 821 1108 757 q 877 920 969 885 q 679 956 785 956 q 475 920 568 956 q 314 822 382 885 q 208 672 246 758 q 171 485 171 586 q 208 299 171 385 q 314 150 246 213 q 475 52 382 88 q 679 17 568 17 m 589 1061 l 576 1083 l 785 1211 l 803 1181 l 589 1061 z "},"Ợ":{"ha":1357,"x_min":139,"x_max":1218,"o":"m 679 -14 q 460 24 560 -14 q 289 128 361 61 q 178 285 217 194 q 139 485 139 376 q 178 684 139 593 q 289 842 217 775 q 460 948 361 910 q 679 986 560 986 q 738 983 708 986 q 794 976 767 981 q 866 965 836 969 q 919 961 896 961 q 1024 978 985 961 q 1079 1028 1063 994 q 1096 1110 1096 1061 l 1126 1110 q 1113 1026 1126 1061 q 1072 971 1100 992 q 1001 941 1044 950 q 897 935 958 932 l 883 953 q 1061 851 986 919 q 1177 690 1136 783 q 1218 485 1218 597 q 1179 284 1218 375 q 1068 126 1140 193 q 897 23 996 60 q 679 -14 797 -14 m 679 17 q 883 52 790 17 q 1044 151 976 88 q 1149 299 1111 214 q 1186 485 1186 385 q 1147 671 1186 585 q 1039 821 1108 757 q 877 920 969 885 q 679 956 785 956 q 475 920 568 956 q 314 822 382 885 q 208 672 246 758 q 171 485 171 586 q 208 299 171 385 q 314 150 246 213 q 475 52 382 88 q 679 17 568 17 m 679 -193 q 649 -181 658 -193 q 640 -153 640 -169 q 649 -126 640 -139 q 679 -112 657 -112 q 708 -124 699 -112 q 718 -153 718 -136 q 710 -181 718 -168 q 679 -193 701 -193 z "},"Ờ":{"ha":1357,"x_min":139,"x_max":1218,"o":"m 679 -14 q 460 24 560 -14 q 289 128 361 61 q 178 285 217 194 q 139 485 139 376 q 178 684 139 593 q 289 842 217 775 q 460 948 361 910 q 679 986 560 986 q 738 983 708 986 q 794 976 767 981 q 866 965 836 969 q 919 961 896 961 q 1024 978 985 961 q 1079 1028 1063 994 q 1096 1110 1096 1061 l 1126 1110 q 1113 1026 1126 1061 q 1072 971 1100 992 q 1001 941 1044 950 q 897 935 958 932 l 883 953 q 1061 851 986 919 q 1177 690 1136 783 q 1218 485 1218 597 q 1179 284 1218 375 q 1068 126 1140 193 q 897 23 996 60 q 679 -14 797 -14 m 679 17 q 883 52 790 17 q 1044 151 976 88 q 1149 299 1111 214 q 1186 485 1186 385 q 1147 671 1186 585 q 1039 821 1108 757 q 877 920 969 885 q 679 956 785 956 q 475 920 568 956 q 314 822 382 885 q 208 672 246 758 q 171 485 171 586 q 208 299 171 385 q 314 150 246 213 q 475 52 382 88 q 679 17 568 17 m 767 1061 l 553 1181 l 571 1211 l 779 1083 l 767 1061 z "},"Ở":{"ha":1357,"x_min":139,"x_max":1218,"o":"m 679 -14 q 460 24 560 -14 q 289 128 361 61 q 178 285 217 194 q 139 485 139 376 q 178 684 139 593 q 289 842 217 775 q 460 948 361 910 q 679 986 560 986 q 738 983 708 986 q 794 976 767 981 q 866 965 836 969 q 919 961 896 961 q 1024 978 985 961 q 1079 1028 1063 994 q 1096 1110 1096 1061 l 1126 1110 q 1113 1026 1126 1061 q 1072 971 1100 992 q 1001 941 1044 950 q 897 935 958 932 l 883 953 q 1061 851 986 919 q 1177 690 1136 783 q 1218 485 1218 597 q 1179 284 1218 375 q 1068 126 1140 193 q 897 23 996 60 q 679 -14 797 -14 m 679 17 q 883 52 790 17 q 1044 151 976 88 q 1149 299 1111 214 q 1186 485 1186 385 q 1147 671 1186 585 q 1039 821 1108 757 q 877 920 969 885 q 679 956 785 956 q 475 920 568 956 q 314 822 382 885 q 208 672 246 758 q 171 485 171 586 q 208 299 171 385 q 314 150 246 213 q 475 52 382 88 q 679 17 568 17 m 667 1063 q 661 1075 664 1069 q 658 1089 658 1081 q 674 1121 658 1108 q 707 1144 689 1133 q 742 1167 728 1157 q 757 1196 757 1178 q 733 1226 757 1217 q 672 1236 708 1236 q 626 1233 650 1236 q 576 1219 603 1229 l 567 1247 q 616 1262 590 1257 q 671 1267 642 1267 q 758 1247 725 1267 q 792 1196 792 1228 q 772 1154 792 1169 q 731 1126 751 1139 q 703 1108 715 1117 q 692 1088 692 1099 q 694 1078 692 1082 q 697 1069 696 1074 l 667 1063 z "},"Ỡ":{"ha":1357,"x_min":139,"x_max":1218,"o":"m 679 -14 q 460 24 560 -14 q 289 128 361 61 q 178 285 217 194 q 139 485 139 376 q 178 684 139 593 q 289 842 217 775 q 460 948 361 910 q 679 986 560 986 q 738 983 708 986 q 794 976 767 981 q 866 965 836 969 q 919 961 896 961 q 1024 978 985 961 q 1079 1028 1063 994 q 1096 1110 1096 1061 l 1126 1110 q 1113 1026 1126 1061 q 1072 971 1100 992 q 1001 941 1044 950 q 897 935 958 932 l 883 953 q 1061 851 986 919 q 1177 690 1136 783 q 1218 485 1218 597 q 1179 284 1218 375 q 1068 126 1140 193 q 897 23 996 60 q 679 -14 797 -14 m 679 17 q 883 52 790 17 q 1044 151 976 88 q 1149 299 1111 214 q 1186 485 1186 385 q 1147 671 1186 585 q 1039 821 1108 757 q 877 920 969 885 q 679 956 785 956 q 475 920 568 956 q 314 822 382 885 q 208 672 246 758 q 171 485 171 586 q 208 299 171 385 q 314 150 246 213 q 475 52 382 88 q 679 17 568 17 m 763 1089 q 724 1095 746 1089 q 649 1128 701 1101 q 619 1142 640 1132 q 576 1153 597 1153 q 541 1137 557 1153 q 525 1090 525 1121 l 494 1090 q 519 1158 494 1133 q 574 1183 543 1183 q 636 1169 607 1183 q 690 1143 665 1156 q 737 1124 724 1128 q 760 1119 750 1119 q 808 1134 786 1119 q 832 1182 831 1149 l 863 1182 q 849 1132 863 1153 q 812 1100 835 1111 q 763 1089 789 1089 z "},"Ő":{"ha":1357,"x_min":139,"x_max":1218,"o":"m 678 -14 q 460 24 560 -14 q 289 128 361 61 q 178 285 217 194 q 139 485 139 376 q 178 684 139 593 q 289 842 217 775 q 460 948 361 910 q 678 986 560 986 q 897 949 797 986 q 1068 845 996 913 q 1179 686 1140 778 q 1218 485 1218 594 q 1179 284 1218 375 q 1068 126 1140 193 q 897 22 996 58 q 678 -14 797 -14 m 679 17 q 883 52 790 17 q 1044 151 976 88 q 1149 299 1111 214 q 1186 485 1186 385 q 1149 671 1186 585 q 1044 821 1111 757 q 883 920 976 885 q 679 956 789 956 q 475 920 568 956 q 314 822 382 885 q 208 672 246 758 q 171 485 171 586 q 208 299 171 385 q 314 150 246 213 q 475 52 382 88 q 679 17 568 17 m 551 1057 l 539 1079 l 746 1214 l 763 1183 l 551 1057 m 739 1057 l 726 1079 l 933 1214 l 950 1183 l 739 1057 z "},"Ȏ":{"ha":1357,"x_min":139,"x_max":1218,"o":"m 678 -14 q 460 24 560 -14 q 289 128 361 61 q 178 285 217 194 q 139 485 139 376 q 178 684 139 593 q 289 842 217 775 q 460 948 361 910 q 678 986 560 986 q 897 949 797 986 q 1068 845 996 913 q 1179 686 1140 778 q 1218 485 1218 594 q 1179 284 1218 375 q 1068 126 1140 193 q 897 22 996 58 q 678 -14 797 -14 m 679 17 q 883 52 790 17 q 1044 151 976 88 q 1149 299 1111 214 q 1186 485 1186 385 q 1149 671 1186 585 q 1044 821 1111 757 q 883 920 976 885 q 679 956 789 956 q 475 920 568 956 q 314 822 382 885 q 208 672 246 758 q 171 485 171 586 q 208 299 171 385 q 314 150 246 213 q 475 52 382 88 q 679 17 568 17 m 526 1065 l 496 1068 q 532 1148 507 1114 q 595 1201 557 1182 q 679 1221 633 1221 q 764 1201 726 1221 q 826 1148 801 1182 q 863 1068 851 1114 l 832 1065 q 776 1157 818 1122 q 679 1192 735 1192 q 582 1157 625 1192 q 526 1065 539 1122 z "},"Ō":{"ha":1357,"x_min":139,"x_max":1218,"o":"m 678 -14 q 460 24 560 -14 q 289 128 361 61 q 178 285 217 194 q 139 485 139 376 q 178 684 139 593 q 289 842 217 775 q 460 948 361 910 q 678 986 560 986 q 897 949 797 986 q 1068 845 996 913 q 1179 686 1140 778 q 1218 485 1218 594 q 1179 284 1218 375 q 1068 126 1140 193 q 897 22 996 58 q 678 -14 797 -14 m 679 17 q 883 52 790 17 q 1044 151 976 88 q 1149 299 1111 214 q 1186 485 1186 385 q 1149 671 1186 585 q 1044 821 1111 757 q 883 920 976 885 q 679 956 789 956 q 475 920 568 956 q 314 822 382 885 q 208 672 246 758 q 171 485 171 586 q 208 299 171 385 q 314 150 246 213 q 475 52 382 88 q 679 17 568 17 m 492 1121 l 492 1151 l 867 1151 l 867 1121 l 492 1121 z "},"Ṓ":{"ha":1357,"x_min":139,"x_max":1218,"o":"m 678 -14 q 460 24 560 -14 q 289 128 361 61 q 178 285 217 194 q 139 485 139 376 q 178 684 139 593 q 289 842 217 775 q 460 948 361 910 q 678 986 560 986 q 897 949 797 986 q 1068 845 996 913 q 1179 686 1140 778 q 1218 485 1218 594 q 1179 284 1218 375 q 1068 126 1140 193 q 897 22 996 58 q 678 -14 797 -14 m 679 17 q 883 52 790 17 q 1044 151 976 88 q 1149 299 1111 214 q 1186 485 1186 385 q 1149 671 1186 585 q 1044 821 1111 757 q 883 920 976 885 q 679 956 789 956 q 475 920 568 956 q 314 822 382 885 q 208 672 246 758 q 171 485 171 586 q 208 299 171 385 q 314 150 246 213 q 475 52 382 88 q 679 17 568 17 m 492 1121 l 492 1151 l 867 1151 l 867 1121 l 492 1121 m 589 1228 l 576 1250 l 785 1378 l 803 1347 l 589 1228 z "},"Ṑ":{"ha":1357,"x_min":139,"x_max":1218,"o":"m 678 -14 q 460 24 560 -14 q 289 128 361 61 q 178 285 217 194 q 139 485 139 376 q 178 684 139 593 q 289 842 217 775 q 460 948 361 910 q 678 986 560 986 q 897 949 797 986 q 1068 845 996 913 q 1179 686 1140 778 q 1218 485 1218 594 q 1179 284 1218 375 q 1068 126 1140 193 q 897 22 996 58 q 678 -14 797 -14 m 679 17 q 883 52 790 17 q 1044 151 976 88 q 1149 299 1111 214 q 1186 485 1186 385 q 1149 671 1186 585 q 1044 821 1111 757 q 883 920 976 885 q 679 956 789 956 q 475 920 568 956 q 314 822 382 885 q 208 672 246 758 q 171 485 171 586 q 208 299 171 385 q 314 150 246 213 q 475 52 382 88 q 679 17 568 17 m 492 1121 l 492 1151 l 867 1151 l 867 1121 l 492 1121 m 767 1228 l 553 1347 l 571 1378 l 779 1250 l 767 1228 z "},"Ǫ":{"ha":1357,"x_min":139,"x_max":1218,"o":"m 857 -328 q 758 -287 797 -328 q 718 -187 718 -247 q 733 -112 718 -147 q 778 -44 749 -78 q 853 19 808 -11 q 958 79 899 49 l 965 54 q 866 -6 907 25 q 799 -65 825 -36 q 760 -124 772 -94 q 749 -183 749 -153 q 780 -265 749 -233 q 857 -297 811 -297 q 919 -280 893 -297 q 961 -235 946 -262 l 982 -253 q 932 -307 965 -286 q 857 -328 899 -328 m 679 -14 q 460 24 560 -14 q 289 128 361 61 q 178 285 217 194 q 139 485 139 376 q 178 684 139 593 q 289 842 217 775 q 460 948 361 910 q 679 986 560 986 q 897 949 797 986 q 1068 844 996 911 q 1179 686 1140 778 q 1218 485 1218 594 q 1179 284 1218 375 q 1068 126 1140 193 q 897 23 996 60 q 679 -14 797 -14 m 679 17 q 883 52 790 17 q 1044 151 976 88 q 1149 299 1111 214 q 1186 485 1186 385 q 1149 671 1186 585 q 1044 821 1111 757 q 883 920 976 885 q 679 956 790 956 q 475 920 568 956 q 314 822 382 885 q 208 672 246 758 q 171 485 171 586 q 208 299 171 385 q 314 150 246 213 q 475 52 382 88 q 679 17 568 17 z "},"Ø":{"ha":1358,"x_min":139,"x_max":1219,"o":"m 197 -26 l 172 -6 l 1160 994 l 1186 974 l 197 -26 m 679 -14 q 460 24 560 -14 q 289 128 361 61 q 178 285 217 194 q 139 485 139 376 q 178 684 139 593 q 289 842 217 775 q 460 948 361 910 q 679 986 560 986 q 896 949 797 986 q 1067 845 994 913 q 1180 686 1140 778 q 1219 485 1219 594 q 1180 285 1219 376 q 1067 126 1140 193 q 896 22 994 58 q 679 -14 797 -14 m 678 17 q 883 52 790 17 q 1044 151 975 88 q 1150 299 1113 214 q 1188 485 1188 385 q 1150 671 1188 585 q 1044 821 1113 757 q 883 920 975 885 q 678 956 790 956 q 475 920 568 956 q 314 822 382 885 q 208 672 246 758 q 171 485 171 586 q 208 299 171 385 q 314 150 246 213 q 475 52 382 88 q 678 17 568 17 z "},"Ǿ":{"ha":1358,"x_min":139,"x_max":1219,"o":"m 197 -26 l 172 -6 l 1160 994 l 1186 974 l 197 -26 m 679 -14 q 460 24 560 -14 q 289 128 361 61 q 178 285 217 194 q 139 485 139 376 q 178 684 139 593 q 289 842 217 775 q 460 948 361 910 q 679 986 560 986 q 896 949 797 986 q 1067 845 994 913 q 1180 686 1140 778 q 1219 485 1219 594 q 1180 285 1219 376 q 1067 126 1140 193 q 896 22 994 58 q 679 -14 797 -14 m 678 17 q 883 52 790 17 q 1044 151 975 88 q 1150 299 1113 214 q 1188 485 1188 385 q 1150 671 1188 585 q 1044 821 1113 757 q 883 920 975 885 q 678 956 790 956 q 475 920 568 956 q 314 822 382 885 q 208 672 246 758 q 171 485 171 586 q 208 299 171 385 q 314 150 246 213 q 475 52 382 88 q 678 17 568 17 m 590 1061 l 578 1083 l 786 1211 l 804 1181 l 590 1061 z "},"Õ":{"ha":1357,"x_min":139,"x_max":1218,"o":"m 678 -14 q 460 24 560 -14 q 289 128 361 61 q 178 285 217 194 q 139 485 139 376 q 178 684 139 593 q 289 842 217 775 q 460 948 361 910 q 678 986 560 986 q 897 949 797 986 q 1068 845 996 913 q 1179 686 1140 778 q 1218 485 1218 594 q 1179 284 1218 375 q 1068 126 1140 193 q 897 22 996 58 q 678 -14 797 -14 m 679 17 q 883 52 790 17 q 1044 151 976 88 q 1149 299 1111 214 q 1186 485 1186 385 q 1149 671 1186 585 q 1044 821 1111 757 q 883 920 976 885 q 679 956 789 956 q 475 920 568 956 q 314 822 382 885 q 208 672 246 758 q 171 485 171 586 q 208 299 171 385 q 314 150 246 213 q 475 52 382 88 q 679 17 568 17 m 763 1089 q 724 1095 746 1089 q 649 1128 701 1101 q 619 1142 640 1132 q 576 1153 597 1153 q 541 1137 557 1153 q 525 1090 525 1121 l 494 1090 q 519 1158 494 1133 q 574 1183 543 1183 q 636 1169 607 1183 q 690 1143 665 1156 q 737 1124 724 1128 q 760 1119 750 1119 q 808 1134 786 1119 q 832 1182 831 1149 l 863 1182 q 849 1132 863 1153 q 812 1100 835 1111 q 763 1089 789 1089 z "},"Ṍ":{"ha":1357,"x_min":139,"x_max":1218,"o":"m 678 -14 q 460 24 560 -14 q 289 128 361 61 q 178 285 217 194 q 139 485 139 376 q 178 684 139 593 q 289 842 217 775 q 460 948 361 910 q 678 986 560 986 q 897 949 797 986 q 1068 845 996 913 q 1179 686 1140 778 q 1218 485 1218 594 q 1179 284 1218 375 q 1068 126 1140 193 q 897 22 996 58 q 678 -14 797 -14 m 679 17 q 883 52 790 17 q 1044 151 976 88 q 1149 299 1111 214 q 1186 485 1186 385 q 1149 671 1186 585 q 1044 821 1111 757 q 883 920 976 885 q 679 956 789 956 q 475 920 568 956 q 314 822 382 885 q 208 672 246 758 q 171 485 171 586 q 208 299 171 385 q 314 150 246 213 q 475 52 382 88 q 679 17 568 17 m 763 1089 q 724 1095 746 1089 q 649 1128 701 1101 q 619 1142 640 1132 q 576 1153 597 1153 q 541 1137 557 1153 q 525 1090 525 1121 l 494 1090 q 519 1158 494 1133 q 574 1183 543 1183 q 636 1169 607 1183 q 690 1143 665 1156 q 737 1124 724 1128 q 760 1119 750 1119 q 808 1134 786 1119 q 832 1182 831 1149 l 863 1182 q 849 1132 863 1153 q 812 1100 835 1111 q 763 1089 789 1089 m 589 1228 l 576 1250 l 785 1378 l 803 1347 l 589 1228 z "},"Ṏ":{"ha":1357,"x_min":139,"x_max":1218,"o":"m 678 -14 q 460 24 560 -14 q 289 128 361 61 q 178 285 217 194 q 139 485 139 376 q 178 684 139 593 q 289 842 217 775 q 460 948 361 910 q 678 986 560 986 q 897 949 797 986 q 1068 845 996 913 q 1179 686 1140 778 q 1218 485 1218 594 q 1179 284 1218 375 q 1068 126 1140 193 q 897 22 996 58 q 678 -14 797 -14 m 679 17 q 883 52 790 17 q 1044 151 976 88 q 1149 299 1111 214 q 1186 485 1186 385 q 1149 671 1186 585 q 1044 821 1111 757 q 883 920 976 885 q 679 956 789 956 q 475 920 568 956 q 314 822 382 885 q 208 672 246 758 q 171 485 171 586 q 208 299 171 385 q 314 150 246 213 q 475 52 382 88 q 679 17 568 17 m 763 1089 q 724 1095 746 1089 q 649 1128 701 1101 q 619 1142 640 1132 q 576 1153 597 1153 q 541 1137 557 1153 q 525 1090 525 1121 l 494 1090 q 519 1158 494 1133 q 574 1183 543 1183 q 636 1169 607 1183 q 690 1143 665 1156 q 737 1124 724 1128 q 760 1119 750 1119 q 808 1134 786 1119 q 832 1182 831 1149 l 863 1182 q 849 1132 863 1153 q 812 1100 835 1111 q 763 1089 789 1089 m 783 1265 q 756 1276 767 1265 q 746 1303 746 1286 q 756 1329 746 1318 q 783 1340 765 1340 q 812 1330 803 1340 q 821 1303 821 1319 q 812 1276 821 1286 q 783 1265 803 1265 m 575 1265 q 548 1276 558 1265 q 538 1303 538 1286 q 547 1329 538 1318 q 575 1340 557 1340 q 603 1330 594 1340 q 613 1303 613 1319 q 603 1276 613 1286 q 575 1265 594 1265 z "},"Ȭ":{"ha":1357,"x_min":139,"x_max":1218,"o":"m 678 -14 q 460 24 560 -14 q 289 128 361 61 q 178 285 217 194 q 139 485 139 376 q 178 684 139 593 q 289 842 217 775 q 460 948 361 910 q 678 986 560 986 q 897 949 797 986 q 1068 845 996 913 q 1179 686 1140 778 q 1218 485 1218 594 q 1179 284 1218 375 q 1068 126 1140 193 q 897 22 996 58 q 678 -14 797 -14 m 679 17 q 883 52 790 17 q 1044 151 976 88 q 1149 299 1111 214 q 1186 485 1186 385 q 1149 671 1186 585 q 1044 821 1111 757 q 883 920 976 885 q 679 956 789 956 q 475 920 568 956 q 314 822 382 885 q 208 672 246 758 q 171 485 171 586 q 208 299 171 385 q 314 150 246 213 q 475 52 382 88 q 679 17 568 17 m 763 1089 q 724 1095 746 1089 q 649 1128 701 1101 q 619 1142 640 1132 q 576 1153 597 1153 q 541 1137 557 1153 q 525 1090 525 1121 l 494 1090 q 519 1158 494 1133 q 574 1183 543 1183 q 636 1169 607 1183 q 690 1143 665 1156 q 737 1124 724 1128 q 760 1119 750 1119 q 808 1134 786 1119 q 832 1182 831 1149 l 863 1182 q 849 1132 863 1153 q 812 1100 835 1111 q 763 1089 789 1089 m 492 1288 l 492 1318 l 867 1318 l 867 1288 l 492 1288 z "},"Œ":{"ha":1738,"x_min":139,"x_max":1582,"o":"m 644 0 q 447 36 539 0 q 286 137 356 72 q 178 291 217 201 q 139 486 139 381 q 177 681 139 592 q 282 835 215 771 q 439 936 349 900 q 632 972 529 972 l 1582 972 l 1582 942 l 960 942 l 960 518 l 1501 518 l 1501 488 l 960 488 l 960 31 l 1574 31 l 1574 0 l 644 0 m 171 486 q 208 305 171 388 q 310 160 244 222 q 463 65 376 99 q 649 31 549 31 l 929 31 l 929 942 l 636 942 q 454 908 539 942 q 306 813 369 875 q 207 668 243 751 q 171 486 171 585 z "},"P":{"ha":1082,"x_min":218,"x_max":935,"o":"m 218 0 l 218 972 l 651 972 q 803 938 739 972 q 901 844 867 904 q 935 704 935 785 q 901 544 935 613 q 803 435 867 475 q 650 396 740 396 l 249 396 l 249 0 l 218 0 m 249 426 l 650 426 q 788 461 732 426 q 874 558 844 496 q 903 704 903 621 q 874 830 903 776 q 788 913 844 883 q 650 942 732 942 l 249 942 l 249 426 z "},"Þ":{"ha":1046,"x_min":218,"x_max":900,"o":"m 218 0 l 218 972 l 249 972 l 249 754 l 617 754 q 766 723 703 754 q 865 635 829 692 q 900 497 900 579 q 865 361 900 419 q 767 270 831 303 q 615 238 703 238 l 249 238 l 249 0 l 218 0 m 249 268 l 625 268 q 757 297 703 268 q 840 378 811 326 q 868 497 868 429 q 840 619 868 568 q 758 697 813 669 q 625 724 704 724 l 249 724 l 249 268 z "},"Q":{"ha":1357,"x_min":139,"x_max":1218,"o":"m 1047 -108 l 694 361 l 725 372 l 1076 -97 l 1047 -108 m 678 -14 q 460 24 560 -14 q 289 128 361 61 q 178 285 217 194 q 139 485 139 376 q 178 684 139 593 q 289 842 217 775 q 460 948 361 910 q 678 986 560 986 q 897 949 797 986 q 1068 845 996 913 q 1179 686 1140 778 q 1218 485 1218 594 q 1179 284 1218 375 q 1068 126 1140 193 q 897 22 996 58 q 678 -14 797 -14 m 679 17 q 883 52 790 17 q 1044 151 976 88 q 1149 299 1111 214 q 1186 485 1186 385 q 1149 671 1186 585 q 1044 821 1111 757 q 883 920 976 885 q 679 956 789 956 q 475 920 568 956 q 314 822 382 885 q 208 672 246 758 q 171 485 171 586 q 208 299 171 385 q 314 150 246 213 q 475 52 382 88 q 679 17 568 17 z "},"R":{"ha":1092,"x_min":218,"x_max":957,"o":"m 218 0 l 218 972 l 653 972 q 788 938 729 972 q 880 845 846 904 q 914 708 914 786 q 878 546 914 615 q 780 438 843 476 q 632 400 717 400 l 249 400 l 249 0 l 218 0 m 919 0 l 628 414 l 663 421 l 957 0 l 919 0 m 249 431 l 631 431 q 764 465 708 431 q 851 563 819 500 q 882 708 882 626 q 852 828 882 776 q 772 911 822 881 q 651 942 721 942 l 249 942 l 249 431 z "},"Ŕ":{"ha":1092,"x_min":218,"x_max":957,"o":"m 218 0 l 218 972 l 653 972 q 788 938 729 972 q 880 845 846 904 q 914 708 914 786 q 878 546 914 615 q 780 438 843 476 q 632 400 717 400 l 249 400 l 249 0 l 218 0 m 919 0 l 628 414 l 663 421 l 957 0 l 919 0 m 249 431 l 631 431 q 764 465 708 431 q 851 563 819 500 q 882 708 882 626 q 852 828 882 776 q 772 911 822 881 q 651 942 721 942 l 249 942 l 249 431 m 436 1061 l 424 1083 l 632 1211 l 650 1181 l 436 1061 z "},"Ř":{"ha":1092,"x_min":218,"x_max":957,"o":"m 218 0 l 218 972 l 653 972 q 788 938 729 972 q 880 845 846 904 q 914 708 914 786 q 878 546 914 615 q 780 438 843 476 q 632 400 717 400 l 249 400 l 249 0 l 218 0 m 919 0 l 628 414 l 663 421 l 957 0 l 919 0 m 249 431 l 631 431 q 764 465 708 431 q 851 563 819 500 q 882 708 882 626 q 852 828 882 776 q 772 911 822 881 q 651 942 721 942 l 249 942 l 249 431 m 506 1069 l 357 1183 l 374 1201 l 536 1088 l 515 1088 l 676 1201 l 693 1183 l 544 1069 l 506 1069 z "},"Ŗ":{"ha":1092,"x_min":218,"x_max":957,"o":"m 218 0 l 218 972 l 653 972 q 788 938 729 972 q 880 845 846 904 q 914 708 914 786 q 878 546 914 615 q 780 438 843 476 q 632 400 717 400 l 249 400 l 249 0 l 218 0 m 919 0 l 628 414 l 663 421 l 957 0 l 919 0 m 249 431 l 631 431 q 764 465 708 431 q 851 563 819 500 q 882 708 882 626 q 852 828 882 776 q 772 911 822 881 q 651 942 721 942 l 249 942 l 249 431 m 518 -283 l 500 -265 q 521 -246 510 -256 q 540 -225 532 -236 q 547 -200 547 -214 q 543 -182 547 -189 q 524 -168 539 -175 q 503 -151 510 -161 q 496 -128 496 -142 q 506 -105 496 -115 q 533 -94 515 -94 q 570 -112 557 -94 q 583 -158 583 -129 q 581 -192 583 -176 q 571 -223 578 -208 q 551 -252 564 -237 q 518 -283 538 -267 z "},"Ȑ":{"ha":1092,"x_min":218,"x_max":957,"o":"m 218 0 l 218 972 l 653 972 q 788 938 729 972 q 880 845 846 904 q 914 708 914 786 q 878 546 914 615 q 780 438 843 476 q 632 400 717 400 l 249 400 l 249 0 l 218 0 m 919 0 l 628 414 l 663 421 l 957 0 l 919 0 m 249 431 l 631 431 q 764 465 708 431 q 851 563 819 500 q 882 708 882 626 q 852 828 882 776 q 772 911 822 881 q 651 942 721 942 l 249 942 l 249 431 m 621 1057 l 410 1183 l 426 1214 l 633 1079 l 621 1057 m 433 1057 l 222 1183 l 239 1214 l 446 1079 l 433 1057 z "},"Ṛ":{"ha":1092,"x_min":218,"x_max":957,"o":"m 218 0 l 218 972 l 653 972 q 788 938 729 972 q 880 845 846 904 q 914 708 914 786 q 878 546 914 615 q 780 438 843 476 q 632 400 717 400 l 249 400 l 249 0 l 218 0 m 919 0 l 628 414 l 663 421 l 957 0 l 919 0 m 249 431 l 631 431 q 764 465 708 431 q 851 563 819 500 q 882 708 882 626 q 852 828 882 776 q 772 911 822 881 q 651 942 721 942 l 249 942 l 249 431 m 539 -193 q 509 -181 518 -193 q 500 -153 500 -169 q 508 -126 500 -139 q 539 -112 517 -112 q 568 -124 558 -112 q 578 -153 578 -136 q 569 -181 578 -168 q 539 -193 561 -193 z "},"Ȓ":{"ha":1092,"x_min":218,"x_max":957,"o":"m 218 0 l 218 972 l 653 972 q 788 938 729 972 q 880 845 846 904 q 914 708 914 786 q 878 546 914 615 q 780 438 843 476 q 632 400 717 400 l 249 400 l 249 0 l 218 0 m 919 0 l 628 414 l 663 421 l 957 0 l 919 0 m 249 431 l 631 431 q 764 465 708 431 q 851 563 819 500 q 882 708 882 626 q 852 828 882 776 q 772 911 822 881 q 651 942 721 942 l 249 942 l 249 431 m 372 1065 l 342 1068 q 378 1148 353 1114 q 441 1201 403 1182 q 525 1221 479 1221 q 610 1201 572 1221 q 672 1148 647 1182 q 708 1068 697 1114 l 678 1065 q 622 1157 664 1122 q 525 1192 581 1192 q 428 1157 471 1192 q 372 1065 385 1122 z "},"Ṟ":{"ha":1092,"x_min":218,"x_max":957,"o":"m 218 0 l 218 972 l 653 972 q 788 938 729 972 q 880 845 846 904 q 914 708 914 786 q 878 546 914 615 q 780 438 843 476 q 632 400 717 400 l 249 400 l 249 0 l 218 0 m 919 0 l 628 414 l 663 421 l 957 0 l 919 0 m 249 431 l 631 431 q 764 465 708 431 q 851 563 819 500 q 882 708 882 626 q 852 828 882 776 q 772 911 822 881 q 651 942 721 942 l 249 942 l 249 431 m 351 -168 l 351 -137 l 728 -137 l 728 -168 l 351 -168 z "},"S":{"ha":1029,"x_min":121,"x_max":917,"o":"m 540 -14 q 370 6 449 -14 q 229 64 292 25 q 121 160 167 103 l 140 186 q 307 59 206 101 q 540 17 408 17 q 721 46 643 17 q 843 127 799 75 q 886 247 888 179 q 863 326 886 293 q 803 381 840 358 q 717 420 765 404 q 615 449 668 436 q 510 471 561 461 q 376 502 440 485 q 260 547 311 519 q 181 617 210 575 q 151 725 151 660 q 179 833 151 783 q 257 916 207 882 q 374 968 307 950 q 521 986 442 986 q 671 971 604 986 q 789 924 738 956 q 879 849 840 893 l 858 826 q 771 897 821 868 q 659 940 721 925 q 521 956 597 956 q 350 927 426 956 q 228 848 274 899 q 182 729 182 797 q 211 632 182 671 q 288 568 240 593 q 394 528 336 543 q 515 501 453 514 q 665 469 593 488 q 794 424 736 451 q 884 353 851 396 q 917 244 917 310 q 871 111 917 169 q 740 19 825 53 q 540 -14 656 -14 z "},"Ś":{"ha":1029,"x_min":121,"x_max":917,"o":"m 540 -14 q 370 6 449 -14 q 229 64 292 25 q 121 160 167 103 l 140 186 q 307 59 206 101 q 540 17 408 17 q 721 46 643 17 q 843 127 799 75 q 886 247 888 179 q 863 326 886 293 q 803 381 840 358 q 717 420 765 404 q 615 449 668 436 q 510 471 561 461 q 376 502 440 485 q 260 547 311 519 q 181 617 210 575 q 151 725 151 660 q 179 833 151 783 q 257 916 207 882 q 374 968 307 950 q 521 986 442 986 q 671 971 604 986 q 789 924 738 956 q 879 849 840 893 l 858 826 q 771 897 821 868 q 659 940 721 925 q 521 956 597 956 q 350 927 426 956 q 228 848 274 899 q 182 729 182 797 q 211 632 182 671 q 288 568 240 593 q 394 528 336 543 q 515 501 453 514 q 665 469 593 488 q 794 424 736 451 q 884 353 851 396 q 917 244 917 310 q 871 111 917 169 q 740 19 825 53 q 540 -14 656 -14 m 450 1061 l 438 1083 l 646 1211 l 664 1181 l 450 1061 z "},"Ṥ":{"ha":1029,"x_min":121,"x_max":917,"o":"m 540 -14 q 370 6 449 -14 q 229 64 292 25 q 121 160 167 103 l 140 186 q 307 59 206 101 q 540 17 408 17 q 721 46 643 17 q 843 127 799 75 q 886 247 888 179 q 863 326 886 293 q 803 381 840 358 q 717 420 765 404 q 615 449 668 436 q 510 471 561 461 q 376 502 440 485 q 260 547 311 519 q 181 617 210 575 q 151 725 151 660 q 179 833 151 783 q 257 916 207 882 q 374 968 307 950 q 521 986 442 986 q 671 971 604 986 q 789 924 738 956 q 879 849 840 893 l 858 826 q 771 897 821 868 q 659 940 721 925 q 521 956 597 956 q 350 927 426 956 q 228 848 274 899 q 182 729 182 797 q 211 632 182 671 q 288 568 240 593 q 394 528 336 543 q 515 501 453 514 q 665 469 593 488 q 794 424 736 451 q 884 353 851 396 q 917 244 917 310 q 871 111 917 169 q 740 19 825 53 q 540 -14 656 -14 m 585 1058 l 564 1074 l 674 1228 l 706 1204 l 585 1058 m 474 1067 q 444 1078 454 1067 q 435 1107 435 1089 q 444 1135 435 1124 q 474 1147 454 1147 q 502 1136 492 1147 q 513 1107 513 1125 q 503 1078 513 1089 q 474 1067 493 1067 z "},"Š":{"ha":1029,"x_min":121,"x_max":917,"o":"m 540 -14 q 370 6 449 -14 q 229 64 292 25 q 121 160 167 103 l 140 186 q 307 59 206 101 q 540 17 408 17 q 721 46 643 17 q 843 127 799 75 q 886 247 888 179 q 863 326 886 293 q 803 381 840 358 q 717 420 765 404 q 615 449 668 436 q 510 471 561 461 q 376 502 440 485 q 260 547 311 519 q 181 617 210 575 q 151 725 151 660 q 179 833 151 783 q 257 916 207 882 q 374 968 307 950 q 521 986 442 986 q 671 971 604 986 q 789 924 738 956 q 879 849 840 893 l 858 826 q 771 897 821 868 q 659 940 721 925 q 521 956 597 956 q 350 927 426 956 q 228 848 274 899 q 182 729 182 797 q 211 632 182 671 q 288 568 240 593 q 394 528 336 543 q 515 501 453 514 q 665 469 593 488 q 794 424 736 451 q 884 353 851 396 q 917 244 917 310 q 871 111 917 169 q 740 19 825 53 q 540 -14 656 -14 m 519 1069 l 371 1183 l 388 1201 l 550 1088 l 529 1088 l 690 1201 l 707 1183 l 558 1069 l 519 1069 z "},"Ṧ":{"ha":1029,"x_min":121,"x_max":917,"o":"m 540 -14 q 370 6 449 -14 q 229 64 292 25 q 121 160 167 103 l 140 186 q 307 59 206 101 q 540 17 408 17 q 721 46 643 17 q 843 127 799 75 q 886 247 888 179 q 863 326 886 293 q 803 381 840 358 q 717 420 765 404 q 615 449 668 436 q 510 471 561 461 q 376 502 440 485 q 260 547 311 519 q 181 617 210 575 q 151 725 151 660 q 179 833 151 783 q 257 916 207 882 q 374 968 307 950 q 521 986 442 986 q 671 971 604 986 q 789 924 738 956 q 879 849 840 893 l 858 826 q 771 897 821 868 q 659 940 721 925 q 521 956 597 956 q 350 927 426 956 q 228 848 274 899 q 182 729 182 797 q 211 632 182 671 q 288 568 240 593 q 394 528 336 543 q 515 501 453 514 q 665 469 593 488 q 794 424 736 451 q 884 353 851 396 q 917 244 917 310 q 871 111 917 169 q 740 19 825 53 q 540 -14 656 -14 m 519 1069 l 371 1183 l 388 1201 l 550 1088 l 529 1088 l 690 1201 l 707 1183 l 558 1069 l 519 1069 m 539 1263 q 510 1274 519 1263 q 500 1303 500 1285 q 510 1331 500 1319 q 539 1343 519 1343 q 567 1332 557 1343 q 578 1303 578 1321 q 568 1274 578 1285 q 539 1263 558 1263 z "},"Ş":{"ha":1029,"x_min":121,"x_max":917,"o":"m 540 -14 q 370 6 449 -14 q 229 64 292 25 q 121 160 167 103 l 140 186 q 307 59 206 101 q 540 17 408 17 q 721 46 643 17 q 843 127 799 75 q 886 247 888 179 q 863 326 886 293 q 803 381 840 358 q 717 420 765 404 q 615 449 668 436 q 510 471 561 461 q 376 502 440 485 q 260 547 311 519 q 181 617 210 575 q 151 725 151 660 q 179 833 151 783 q 257 916 207 882 q 374 968 307 950 q 521 986 442 986 q 671 971 604 986 q 789 924 738 956 q 879 849 840 893 l 858 826 q 771 897 821 868 q 659 940 721 925 q 521 956 597 956 q 350 927 426 956 q 228 848 274 899 q 182 729 182 797 q 211 632 182 671 q 288 568 240 593 q 394 528 336 543 q 515 501 453 514 q 665 469 593 488 q 794 424 736 451 q 884 353 851 396 q 917 244 917 310 q 871 111 917 169 q 740 19 825 53 q 540 -14 656 -14 m 456 -315 l 449 -289 q 536 -274 494 -282 q 603 -247 578 -265 q 629 -194 629 -228 q 612 -151 629 -167 q 563 -129 594 -136 q 490 -122 531 -122 l 475 -100 l 549 0 l 579 0 l 506 -96 q 618 -122 578 -97 q 658 -193 658 -147 q 639 -253 658 -232 q 589 -287 619 -275 q 523 -306 558 -300 q 456 -315 488 -311 z "},"Ŝ":{"ha":1029,"x_min":121,"x_max":917,"o":"m 540 -14 q 370 6 449 -14 q 229 64 292 25 q 121 160 167 103 l 140 186 q 307 59 206 101 q 540 17 408 17 q 721 46 643 17 q 843 127 799 75 q 886 247 888 179 q 863 326 886 293 q 803 381 840 358 q 717 420 765 404 q 615 449 668 436 q 510 471 561 461 q 376 502 440 485 q 260 547 311 519 q 181 617 210 575 q 151 725 151 660 q 179 833 151 783 q 257 916 207 882 q 374 968 307 950 q 521 986 442 986 q 671 971 604 986 q 789 924 738 956 q 879 849 840 893 l 858 826 q 771 897 821 868 q 659 940 721 925 q 521 956 597 956 q 350 927 426 956 q 228 848 274 899 q 182 729 182 797 q 211 632 182 671 q 288 568 240 593 q 394 528 336 543 q 515 501 453 514 q 665 469 593 488 q 794 424 736 451 q 884 353 851 396 q 917 244 917 310 q 871 111 917 169 q 740 19 825 53 q 540 -14 656 -14 m 388 1069 l 371 1088 l 519 1201 l 558 1201 l 707 1088 l 690 1069 l 529 1183 l 550 1183 l 388 1069 z "},"Ș":{"ha":1029,"x_min":121,"x_max":917,"o":"m 540 -14 q 370 6 449 -14 q 229 64 292 25 q 121 160 167 103 l 140 186 q 307 59 206 101 q 540 17 408 17 q 721 46 643 17 q 843 127 799 75 q 886 247 888 179 q 863 326 886 293 q 803 381 840 358 q 717 420 765 404 q 615 449 668 436 q 510 471 561 461 q 376 502 440 485 q 260 547 311 519 q 181 617 210 575 q 151 725 151 660 q 179 833 151 783 q 257 916 207 882 q 374 968 307 950 q 521 986 442 986 q 671 971 604 986 q 789 924 738 956 q 879 849 840 893 l 858 826 q 771 897 821 868 q 659 940 721 925 q 521 956 597 956 q 350 927 426 956 q 228 848 274 899 q 182 729 182 797 q 211 632 182 671 q 288 568 240 593 q 394 528 336 543 q 515 501 453 514 q 665 469 593 488 q 794 424 736 451 q 884 353 851 396 q 917 244 917 310 q 871 111 917 169 q 740 19 825 53 q 540 -14 656 -14 m 540 -283 l 522 -265 q 543 -246 532 -256 q 562 -225 554 -236 q 569 -200 569 -214 q 565 -182 569 -189 q 546 -168 561 -175 q 525 -151 532 -161 q 518 -128 518 -142 q 528 -105 518 -115 q 556 -94 538 -94 q 592 -112 579 -94 q 606 -158 606 -129 q 603 -192 606 -176 q 593 -223 600 -208 q 573 -252 586 -237 q 540 -283 560 -267 z "},"Ṡ":{"ha":1029,"x_min":121,"x_max":917,"o":"m 540 -14 q 370 6 449 -14 q 229 64 292 25 q 121 160 167 103 l 140 186 q 307 59 206 101 q 540 17 408 17 q 721 46 643 17 q 843 127 799 75 q 886 247 888 179 q 863 326 886 293 q 803 381 840 358 q 717 420 765 404 q 615 449 668 436 q 510 471 561 461 q 376 502 440 485 q 260 547 311 519 q 181 617 210 575 q 151 725 151 660 q 179 833 151 783 q 257 916 207 882 q 374 968 307 950 q 521 986 442 986 q 671 971 604 986 q 789 924 738 956 q 879 849 840 893 l 858 826 q 771 897 821 868 q 659 940 721 925 q 521 956 597 956 q 350 927 426 956 q 228 848 274 899 q 182 729 182 797 q 211 632 182 671 q 288 568 240 593 q 394 528 336 543 q 515 501 453 514 q 665 469 593 488 q 794 424 736 451 q 884 353 851 396 q 917 244 917 310 q 871 111 917 169 q 740 19 825 53 q 540 -14 656 -14 m 539 1096 q 510 1107 519 1096 q 500 1136 500 1118 q 510 1165 500 1153 q 539 1176 519 1176 q 567 1165 557 1176 q 578 1136 578 1154 q 568 1107 578 1118 q 539 1096 558 1096 z "},"Ṣ":{"ha":1029,"x_min":121,"x_max":917,"o":"m 540 -14 q 370 6 449 -14 q 229 64 292 25 q 121 160 167 103 l 140 186 q 307 59 206 101 q 540 17 408 17 q 721 46 643 17 q 843 127 799 75 q 886 247 888 179 q 863 326 886 293 q 803 381 840 358 q 717 420 765 404 q 615 449 668 436 q 510 471 561 461 q 376 502 440 485 q 260 547 311 519 q 181 617 210 575 q 151 725 151 660 q 179 833 151 783 q 257 916 207 882 q 374 968 307 950 q 521 986 442 986 q 671 971 604 986 q 789 924 738 956 q 879 849 840 893 l 858 826 q 771 897 821 868 q 659 940 721 925 q 521 956 597 956 q 350 927 426 956 q 228 848 274 899 q 182 729 182 797 q 211 632 182 671 q 288 568 240 593 q 394 528 336 543 q 515 501 453 514 q 665 469 593 488 q 794 424 736 451 q 884 353 851 396 q 917 244 917 310 q 871 111 917 169 q 740 19 825 53 q 540 -14 656 -14 m 564 -193 q 534 -181 543 -193 q 525 -153 525 -169 q 533 -126 525 -139 q 564 -112 542 -112 q 593 -124 583 -112 q 603 -153 603 -136 q 594 -181 603 -168 q 564 -193 586 -193 z "},"Ṩ":{"ha":1029,"x_min":121,"x_max":917,"o":"m 540 -14 q 370 6 449 -14 q 229 64 292 25 q 121 160 167 103 l 140 186 q 307 59 206 101 q 540 17 408 17 q 721 46 643 17 q 843 127 799 75 q 886 247 888 179 q 863 326 886 293 q 803 381 840 358 q 717 420 765 404 q 615 449 668 436 q 510 471 561 461 q 376 502 440 485 q 260 547 311 519 q 181 617 210 575 q 151 725 151 660 q 179 833 151 783 q 257 916 207 882 q 374 968 307 950 q 521 986 442 986 q 671 971 604 986 q 789 924 738 956 q 879 849 840 893 l 858 826 q 771 897 821 868 q 659 940 721 925 q 521 956 597 956 q 350 927 426 956 q 228 848 274 899 q 182 729 182 797 q 211 632 182 671 q 288 568 240 593 q 394 528 336 543 q 515 501 453 514 q 665 469 593 488 q 794 424 736 451 q 884 353 851 396 q 917 244 917 310 q 871 111 917 169 q 740 19 825 53 q 540 -14 656 -14 m 564 -193 q 534 -181 543 -193 q 525 -153 525 -169 q 533 -126 525 -139 q 564 -112 542 -112 q 593 -124 583 -112 q 603 -153 603 -136 q 594 -181 603 -168 q 564 -193 586 -193 m 539 1096 q 510 1107 519 1096 q 500 1136 500 1118 q 510 1165 500 1153 q 539 1176 519 1176 q 567 1165 557 1176 q 578 1136 578 1154 q 568 1107 578 1118 q 539 1096 558 1096 z "},"ẞ":{"ha":1236,"x_min":218,"x_max":1124,"o":"m 790 -14 q 676 1 733 -14 q 566 45 618 17 q 471 113 514 74 l 492 135 q 635 47 557 76 q 793 17 714 17 q 1014 80 935 17 q 1093 256 1093 143 q 1062 367 1093 325 q 978 437 1031 408 q 861 492 926 465 q 735 556 782 528 q 669 613 689 583 q 650 681 650 643 q 676 753 650 721 q 748 808 701 785 q 861 846 794 831 q 1011 869 928 861 l 1011 861 q 862 930 940 904 q 681 956 783 956 q 485 928 568 954 q 351 844 403 901 q 274 697 299 786 q 249 481 250 608 l 249 0 l 218 0 l 218 486 q 266 769 218 658 q 418 933 314 881 q 690 986 522 986 q 867 960 786 986 q 1025 883 947 933 l 1029 846 q 838 814 915 836 q 721 758 760 792 q 682 681 682 725 q 700 625 682 650 q 760 575 718 600 q 871 518 801 550 q 1001 457 944 489 q 1091 380 1058 425 q 1124 261 1124 335 q 1084 110 1124 172 q 969 17 1044 49 q 790 -14 894 -14 z "},"Ə":{"ha":1244,"x_min":138,"x_max":1106,"o":"m 617 -14 q 427 24 515 -14 q 274 128 339 61 q 173 288 208 196 q 139 490 138 381 l 139 507 l 1092 507 l 1092 476 l 169 476 q 202 298 169 381 q 294 152 235 215 q 436 53 354 89 q 618 17 518 17 q 797 51 714 17 q 941 147 879 85 q 1039 294 1003 210 q 1075 483 1075 379 q 1038 677 1075 590 q 933 826 1000 764 q 778 922 867 889 q 589 956 690 956 q 465 938 525 956 q 352 888 404 921 q 257 811 300 856 l 236 831 q 335 912 279 876 q 456 967 390 947 q 593 986 521 986 q 797 949 703 986 q 960 845 890 913 q 1067 684 1029 778 q 1106 478 1106 590 q 1069 280 1106 369 q 965 124 1032 190 q 810 22 899 58 q 617 -14 721 -14 z "},"T":{"ha":888,"x_min":78,"x_max":810,"o":"m 429 0 l 429 942 l 78 942 l 78 972 l 810 972 l 810 942 l 460 942 l 460 0 l 429 0 z "},"Ŧ":{"ha":888,"x_min":78,"x_max":810,"o":"m 203 474 l 203 499 l 685 499 l 685 474 l 203 474 m 429 0 l 429 942 l 78 942 l 78 972 l 810 972 l 810 942 l 460 942 l 460 0 l 429 0 z "},"Ť":{"ha":888,"x_min":78,"x_max":810,"o":"m 429 0 l 429 942 l 78 942 l 78 972 l 810 972 l 810 942 l 460 942 l 460 0 l 429 0 m 425 1069 l 276 1183 l 293 1201 l 456 1088 l 435 1088 l 596 1201 l 613 1183 l 464 1069 l 425 1069 z "},"Ţ":{"ha":888,"x_min":78,"x_max":810,"o":"m 429 0 l 429 942 l 78 942 l 78 972 l 810 972 l 810 942 l 460 942 l 460 0 l 429 0 m 336 -315 l 329 -289 q 417 -274 375 -282 q 484 -247 458 -265 q 510 -194 510 -228 q 492 -151 510 -167 q 443 -129 475 -136 q 371 -122 411 -122 l 356 -100 l 429 0 l 460 0 l 386 -96 q 499 -122 458 -97 q 539 -193 539 -147 q 519 -253 539 -232 q 469 -287 500 -275 q 403 -306 439 -300 q 336 -315 368 -311 z "},"Ț":{"ha":888,"x_min":78,"x_max":810,"o":"m 429 0 l 429 942 l 78 942 l 78 972 l 810 972 l 810 942 l 460 942 l 460 0 l 429 0 m 424 -283 l 406 -265 q 426 -246 415 -256 q 445 -225 438 -236 q 453 -200 453 -214 q 449 -182 453 -189 q 429 -168 444 -175 q 408 -151 415 -161 q 401 -128 401 -142 q 411 -105 401 -115 q 439 -94 421 -94 q 476 -112 463 -94 q 489 -158 489 -129 q 486 -192 489 -176 q 476 -223 483 -208 q 456 -252 469 -237 q 424 -283 443 -267 z "},"Ṭ":{"ha":888,"x_min":78,"x_max":810,"o":"m 429 0 l 429 942 l 78 942 l 78 972 l 810 972 l 810 942 l 460 942 l 460 0 l 429 0 m 444 -193 q 415 -181 424 -193 q 406 -153 406 -169 q 414 -126 406 -139 q 444 -112 422 -112 q 474 -124 464 -112 q 483 -153 483 -136 q 475 -181 483 -168 q 444 -193 467 -193 z "},"Ṯ":{"ha":888,"x_min":78,"x_max":810,"o":"m 429 0 l 429 942 l 78 942 l 78 972 l 810 972 l 810 942 l 460 942 l 460 0 l 429 0 m 257 -168 l 257 -137 l 633 -137 l 633 -168 l 257 -168 z "},"U":{"ha":1269,"x_min":217,"x_max":1053,"o":"m 629 -8 q 413 47 506 -8 q 268 202 319 103 q 217 426 217 301 l 217 972 l 247 972 l 247 433 q 296 219 247 311 q 431 75 344 126 q 629 24 517 24 q 835 75 746 24 q 973 219 924 126 q 1022 433 1022 311 l 1022 972 l 1053 972 l 1053 425 q 1000 201 1053 300 q 851 47 947 103 q 629 -8 756 -8 z "},"Ú":{"ha":1269,"x_min":217,"x_max":1053,"o":"m 629 -8 q 413 47 506 -8 q 268 202 319 103 q 217 426 217 301 l 217 972 l 247 972 l 247 433 q 296 219 247 311 q 431 75 344 126 q 629 24 517 24 q 835 75 746 24 q 973 219 924 126 q 1022 433 1022 311 l 1022 972 l 1053 972 l 1053 425 q 1000 201 1053 300 q 851 47 947 103 q 629 -8 756 -8 m 546 1061 l 533 1083 l 742 1211 l 760 1181 l 546 1061 z "},"Ŭ":{"ha":1269,"x_min":217,"x_max":1053,"o":"m 629 -8 q 413 47 506 -8 q 268 202 319 103 q 217 426 217 301 l 217 972 l 247 972 l 247 433 q 296 219 247 311 q 431 75 344 126 q 629 24 517 24 q 835 75 746 24 q 973 219 924 126 q 1022 433 1022 311 l 1022 972 l 1053 972 l 1053 425 q 1000 201 1053 300 q 851 47 947 103 q 629 -8 756 -8 m 635 1058 q 550 1078 588 1058 q 488 1132 513 1097 q 451 1211 463 1167 l 482 1214 q 538 1123 496 1158 q 635 1088 579 1088 q 732 1123 689 1088 q 788 1214 775 1158 l 818 1211 q 783 1132 808 1167 q 719 1078 757 1097 q 635 1058 682 1058 z "},"Ǔ":{"ha":1269,"x_min":217,"x_max":1053,"o":"m 629 -8 q 413 47 506 -8 q 268 202 319 103 q 217 426 217 301 l 217 972 l 247 972 l 247 433 q 296 219 247 311 q 431 75 344 126 q 629 24 517 24 q 835 75 746 24 q 973 219 924 126 q 1022 433 1022 311 l 1022 972 l 1053 972 l 1053 425 q 1000 201 1053 300 q 851 47 947 103 q 629 -8 756 -8 m 615 1069 l 467 1183 l 483 1201 l 646 1088 l 625 1088 l 786 1201 l 803 1183 l 654 1069 l 615 1069 z "},"Û":{"ha":1269,"x_min":217,"x_max":1053,"o":"m 629 -8 q 413 47 506 -8 q 268 202 319 103 q 217 426 217 301 l 217 972 l 247 972 l 247 433 q 296 219 247 311 q 431 75 344 126 q 629 24 517 24 q 835 75 746 24 q 973 219 924 126 q 1022 433 1022 311 l 1022 972 l 1053 972 l 1053 425 q 1000 201 1053 300 q 851 47 947 103 q 629 -8 756 -8 m 483 1069 l 467 1088 l 615 1201 l 654 1201 l 803 1088 l 786 1069 l 625 1183 l 646 1183 l 483 1069 z "},"Ȕ":{"ha":1269,"x_min":217,"x_max":1053,"o":"m 629 -8 q 413 47 506 -8 q 268 202 319 103 q 217 426 217 301 l 217 972 l 247 972 l 247 433 q 296 219 247 311 q 431 75 344 126 q 629 24 517 24 q 835 75 746 24 q 973 219 924 126 q 1022 433 1022 311 l 1022 972 l 1053 972 l 1053 425 q 1000 201 1053 300 q 851 47 947 103 q 629 -8 756 -8 m 731 1057 l 519 1183 l 536 1214 l 743 1079 l 731 1057 m 543 1057 l 332 1183 l 349 1214 l 556 1079 l 543 1057 z "},"Ü":{"ha":1269,"x_min":217,"x_max":1053,"o":"m 629 -8 q 413 47 506 -8 q 268 202 319 103 q 217 426 217 301 l 217 972 l 247 972 l 247 433 q 296 219 247 311 q 431 75 344 126 q 629 24 517 24 q 835 75 746 24 q 973 219 924 126 q 1022 433 1022 311 l 1022 972 l 1053 972 l 1053 425 q 1000 201 1053 300 q 851 47 947 103 q 629 -8 756 -8 m 739 1099 q 712 1109 722 1099 q 701 1136 701 1119 q 711 1163 701 1151 q 739 1174 721 1174 q 767 1163 758 1174 q 776 1136 776 1153 q 767 1109 776 1119 q 739 1099 758 1099 m 531 1099 q 503 1109 514 1099 q 493 1136 493 1119 q 503 1163 493 1151 q 531 1174 513 1174 q 559 1163 550 1174 q 568 1136 568 1153 q 559 1109 568 1119 q 531 1099 550 1099 z "},"Ụ":{"ha":1269,"x_min":217,"x_max":1053,"o":"m 629 -8 q 413 47 506 -8 q 268 202 319 103 q 217 426 217 301 l 217 972 l 247 972 l 247 433 q 296 219 247 311 q 431 75 344 126 q 629 24 517 24 q 835 75 746 24 q 973 219 924 126 q 1022 433 1022 311 l 1022 972 l 1053 972 l 1053 425 q 1000 201 1053 300 q 851 47 947 103 q 629 -8 756 -8 m 635 -193 q 605 -181 614 -193 q 596 -153 596 -169 q 604 -126 596 -139 q 635 -112 613 -112 q 664 -124 654 -112 q 674 -153 674 -136 q 665 -181 674 -168 q 635 -193 657 -193 z "},"Ù":{"ha":1269,"x_min":217,"x_max":1053,"o":"m 629 -8 q 413 47 506 -8 q 268 202 319 103 q 217 426 217 301 l 217 972 l 247 972 l 247 433 q 296 219 247 311 q 431 75 344 126 q 629 24 517 24 q 835 75 746 24 q 973 219 924 126 q 1022 433 1022 311 l 1022 972 l 1053 972 l 1053 425 q 1000 201 1053 300 q 851 47 947 103 q 629 -8 756 -8 m 724 1061 l 510 1181 l 528 1211 l 736 1083 l 724 1061 z "},"Ủ":{"ha":1269,"x_min":217,"x_max":1053,"o":"m 629 -8 q 413 47 506 -8 q 268 202 319 103 q 217 426 217 301 l 217 972 l 247 972 l 247 433 q 296 219 247 311 q 431 75 344 126 q 629 24 517 24 q 835 75 746 24 q 973 219 924 126 q 1022 433 1022 311 l 1022 972 l 1053 972 l 1053 425 q 1000 201 1053 300 q 851 47 947 103 q 629 -8 756 -8 m 622 1063 q 617 1075 619 1069 q 614 1089 614 1081 q 629 1121 614 1108 q 663 1144 644 1133 q 698 1167 683 1157 q 713 1196 713 1178 q 688 1226 713 1217 q 628 1236 664 1236 q 582 1233 606 1236 q 532 1219 558 1229 l 522 1247 q 572 1262 546 1257 q 626 1267 597 1267 q 714 1247 681 1267 q 747 1196 747 1228 q 727 1154 747 1169 q 686 1126 707 1139 q 659 1108 671 1117 q 647 1088 647 1099 q 649 1078 647 1082 q 653 1069 651 1074 l 622 1063 z "},"Ư":{"ha":1215,"x_min":217,"x_max":1199,"o":"m 629 -8 q 413 47 506 -8 q 268 202 319 103 q 217 426 217 301 l 217 972 l 247 972 l 247 433 q 296 219 247 311 q 431 75 344 126 q 629 24 517 24 q 835 75 746 24 q 973 219 924 126 q 1022 433 1022 311 l 1022 972 l 1036 972 q 1136 1006 1104 972 q 1168 1110 1168 1040 l 1199 1110 q 1178 1015 1199 1051 q 1122 960 1158 978 q 1035 943 1086 943 l 1053 964 l 1053 425 q 1000 201 1053 300 q 851 47 947 103 q 629 -8 756 -8 z "},"Ứ":{"ha":1215,"x_min":217,"x_max":1199,"o":"m 629 -8 q 413 47 506 -8 q 268 202 319 103 q 217 426 217 301 l 217 972 l 247 972 l 247 433 q 296 219 247 311 q 431 75 344 126 q 629 24 517 24 q 835 75 746 24 q 973 219 924 126 q 1022 433 1022 311 l 1022 972 l 1036 972 q 1136 1006 1104 972 q 1168 1110 1168 1040 l 1199 1110 q 1178 1015 1199 1051 q 1122 960 1158 978 q 1035 943 1086 943 l 1053 964 l 1053 425 q 1000 201 1053 300 q 851 47 947 103 q 629 -8 756 -8 m 546 1061 l 533 1083 l 742 1211 l 760 1181 l 546 1061 z "},"Ự":{"ha":1215,"x_min":217,"x_max":1199,"o":"m 629 -8 q 413 47 506 -8 q 268 202 319 103 q 217 426 217 301 l 217 972 l 247 972 l 247 433 q 296 219 247 311 q 431 75 344 126 q 629 24 517 24 q 835 75 746 24 q 973 219 924 126 q 1022 433 1022 311 l 1022 972 l 1036 972 q 1136 1006 1104 972 q 1168 1110 1168 1040 l 1199 1110 q 1178 1015 1199 1051 q 1122 960 1158 978 q 1035 943 1086 943 l 1053 964 l 1053 425 q 1000 201 1053 300 q 851 47 947 103 q 629 -8 756 -8 m 635 -193 q 605 -181 614 -193 q 596 -153 596 -169 q 604 -126 596 -139 q 635 -112 613 -112 q 664 -124 654 -112 q 674 -153 674 -136 q 665 -181 674 -168 q 635 -193 657 -193 z "},"Ừ":{"ha":1215,"x_min":217,"x_max":1199,"o":"m 629 -8 q 413 47 506 -8 q 268 202 319 103 q 217 426 217 301 l 217 972 l 247 972 l 247 433 q 296 219 247 311 q 431 75 344 126 q 629 24 517 24 q 835 75 746 24 q 973 219 924 126 q 1022 433 1022 311 l 1022 972 l 1036 972 q 1136 1006 1104 972 q 1168 1110 1168 1040 l 1199 1110 q 1178 1015 1199 1051 q 1122 960 1158 978 q 1035 943 1086 943 l 1053 964 l 1053 425 q 1000 201 1053 300 q 851 47 947 103 q 629 -8 756 -8 m 724 1061 l 510 1181 l 528 1211 l 736 1083 l 724 1061 z "},"Ử":{"ha":1215,"x_min":217,"x_max":1199,"o":"m 629 -8 q 413 47 506 -8 q 268 202 319 103 q 217 426 217 301 l 217 972 l 247 972 l 247 433 q 296 219 247 311 q 431 75 344 126 q 629 24 517 24 q 835 75 746 24 q 973 219 924 126 q 1022 433 1022 311 l 1022 972 l 1036 972 q 1136 1006 1104 972 q 1168 1110 1168 1040 l 1199 1110 q 1178 1015 1199 1051 q 1122 960 1158 978 q 1035 943 1086 943 l 1053 964 l 1053 425 q 1000 201 1053 300 q 851 47 947 103 q 629 -8 756 -8 m 622 1063 q 617 1075 619 1069 q 614 1089 614 1081 q 629 1121 614 1108 q 663 1144 644 1133 q 698 1167 683 1157 q 713 1196 713 1178 q 688 1226 713 1217 q 628 1236 664 1236 q 582 1233 606 1236 q 532 1219 558 1229 l 522 1247 q 572 1262 546 1257 q 626 1267 597 1267 q 714 1247 681 1267 q 747 1196 747 1228 q 727 1154 747 1169 q 686 1126 707 1139 q 659 1108 671 1117 q 647 1088 647 1099 q 649 1078 647 1082 q 653 1069 651 1074 l 622 1063 z "},"Ữ":{"ha":1215,"x_min":217,"x_max":1199,"o":"m 629 -8 q 413 47 506 -8 q 268 202 319 103 q 217 426 217 301 l 217 972 l 247 972 l 247 433 q 296 219 247 311 q 431 75 344 126 q 629 24 517 24 q 835 75 746 24 q 973 219 924 126 q 1022 433 1022 311 l 1022 972 l 1036 972 q 1136 1006 1104 972 q 1168 1110 1168 1040 l 1199 1110 q 1178 1015 1199 1051 q 1122 960 1158 978 q 1035 943 1086 943 l 1053 964 l 1053 425 q 1000 201 1053 300 q 851 47 947 103 q 629 -8 756 -8 m 718 1089 q 679 1095 701 1089 q 604 1128 657 1101 q 574 1142 596 1132 q 532 1153 553 1153 q 497 1137 513 1153 q 481 1090 481 1121 l 450 1090 q 474 1158 450 1133 q 529 1183 499 1183 q 592 1169 563 1183 q 646 1143 621 1156 q 692 1124 679 1128 q 715 1119 706 1119 q 764 1134 742 1119 q 788 1182 786 1149 l 818 1182 q 804 1132 818 1153 q 767 1100 790 1111 q 718 1089 744 1089 z "},"Ű":{"ha":1269,"x_min":217,"x_max":1053,"o":"m 629 -8 q 413 47 506 -8 q 268 202 319 103 q 217 426 217 301 l 217 972 l 247 972 l 247 433 q 296 219 247 311 q 431 75 344 126 q 629 24 517 24 q 835 75 746 24 q 973 219 924 126 q 1022 433 1022 311 l 1022 972 l 1053 972 l 1053 425 q 1000 201 1053 300 q 851 47 947 103 q 629 -8 756 -8 m 508 1057 l 496 1079 l 703 1214 l 719 1183 l 508 1057 m 696 1057 l 683 1079 l 890 1214 l 907 1183 l 696 1057 z "},"Ȗ":{"ha":1269,"x_min":217,"x_max":1053,"o":"m 629 -8 q 413 47 506 -8 q 268 202 319 103 q 217 426 217 301 l 217 972 l 247 972 l 247 433 q 296 219 247 311 q 431 75 344 126 q 629 24 517 24 q 835 75 746 24 q 973 219 924 126 q 1022 433 1022 311 l 1022 972 l 1053 972 l 1053 425 q 1000 201 1053 300 q 851 47 947 103 q 629 -8 756 -8 m 482 1065 l 451 1068 q 488 1148 463 1114 q 551 1201 513 1182 q 635 1221 589 1221 q 719 1201 682 1221 q 782 1148 757 1182 q 818 1068 807 1114 l 788 1065 q 732 1157 774 1122 q 635 1192 690 1192 q 538 1157 581 1192 q 482 1065 494 1122 z "},"Ū":{"ha":1269,"x_min":217,"x_max":1053,"o":"m 629 -8 q 413 47 506 -8 q 268 202 319 103 q 217 426 217 301 l 217 972 l 247 972 l 247 433 q 296 219 247 311 q 431 75 344 126 q 629 24 517 24 q 835 75 746 24 q 973 219 924 126 q 1022 433 1022 311 l 1022 972 l 1053 972 l 1053 425 q 1000 201 1053 300 q 851 47 947 103 q 629 -8 756 -8 m 447 1121 l 447 1151 l 822 1151 l 822 1121 l 447 1121 z "},"Ṻ":{"ha":1269,"x_min":217,"x_max":1053,"o":"m 629 -8 q 413 47 506 -8 q 268 202 319 103 q 217 426 217 301 l 217 972 l 247 972 l 247 433 q 296 219 247 311 q 431 75 344 126 q 629 24 517 24 q 835 75 746 24 q 973 219 924 126 q 1022 433 1022 311 l 1022 972 l 1053 972 l 1053 425 q 1000 201 1053 300 q 851 47 947 103 q 629 -8 756 -8 m 447 1121 l 447 1151 l 822 1151 l 822 1121 l 447 1121 m 739 1265 q 712 1276 722 1265 q 701 1303 701 1286 q 711 1329 701 1318 q 739 1340 721 1340 q 767 1330 758 1340 q 776 1303 776 1319 q 767 1276 776 1286 q 739 1265 758 1265 m 531 1265 q 503 1276 514 1265 q 493 1303 493 1286 q 503 1329 493 1318 q 531 1340 513 1340 q 559 1330 550 1340 q 568 1303 568 1319 q 559 1276 568 1286 q 531 1265 550 1265 z "},"Ų":{"ha":1269,"x_min":217,"x_max":1053,"o":"m 754 -328 q 656 -287 696 -328 q 615 -187 615 -247 q 631 -112 615 -147 q 676 -44 646 -78 q 751 19 707 -11 q 856 79 796 49 l 863 54 q 763 -6 804 25 q 696 -65 722 -36 q 658 -123 669 -93 q 646 -183 646 -153 q 677 -265 646 -233 q 754 -297 708 -297 q 817 -280 790 -297 q 858 -235 843 -262 l 879 -253 q 827 -307 858 -286 q 754 -328 796 -328 m 629 -8 q 413 47 506 -8 q 268 201 319 103 q 217 426 217 300 l 217 972 l 247 972 l 247 433 q 296 219 247 311 q 431 75 344 126 q 629 24 517 24 q 835 75 746 24 q 973 219 924 126 q 1022 433 1022 311 l 1022 972 l 1053 972 l 1053 425 q 1000 201 1053 299 q 851 47 947 103 q 629 -8 756 -8 z "},"Ů":{"ha":1269,"x_min":217,"x_max":1053,"o":"m 629 -8 q 413 47 506 -8 q 268 202 319 103 q 217 426 217 301 l 217 972 l 247 972 l 247 433 q 296 219 247 311 q 431 75 344 126 q 629 24 517 24 q 835 75 746 24 q 973 219 924 126 q 1022 433 1022 311 l 1022 972 l 1053 972 l 1053 425 q 1000 201 1053 300 q 851 47 947 103 q 629 -8 756 -8 m 635 1011 q 572 1028 601 1011 q 525 1072 543 1044 q 507 1133 507 1100 q 524 1196 507 1168 q 571 1241 542 1224 q 635 1258 600 1258 q 699 1241 671 1258 q 745 1196 728 1224 q 763 1133 763 1168 q 744 1073 763 1101 q 698 1028 726 1044 q 635 1011 669 1011 m 635 1039 q 705 1067 676 1039 q 733 1133 733 1096 q 705 1204 733 1178 q 635 1231 676 1231 q 564 1203 592 1231 q 536 1133 536 1176 q 565 1067 536 1096 q 635 1039 594 1039 z "},"Ũ":{"ha":1269,"x_min":217,"x_max":1053,"o":"m 629 -8 q 413 47 506 -8 q 268 202 319 103 q 217 426 217 301 l 217 972 l 247 972 l 247 433 q 296 219 247 311 q 431 75 344 126 q 629 24 517 24 q 835 75 746 24 q 973 219 924 126 q 1022 433 1022 311 l 1022 972 l 1053 972 l 1053 425 q 1000 201 1053 300 q 851 47 947 103 q 629 -8 756 -8 m 718 1089 q 679 1095 701 1089 q 604 1128 657 1101 q 574 1142 596 1132 q 532 1153 553 1153 q 497 1137 513 1153 q 481 1090 481 1121 l 450 1090 q 474 1158 450 1133 q 529 1183 499 1183 q 592 1169 563 1183 q 646 1143 621 1156 q 692 1124 679 1128 q 715 1119 706 1119 q 764 1134 742 1119 q 788 1182 786 1149 l 818 1182 q 804 1132 818 1153 q 767 1100 790 1111 q 718 1089 744 1089 z "},"Ṹ":{"ha":1269,"x_min":217,"x_max":1053,"o":"m 629 -8 q 413 47 506 -8 q 268 202 319 103 q 217 426 217 301 l 217 972 l 247 972 l 247 433 q 296 219 247 311 q 431 75 344 126 q 629 24 517 24 q 835 75 746 24 q 973 219 924 126 q 1022 433 1022 311 l 1022 972 l 1053 972 l 1053 425 q 1000 201 1053 300 q 851 47 947 103 q 629 -8 756 -8 m 718 1089 q 679 1095 701 1089 q 604 1128 657 1101 q 574 1142 596 1132 q 532 1153 553 1153 q 497 1137 513 1153 q 481 1090 481 1121 l 450 1090 q 474 1158 450 1133 q 529 1183 499 1183 q 592 1169 563 1183 q 646 1143 621 1156 q 692 1124 679 1128 q 715 1119 706 1119 q 764 1134 742 1119 q 788 1182 786 1149 l 818 1182 q 804 1132 818 1153 q 767 1100 790 1111 q 718 1089 744 1089 m 546 1228 l 533 1250 l 742 1378 l 760 1347 l 546 1228 z "},"V":{"ha":1069,"x_min":82,"x_max":988,"o":"m 514 0 l 82 972 l 118 974 l 476 153 q 503 93 492 118 q 523 53 515 68 q 535 28 531 38 q 542 13 539 19 l 526 13 q 548 56 538 35 q 569 101 558 78 q 592 151 579 125 l 953 974 l 988 972 l 554 0 l 514 0 z "},"W":{"ha":1400,"x_min":82,"x_max":1318,"o":"m 385 0 l 82 972 l 115 972 l 326 289 q 349 213 340 244 q 368 153 358 182 q 387 94 378 125 q 411 17 396 63 l 400 17 q 449 140 431 92 q 483 226 468 189 q 514 301 499 263 l 685 739 l 706 739 l 911 208 q 930 158 921 182 q 952 100 939 133 q 986 17 965 67 l 967 17 q 991 92 981 61 q 1010 144 1001 122 q 1025 188 1018 167 q 1040 233 1032 208 q 1058 292 1047 257 l 1285 972 l 1318 972 l 994 0 l 960 0 l 685 707 l 707 707 l 425 0 l 385 0 z "},"Ẃ":{"ha":1400,"x_min":82,"x_max":1318,"o":"m 385 0 l 82 972 l 115 972 l 326 289 q 349 213 340 244 q 368 153 358 182 q 387 94 378 125 q 411 17 396 63 l 400 17 q 449 140 431 92 q 483 226 468 189 q 514 301 499 263 l 685 739 l 706 739 l 911 208 q 930 158 921 182 q 952 100 939 133 q 986 17 965 67 l 967 17 q 991 92 981 61 q 1010 144 1001 122 q 1025 188 1018 167 q 1040 233 1032 208 q 1058 292 1047 257 l 1285 972 l 1318 972 l 994 0 l 960 0 l 685 707 l 707 707 l 425 0 l 385 0 m 613 1061 l 600 1083 l 808 1211 l 826 1181 l 613 1061 z "},"Ŵ":{"ha":1400,"x_min":82,"x_max":1318,"o":"m 385 0 l 82 972 l 115 972 l 326 289 q 349 213 340 244 q 368 153 358 182 q 387 94 378 125 q 411 17 396 63 l 400 17 q 449 140 431 92 q 483 226 468 189 q 514 301 499 263 l 685 739 l 706 739 l 911 208 q 930 158 921 182 q 952 100 939 133 q 986 17 965 67 l 967 17 q 991 92 981 61 q 1010 144 1001 122 q 1025 188 1018 167 q 1040 233 1032 208 q 1058 292 1047 257 l 1285 972 l 1318 972 l 994 0 l 960 0 l 685 707 l 707 707 l 425 0 l 385 0 m 547 1069 l 531 1088 l 679 1201 l 718 1201 l 867 1088 l 850 1069 l 689 1183 l 710 1183 l 547 1069 z "},"Ẅ":{"ha":1400,"x_min":82,"x_max":1318,"o":"m 385 0 l 82 972 l 115 972 l 326 289 q 349 213 340 244 q 368 153 358 182 q 387 94 378 125 q 411 17 396 63 l 400 17 q 449 140 431 92 q 483 226 468 189 q 514 301 499 263 l 685 739 l 706 739 l 911 208 q 930 158 921 182 q 952 100 939 133 q 986 17 965 67 l 967 17 q 991 92 981 61 q 1010 144 1001 122 q 1025 188 1018 167 q 1040 233 1032 208 q 1058 292 1047 257 l 1285 972 l 1318 972 l 994 0 l 960 0 l 685 707 l 707 707 l 425 0 l 385 0 m 803 1099 q 776 1109 786 1099 q 765 1136 765 1119 q 775 1163 765 1151 q 803 1174 785 1174 q 831 1163 822 1174 q 840 1136 840 1153 q 831 1109 840 1119 q 803 1099 822 1099 m 594 1099 q 567 1109 578 1099 q 557 1136 557 1119 q 567 1163 557 1151 q 594 1174 576 1174 q 623 1163 614 1174 q 632 1136 632 1153 q 623 1109 632 1119 q 594 1099 614 1099 z "},"Ẁ":{"ha":1400,"x_min":82,"x_max":1318,"o":"m 385 0 l 82 972 l 115 972 l 326 289 q 349 213 340 244 q 368 153 358 182 q 387 94 378 125 q 411 17 396 63 l 400 17 q 449 140 431 92 q 483 226 468 189 q 514 301 499 263 l 685 739 l 706 739 l 911 208 q 930 158 921 182 q 952 100 939 133 q 986 17 965 67 l 967 17 q 991 92 981 61 q 1010 144 1001 122 q 1025 188 1018 167 q 1040 233 1032 208 q 1058 292 1047 257 l 1285 972 l 1318 972 l 994 0 l 960 0 l 685 707 l 707 707 l 425 0 l 385 0 m 789 1061 l 575 1181 l 593 1211 l 801 1083 l 789 1061 z "},"X":{"ha":1026,"x_min":83,"x_max":943,"o":"m 903 0 l 497 488 l 93 972 l 133 972 l 515 511 l 943 0 l 903 0 m 83 0 l 496 507 l 518 486 l 124 0 l 83 0 m 519 489 l 497 510 l 886 972 l 926 972 l 519 489 z "},"Y":{"ha":1056,"x_min":82,"x_max":974,"o":"m 518 0 l 518 422 l 529 382 l 82 972 l 119 972 l 539 418 l 526 418 l 935 972 l 974 972 l 536 381 l 549 422 l 549 0 l 518 0 z "},"Ý":{"ha":1056,"x_min":82,"x_max":974,"o":"m 518 0 l 518 422 l 529 382 l 82 972 l 119 972 l 539 418 l 526 418 l 935 972 l 974 972 l 536 381 l 549 422 l 549 0 l 518 0 m 438 1061 l 425 1083 l 633 1211 l 651 1181 l 438 1061 z "},"Ŷ":{"ha":1056,"x_min":82,"x_max":974,"o":"m 518 0 l 518 422 l 529 382 l 82 972 l 119 972 l 539 418 l 526 418 l 935 972 l 974 972 l 536 381 l 549 422 l 549 0 l 518 0 m 376 1069 l 360 1088 l 508 1201 l 547 1201 l 696 1088 l 679 1069 l 518 1183 l 539 1183 l 376 1069 z "},"Ÿ":{"ha":1056,"x_min":82,"x_max":974,"o":"m 518 0 l 518 422 l 529 382 l 82 972 l 119 972 l 539 418 l 526 418 l 935 972 l 974 972 l 536 381 l 549 422 l 549 0 l 518 0 m 632 1099 q 605 1109 615 1099 q 594 1136 594 1119 q 604 1163 594 1151 q 632 1174 614 1174 q 660 1163 651 1174 q 669 1136 669 1153 q 660 1109 669 1119 q 632 1099 651 1099 m 424 1099 q 397 1109 407 1099 q 386 1136 386 1119 q 396 1163 386 1151 q 424 1174 406 1174 q 452 1163 443 1174 q 461 1136 461 1153 q 452 1109 461 1119 q 424 1099 443 1099 z "},"Ẏ":{"ha":1056,"x_min":82,"x_max":974,"o":"m 518 0 l 518 422 l 529 382 l 82 972 l 119 972 l 539 418 l 526 418 l 935 972 l 974 972 l 536 381 l 549 422 l 549 0 l 518 0 m 528 1096 q 499 1107 508 1096 q 489 1136 489 1118 q 499 1165 489 1153 q 528 1176 508 1176 q 556 1165 546 1176 q 567 1136 567 1154 q 557 1107 567 1118 q 528 1096 547 1096 z "},"Ỵ":{"ha":1056,"x_min":82,"x_max":974,"o":"m 518 0 l 518 422 l 529 382 l 82 972 l 119 972 l 539 418 l 526 418 l 935 972 l 974 972 l 536 381 l 549 422 l 549 0 l 518 0 m 528 -193 q 498 -181 507 -193 q 489 -153 489 -169 q 497 -126 489 -139 q 528 -112 506 -112 q 557 -124 547 -112 q 567 -153 567 -136 q 558 -181 567 -168 q 528 -193 550 -193 z "},"Ỳ":{"ha":1056,"x_min":82,"x_max":974,"o":"m 518 0 l 518 422 l 529 382 l 82 972 l 119 972 l 539 418 l 526 418 l 935 972 l 974 972 l 536 381 l 549 422 l 549 0 l 518 0 m 617 1061 l 403 1181 l 421 1211 l 629 1083 l 617 1061 z "},"Ỷ":{"ha":1056,"x_min":82,"x_max":974,"o":"m 518 0 l 518 422 l 529 382 l 82 972 l 119 972 l 539 418 l 526 418 l 935 972 l 974 972 l 536 381 l 549 422 l 549 0 l 518 0 m 515 1063 q 510 1075 513 1069 q 507 1089 507 1081 q 522 1121 507 1108 q 556 1144 538 1133 q 591 1167 576 1157 q 606 1196 606 1178 q 581 1226 606 1217 q 521 1236 557 1236 q 475 1233 499 1236 q 425 1219 451 1229 l 415 1247 q 465 1262 439 1257 q 519 1267 490 1267 q 607 1247 574 1267 q 640 1196 640 1228 q 620 1154 640 1169 q 579 1126 600 1139 q 552 1108 564 1117 q 540 1088 540 1099 q 542 1078 540 1082 q 546 1069 544 1074 l 515 1063 z "},"Ȳ":{"ha":1056,"x_min":82,"x_max":974,"o":"m 518 0 l 518 422 l 529 382 l 82 972 l 119 972 l 539 418 l 526 418 l 935 972 l 974 972 l 536 381 l 549 422 l 549 0 l 518 0 m 340 1121 l 340 1151 l 715 1151 l 715 1121 l 340 1121 z "},"Ỹ":{"ha":1056,"x_min":82,"x_max":974,"o":"m 518 0 l 518 422 l 529 382 l 82 972 l 119 972 l 539 418 l 526 418 l 935 972 l 974 972 l 536 381 l 549 422 l 549 0 l 518 0 m 611 1089 q 572 1095 594 1089 q 497 1128 550 1101 q 467 1142 489 1132 q 425 1153 446 1153 q 390 1137 406 1153 q 374 1090 374 1121 l 343 1090 q 367 1158 343 1133 q 422 1183 392 1183 q 485 1169 456 1183 q 539 1143 514 1156 q 585 1124 572 1128 q 608 1119 599 1119 q 657 1134 635 1119 q 681 1182 679 1149 l 711 1182 q 697 1132 711 1153 q 660 1100 683 1111 q 611 1089 638 1089 z "},"Z":{"ha":1056,"x_min":114,"x_max":938,"o":"m 114 0 l 114 33 l 899 961 l 903 942 l 150 942 l 150 972 l 922 972 l 922 940 l 139 14 l 139 31 l 938 31 l 938 0 l 114 0 z "},"Ź":{"ha":1056,"x_min":114,"x_max":938,"o":"m 114 0 l 114 33 l 899 961 l 903 942 l 150 942 l 150 972 l 922 972 l 922 940 l 139 14 l 139 31 l 938 31 l 938 0 l 114 0 m 436 1061 l 424 1083 l 632 1211 l 650 1181 l 436 1061 z "},"Ž":{"ha":1056,"x_min":114,"x_max":938,"o":"m 114 0 l 114 33 l 899 961 l 903 942 l 150 942 l 150 972 l 922 972 l 922 940 l 139 14 l 139 31 l 938 31 l 938 0 l 114 0 m 507 1069 l 358 1183 l 375 1201 l 538 1088 l 517 1088 l 678 1201 l 694 1183 l 546 1069 l 507 1069 z "},"Ż":{"ha":1056,"x_min":114,"x_max":938,"o":"m 114 0 l 114 33 l 899 961 l 903 942 l 150 942 l 150 972 l 922 972 l 922 940 l 139 14 l 139 31 l 938 31 l 938 0 l 114 0 m 526 1096 q 497 1107 507 1096 q 488 1136 488 1118 q 497 1165 488 1153 q 526 1176 507 1176 q 555 1165 544 1176 q 565 1136 565 1154 q 556 1107 565 1118 q 526 1096 546 1096 z "},"Ẓ":{"ha":1056,"x_min":114,"x_max":938,"o":"m 114 0 l 114 33 l 899 961 l 903 942 l 150 942 l 150 972 l 922 972 l 922 940 l 139 14 l 139 31 l 938 31 l 938 0 l 114 0 m 526 -193 q 497 -181 506 -193 q 488 -153 488 -169 q 496 -126 488 -139 q 526 -112 504 -112 q 556 -124 546 -112 q 565 -153 565 -136 q 557 -181 565 -168 q 526 -193 549 -193 z "},"a":{"ha":1110,"x_min":119,"x_max":914,"o":"m 531 -14 q 313 33 406 -14 q 169 164 219 81 q 119 357 119 247 q 173 553 119 467 q 317 690 226 640 q 524 740 408 740 q 664 717 599 740 q 778 655 729 694 q 858 565 828 615 q 893 464 889 515 l 882 465 l 885 729 l 914 729 l 914 0 l 882 0 l 882 254 l 899 271 q 858 158 890 210 q 776 67 826 106 q 664 7 726 28 q 531 -14 601 -14 m 528 17 q 710 61 631 17 q 837 183 790 106 q 883 360 883 260 q 838 539 883 460 q 710 664 792 618 q 525 710 629 710 q 331 664 415 710 q 198 538 246 618 q 150 357 150 458 q 196 181 150 258 q 326 60 242 104 q 528 17 411 17 z "},"á":{"ha":1110,"x_min":119,"x_max":914,"o":"m 531 -14 q 313 33 406 -14 q 169 164 219 81 q 119 357 119 247 q 173 553 119 467 q 317 690 226 640 q 524 740 408 740 q 664 717 599 740 q 778 655 729 694 q 858 565 828 615 q 893 464 889 515 l 882 465 l 885 729 l 914 729 l 914 0 l 882 0 l 882 254 l 899 271 q 858 158 890 210 q 776 67 826 106 q 664 7 726 28 q 531 -14 601 -14 m 528 17 q 710 61 631 17 q 837 183 790 106 q 883 360 883 260 q 838 539 883 460 q 710 664 792 618 q 525 710 629 710 q 331 664 415 710 q 198 538 246 618 q 150 357 150 458 q 196 181 150 258 q 326 60 242 104 q 528 17 411 17 m 465 849 l 451 869 l 646 1022 l 665 993 l 465 849 z "},"ă":{"ha":1110,"x_min":119,"x_max":914,"o":"m 531 -14 q 313 33 406 -14 q 169 164 219 81 q 119 357 119 247 q 173 553 119 467 q 317 690 226 640 q 524 740 408 740 q 664 717 599 740 q 778 655 729 694 q 858 565 828 615 q 893 464 889 515 l 882 465 l 885 729 l 914 729 l 914 0 l 882 0 l 882 254 l 899 271 q 858 158 890 210 q 776 67 826 106 q 664 7 726 28 q 531 -14 601 -14 m 528 17 q 710 61 631 17 q 837 183 790 106 q 883 360 883 260 q 838 539 883 460 q 710 664 792 618 q 525 710 629 710 q 331 664 415 710 q 198 538 246 618 q 150 357 150 458 q 196 181 150 258 q 326 60 242 104 q 528 17 411 17 m 531 851 q 412 896 460 851 q 347 1018 364 940 l 378 1021 q 433 917 392 954 q 531 881 475 881 q 628 917 585 881 q 683 1021 671 954 l 714 1018 q 649 896 699 940 q 531 851 600 851 z "},"ắ":{"ha":1110,"x_min":119,"x_max":914,"o":"m 531 -14 q 313 33 406 -14 q 169 164 219 81 q 119 357 119 247 q 173 553 119 467 q 317 690 226 640 q 524 740 408 740 q 664 717 599 740 q 778 655 729 694 q 858 565 828 615 q 893 464 889 515 l 882 465 l 885 729 l 914 729 l 914 0 l 882 0 l 882 254 l 899 271 q 858 158 890 210 q 776 67 826 106 q 664 7 726 28 q 531 -14 601 -14 m 528 17 q 710 61 631 17 q 837 183 790 106 q 883 360 883 260 q 838 539 883 460 q 710 664 792 618 q 525 710 629 710 q 331 664 415 710 q 198 538 246 618 q 150 357 150 458 q 196 181 150 258 q 326 60 242 104 q 528 17 411 17 m 531 851 q 412 889 460 851 q 347 990 364 926 l 378 993 q 433 910 392 940 q 531 881 475 881 q 628 910 585 881 q 683 993 671 940 l 714 990 q 649 889 699 926 q 531 851 600 851 m 528 1029 l 507 1044 l 617 1199 l 649 1175 l 528 1029 z "},"ặ":{"ha":1110,"x_min":119,"x_max":914,"o":"m 531 -14 q 313 33 406 -14 q 169 164 219 81 q 119 357 119 247 q 173 553 119 467 q 317 690 226 640 q 524 740 408 740 q 664 717 599 740 q 778 655 729 694 q 858 565 828 615 q 893 464 889 515 l 882 465 l 885 729 l 914 729 l 914 0 l 882 0 l 882 254 l 899 271 q 858 158 890 210 q 776 67 826 106 q 664 7 726 28 q 531 -14 601 -14 m 528 17 q 710 61 631 17 q 837 183 790 106 q 883 360 883 260 q 838 539 883 460 q 710 664 792 618 q 525 710 629 710 q 331 664 415 710 q 198 538 246 618 q 150 357 150 458 q 196 181 150 258 q 326 60 242 104 q 528 17 411 17 m 536 -193 q 506 -181 515 -193 q 497 -153 497 -169 q 506 -126 497 -139 q 536 -112 514 -112 q 565 -124 556 -112 q 575 -153 575 -136 q 567 -181 575 -168 q 536 -193 558 -193 m 531 851 q 412 896 460 851 q 347 1018 364 940 l 378 1021 q 433 917 392 954 q 531 881 475 881 q 628 917 585 881 q 683 1021 671 954 l 714 1018 q 649 896 699 940 q 531 851 600 851 z "},"ằ":{"ha":1110,"x_min":119,"x_max":914,"o":"m 531 -14 q 313 33 406 -14 q 169 164 219 81 q 119 357 119 247 q 173 553 119 467 q 317 690 226 640 q 524 740 408 740 q 664 717 599 740 q 778 655 729 694 q 858 565 828 615 q 893 464 889 515 l 882 465 l 885 729 l 914 729 l 914 0 l 882 0 l 882 254 l 899 271 q 858 158 890 210 q 776 67 826 106 q 664 7 726 28 q 531 -14 601 -14 m 528 17 q 710 61 631 17 q 837 183 790 106 q 883 360 883 260 q 838 539 883 460 q 710 664 792 618 q 525 710 629 710 q 331 664 415 710 q 198 538 246 618 q 150 357 150 458 q 196 181 150 258 q 326 60 242 104 q 528 17 411 17 m 531 851 q 412 889 460 851 q 347 990 364 926 l 378 993 q 433 910 392 940 q 531 881 475 881 q 628 910 585 881 q 683 993 671 940 l 714 990 q 649 889 699 926 q 531 851 600 851 m 549 1029 l 426 1174 l 458 1197 l 568 1043 l 549 1029 z "},"ẳ":{"ha":1110,"x_min":119,"x_max":914,"o":"m 531 -14 q 313 33 406 -14 q 169 164 219 81 q 119 357 119 247 q 173 553 119 467 q 317 690 226 640 q 524 740 408 740 q 664 717 599 740 q 778 655 729 694 q 858 565 828 615 q 893 464 889 515 l 882 465 l 885 729 l 914 729 l 914 0 l 882 0 l 882 254 l 899 271 q 858 158 890 210 q 776 67 826 106 q 664 7 726 28 q 531 -14 601 -14 m 528 17 q 710 61 631 17 q 837 183 790 106 q 883 360 883 260 q 838 539 883 460 q 710 664 792 618 q 525 710 629 710 q 331 664 415 710 q 198 538 246 618 q 150 357 150 458 q 196 181 150 258 q 326 60 242 104 q 528 17 411 17 m 531 851 q 412 889 460 851 q 347 990 364 926 l 378 993 q 433 910 392 940 q 531 881 475 881 q 628 910 585 881 q 683 993 671 940 l 714 990 q 649 889 699 926 q 531 851 600 851 m 521 1011 q 515 1024 518 1018 q 513 1038 513 1029 q 528 1069 513 1057 q 561 1093 543 1082 q 596 1119 581 1106 q 611 1151 611 1132 q 587 1184 611 1174 q 526 1194 563 1194 q 481 1191 504 1194 q 431 1178 457 1188 l 421 1206 q 470 1220 444 1215 q 525 1225 496 1225 q 613 1205 579 1225 q 646 1151 646 1185 q 626 1105 646 1122 q 585 1075 607 1088 q 558 1057 569 1067 q 546 1036 546 1047 q 548 1026 546 1031 q 551 1018 550 1022 l 521 1011 z "},"ẵ":{"ha":1110,"x_min":119,"x_max":914,"o":"m 531 -14 q 313 33 406 -14 q 169 164 219 81 q 119 357 119 247 q 173 553 119 467 q 317 690 226 640 q 524 740 408 740 q 664 717 599 740 q 778 655 729 694 q 858 565 828 615 q 893 464 889 515 l 882 465 l 885 729 l 914 729 l 914 0 l 882 0 l 882 254 l 899 271 q 858 158 890 210 q 776 67 826 106 q 664 7 726 28 q 531 -14 601 -14 m 528 17 q 710 61 631 17 q 837 183 790 106 q 883 360 883 260 q 838 539 883 460 q 710 664 792 618 q 525 710 629 710 q 331 664 415 710 q 198 538 246 618 q 150 357 150 458 q 196 181 150 258 q 326 60 242 104 q 528 17 411 17 m 529 851 q 410 892 458 851 q 346 990 363 933 l 376 993 q 432 914 390 947 q 529 881 474 881 q 626 914 583 881 q 682 993 669 947 l 713 990 q 648 892 697 933 q 529 851 599 851 m 625 1124 q 573 1135 599 1124 q 525 1161 547 1147 q 485 1184 504 1174 q 443 1194 465 1194 q 406 1182 422 1194 q 383 1140 390 1169 l 351 1146 q 383 1203 358 1182 q 443 1225 408 1225 q 491 1214 471 1225 q 532 1189 511 1203 q 574 1165 551 1176 q 624 1154 597 1154 q 662 1165 644 1154 q 689 1211 679 1176 l 715 1206 q 697 1160 710 1179 q 665 1133 683 1142 q 625 1124 646 1124 z "},"ǎ":{"ha":1110,"x_min":119,"x_max":914,"o":"m 531 -14 q 313 33 406 -14 q 169 164 219 81 q 119 357 119 247 q 173 553 119 467 q 317 690 226 640 q 524 740 408 740 q 664 717 599 740 q 778 655 729 694 q 858 565 828 615 q 893 464 889 515 l 882 465 l 885 729 l 914 729 l 914 0 l 882 0 l 882 254 l 899 271 q 858 158 890 210 q 776 67 826 106 q 664 7 726 28 q 531 -14 601 -14 m 528 17 q 710 61 631 17 q 837 183 790 106 q 883 360 883 260 q 838 539 883 460 q 710 664 792 618 q 525 710 629 710 q 331 664 415 710 q 198 538 246 618 q 150 357 150 458 q 196 181 150 258 q 326 60 242 104 q 528 17 411 17 m 511 863 l 363 990 l 379 1008 l 542 881 l 521 881 l 682 1008 l 699 990 l 550 863 l 511 863 z "},"â":{"ha":1110,"x_min":119,"x_max":914,"o":"m 531 -14 q 313 33 406 -14 q 169 164 219 81 q 119 357 119 247 q 173 553 119 467 q 317 690 226 640 q 524 740 408 740 q 664 717 599 740 q 778 655 729 694 q 858 565 828 615 q 893 464 889 515 l 882 465 l 885 729 l 914 729 l 914 0 l 882 0 l 882 254 l 899 271 q 858 158 890 210 q 776 67 826 106 q 664 7 726 28 q 531 -14 601 -14 m 528 17 q 710 61 631 17 q 837 183 790 106 q 883 360 883 260 q 838 539 883 460 q 710 664 792 618 q 525 710 629 710 q 331 664 415 710 q 198 538 246 618 q 150 357 150 458 q 196 181 150 258 q 326 60 242 104 q 528 17 411 17 m 379 863 l 363 881 l 511 1008 l 550 1008 l 699 881 l 682 863 l 521 990 l 542 990 l 379 863 z "},"ấ":{"ha":1110,"x_min":119,"x_max":914,"o":"m 531 -14 q 313 33 406 -14 q 169 164 219 81 q 119 357 119 247 q 173 553 119 467 q 317 690 226 640 q 524 740 408 740 q 664 717 599 740 q 778 655 729 694 q 858 565 828 615 q 893 464 889 515 l 882 465 l 885 729 l 914 729 l 914 0 l 882 0 l 882 254 l 899 271 q 858 158 890 210 q 776 67 826 106 q 664 7 726 28 q 531 -14 601 -14 m 528 17 q 710 61 631 17 q 837 183 790 106 q 883 360 883 260 q 838 539 883 460 q 710 664 792 618 q 525 710 629 710 q 331 664 415 710 q 198 538 246 618 q 150 357 150 458 q 196 181 150 258 q 326 60 242 104 q 528 17 411 17 m 379 863 l 363 881 l 511 1008 l 550 1008 l 699 881 l 682 863 l 521 990 l 542 990 l 379 863 m 690 1007 l 669 1022 l 779 1176 l 811 1153 l 690 1007 z "},"ậ":{"ha":1110,"x_min":119,"x_max":914,"o":"m 531 -14 q 313 33 406 -14 q 169 164 219 81 q 119 357 119 247 q 173 553 119 467 q 317 690 226 640 q 524 740 408 740 q 664 717 599 740 q 778 655 729 694 q 858 565 828 615 q 893 464 889 515 l 882 465 l 885 729 l 914 729 l 914 0 l 882 0 l 882 254 l 899 271 q 858 158 890 210 q 776 67 826 106 q 664 7 726 28 q 531 -14 601 -14 m 528 17 q 710 61 631 17 q 837 183 790 106 q 883 360 883 260 q 838 539 883 460 q 710 664 792 618 q 525 710 629 710 q 331 664 415 710 q 198 538 246 618 q 150 357 150 458 q 196 181 150 258 q 326 60 242 104 q 528 17 411 17 m 536 -193 q 506 -181 515 -193 q 497 -153 497 -169 q 506 -126 497 -139 q 536 -112 514 -112 q 565 -124 556 -112 q 575 -153 575 -136 q 567 -181 575 -168 q 536 -193 558 -193 m 379 863 l 363 881 l 511 1008 l 550 1008 l 699 881 l 682 863 l 521 990 l 542 990 l 379 863 z "},"ầ":{"ha":1110,"x_min":119,"x_max":914,"o":"m 531 -14 q 313 33 406 -14 q 169 164 219 81 q 119 357 119 247 q 173 553 119 467 q 317 690 226 640 q 524 740 408 740 q 664 717 599 740 q 778 655 729 694 q 858 565 828 615 q 893 464 889 515 l 882 465 l 885 729 l 914 729 l 914 0 l 882 0 l 882 254 l 899 271 q 858 158 890 210 q 776 67 826 106 q 664 7 726 28 q 531 -14 601 -14 m 528 17 q 710 61 631 17 q 837 183 790 106 q 883 360 883 260 q 838 539 883 460 q 710 664 792 618 q 525 710 629 710 q 331 664 415 710 q 198 538 246 618 q 150 357 150 458 q 196 181 150 258 q 326 60 242 104 q 528 17 411 17 m 379 863 l 363 881 l 511 1008 l 550 1008 l 699 881 l 682 863 l 521 990 l 542 990 l 379 863 m 707 1006 l 585 1150 l 617 1174 l 726 1019 l 707 1006 z "},"ẩ":{"ha":1110,"x_min":119,"x_max":914,"o":"m 531 -14 q 313 33 406 -14 q 169 164 219 81 q 119 357 119 247 q 173 553 119 467 q 317 690 226 640 q 524 740 408 740 q 664 717 599 740 q 778 655 729 694 q 858 565 828 615 q 893 464 889 515 l 882 465 l 885 729 l 914 729 l 914 0 l 882 0 l 882 254 l 899 271 q 858 158 890 210 q 776 67 826 106 q 664 7 726 28 q 531 -14 601 -14 m 528 17 q 710 61 631 17 q 837 183 790 106 q 883 360 883 260 q 838 539 883 460 q 710 664 792 618 q 525 710 629 710 q 331 664 415 710 q 198 538 246 618 q 150 357 150 458 q 196 181 150 258 q 326 60 242 104 q 528 17 411 17 m 379 863 l 363 881 l 511 1008 l 550 1008 l 699 881 l 682 863 l 521 990 l 542 990 l 379 863 m 697 1011 q 692 1024 694 1018 q 689 1038 689 1029 q 704 1069 689 1057 q 738 1093 719 1082 q 772 1119 757 1106 q 788 1151 788 1132 q 763 1184 788 1174 q 703 1194 739 1194 q 657 1191 681 1194 q 607 1178 633 1188 l 597 1206 q 647 1220 621 1215 q 701 1225 672 1225 q 789 1205 756 1225 q 822 1151 822 1185 q 803 1105 822 1122 q 761 1075 783 1088 q 734 1057 746 1067 q 722 1036 722 1047 q 724 1026 722 1031 q 728 1018 726 1022 l 697 1011 z "},"ẫ":{"ha":1110,"x_min":119,"x_max":914,"o":"m 531 -14 q 313 33 406 -14 q 169 164 219 81 q 119 357 119 247 q 173 553 119 467 q 317 690 226 640 q 524 740 408 740 q 664 717 599 740 q 778 655 729 694 q 858 565 828 615 q 893 464 889 515 l 882 465 l 885 729 l 914 729 l 914 0 l 882 0 l 882 254 l 899 271 q 858 158 890 210 q 776 67 826 106 q 664 7 726 28 q 531 -14 601 -14 m 528 17 q 710 61 631 17 q 837 183 790 106 q 883 360 883 260 q 838 539 883 460 q 710 664 792 618 q 525 710 629 710 q 331 664 415 710 q 198 538 246 618 q 150 357 150 458 q 196 181 150 258 q 326 60 242 104 q 528 17 411 17 m 375 863 l 358 881 l 507 1008 l 546 1008 l 694 881 l 678 863 l 517 990 l 538 990 l 375 863 m 622 1110 q 570 1122 596 1110 q 522 1147 544 1133 q 482 1170 501 1160 q 440 1181 463 1181 q 403 1168 419 1181 q 381 1126 388 1156 l 349 1132 q 381 1190 356 1168 q 440 1211 406 1211 q 488 1200 468 1211 q 529 1175 508 1189 q 572 1151 549 1163 q 621 1140 594 1140 q 659 1151 642 1140 q 686 1197 676 1163 l 713 1192 q 694 1147 707 1165 q 662 1119 681 1128 q 622 1110 643 1110 z "},"ȁ":{"ha":1110,"x_min":119,"x_max":914,"o":"m 531 -14 q 313 33 406 -14 q 169 164 219 81 q 119 357 119 247 q 173 553 119 467 q 317 690 226 640 q 524 740 408 740 q 664 717 599 740 q 778 655 729 694 q 858 565 828 615 q 893 464 889 515 l 882 465 l 885 729 l 914 729 l 914 0 l 882 0 l 882 254 l 899 271 q 858 158 890 210 q 776 67 826 106 q 664 7 726 28 q 531 -14 601 -14 m 528 17 q 710 61 631 17 q 837 183 790 106 q 883 360 883 260 q 838 539 883 460 q 710 664 792 618 q 525 710 629 710 q 331 664 415 710 q 198 538 246 618 q 150 357 150 458 q 196 181 150 258 q 326 60 242 104 q 528 17 411 17 m 618 849 l 418 993 l 438 1022 l 632 869 l 618 849 m 451 849 l 251 993 l 271 1022 l 465 869 l 451 849 z "},"ä":{"ha":1110,"x_min":119,"x_max":914,"o":"m 531 -14 q 313 33 406 -14 q 169 164 219 81 q 119 357 119 247 q 173 553 119 467 q 317 690 226 640 q 524 740 408 740 q 664 717 599 740 q 778 655 729 694 q 858 565 828 615 q 893 464 889 515 l 882 465 l 885 729 l 914 729 l 914 0 l 882 0 l 882 254 l 899 271 q 858 158 890 210 q 776 67 826 106 q 664 7 726 28 q 531 -14 601 -14 m 528 17 q 710 61 631 17 q 837 183 790 106 q 883 360 883 260 q 838 539 883 460 q 710 664 792 618 q 525 710 629 710 q 331 664 415 710 q 198 538 246 618 q 150 357 150 458 q 196 181 150 258 q 326 60 242 104 q 528 17 411 17 m 635 921 q 606 932 615 921 q 596 961 596 943 q 606 990 596 978 q 635 1001 615 1001 q 663 990 653 1001 q 674 961 674 979 q 664 932 674 943 q 635 921 654 921 m 426 921 q 397 932 407 921 q 388 961 388 943 q 397 990 388 978 q 426 1001 407 1001 q 455 990 444 1001 q 465 961 465 979 q 456 932 465 943 q 426 921 446 921 z "},"ạ":{"ha":1110,"x_min":119,"x_max":914,"o":"m 531 -14 q 313 33 406 -14 q 169 164 219 81 q 119 357 119 247 q 173 553 119 467 q 317 690 226 640 q 524 740 408 740 q 664 717 599 740 q 778 655 729 694 q 858 565 828 615 q 893 464 889 515 l 882 465 l 885 729 l 914 729 l 914 0 l 882 0 l 882 254 l 899 271 q 858 158 890 210 q 776 67 826 106 q 664 7 726 28 q 531 -14 601 -14 m 528 17 q 710 61 631 17 q 837 183 790 106 q 883 360 883 260 q 838 539 883 460 q 710 664 792 618 q 525 710 629 710 q 331 664 415 710 q 198 538 246 618 q 150 357 150 458 q 196 181 150 258 q 326 60 242 104 q 528 17 411 17 m 536 -193 q 506 -181 515 -193 q 497 -153 497 -169 q 506 -126 497 -139 q 536 -112 514 -112 q 565 -124 556 -112 q 575 -153 575 -136 q 567 -181 575 -168 q 536 -193 558 -193 z "},"à":{"ha":1110,"x_min":119,"x_max":914,"o":"m 531 -14 q 313 33 406 -14 q 169 164 219 81 q 119 357 119 247 q 173 553 119 467 q 317 690 226 640 q 524 740 408 740 q 664 717 599 740 q 778 655 729 694 q 858 565 828 615 q 893 464 889 515 l 882 465 l 885 729 l 914 729 l 914 0 l 882 0 l 882 254 l 899 271 q 858 158 890 210 q 776 67 826 106 q 664 7 726 28 q 531 -14 601 -14 m 528 17 q 710 61 631 17 q 837 183 790 106 q 883 360 883 260 q 838 539 883 460 q 710 664 792 618 q 525 710 629 710 q 331 664 415 710 q 198 538 246 618 q 150 357 150 458 q 196 181 150 258 q 326 60 242 104 q 528 17 411 17 m 589 849 l 389 993 l 408 1022 l 603 869 l 589 849 z "},"ả":{"ha":1110,"x_min":119,"x_max":914,"o":"m 531 -14 q 313 33 406 -14 q 169 164 219 81 q 119 357 119 247 q 173 553 119 467 q 317 690 226 640 q 524 740 408 740 q 664 717 599 740 q 778 655 729 694 q 858 565 828 615 q 893 464 889 515 l 882 465 l 885 729 l 914 729 l 914 0 l 882 0 l 882 254 l 899 271 q 858 158 890 210 q 776 67 826 106 q 664 7 726 28 q 531 -14 601 -14 m 528 17 q 710 61 631 17 q 837 183 790 106 q 883 360 883 260 q 838 539 883 460 q 710 664 792 618 q 525 710 629 710 q 331 664 415 710 q 198 538 246 618 q 150 357 150 458 q 196 181 150 258 q 326 60 242 104 q 528 17 411 17 m 518 842 q 513 854 515 849 q 510 868 510 860 q 525 900 510 888 q 558 924 540 913 q 593 949 578 936 q 608 982 608 963 q 584 1015 608 1004 q 524 1025 560 1025 q 478 1022 501 1025 q 428 1008 454 1018 l 418 1036 q 467 1051 442 1046 q 522 1056 493 1056 q 610 1035 576 1056 q 643 982 643 1015 q 624 935 643 953 q 582 906 604 918 q 555 888 567 897 q 543 867 543 878 q 545 857 543 861 q 549 849 547 853 l 518 842 z "},"ȃ":{"ha":1110,"x_min":119,"x_max":914,"o":"m 531 -14 q 313 33 406 -14 q 169 164 219 81 q 119 357 119 247 q 173 553 119 467 q 317 690 226 640 q 524 740 408 740 q 664 717 599 740 q 778 655 729 694 q 858 565 828 615 q 893 464 889 515 l 882 465 l 885 729 l 914 729 l 914 0 l 882 0 l 882 254 l 899 271 q 858 158 890 210 q 776 67 826 106 q 664 7 726 28 q 531 -14 601 -14 m 528 17 q 710 61 631 17 q 837 183 790 106 q 883 360 883 260 q 838 539 883 460 q 710 664 792 618 q 525 710 629 710 q 331 664 415 710 q 198 538 246 618 q 150 357 150 458 q 196 181 150 258 q 326 60 242 104 q 528 17 411 17 m 378 865 l 347 868 q 412 990 364 946 q 531 1035 460 1035 q 649 990 600 1035 q 714 868 699 946 l 683 865 q 628 969 671 932 q 531 1006 585 1006 q 433 969 475 1006 q 378 865 392 932 z "},"ā":{"ha":1110,"x_min":119,"x_max":914,"o":"m 531 -14 q 313 33 406 -14 q 169 164 219 81 q 119 357 119 247 q 173 553 119 467 q 317 690 226 640 q 524 740 408 740 q 664 717 599 740 q 778 655 729 694 q 858 565 828 615 q 893 464 889 515 l 882 465 l 885 729 l 914 729 l 914 0 l 882 0 l 882 254 l 899 271 q 858 158 890 210 q 776 67 826 106 q 664 7 726 28 q 531 -14 601 -14 m 528 17 q 710 61 631 17 q 837 183 790 106 q 883 360 883 260 q 838 539 883 460 q 710 664 792 618 q 525 710 629 710 q 331 664 415 710 q 198 538 246 618 q 150 357 150 458 q 196 181 150 258 q 326 60 242 104 q 528 17 411 17 m 343 921 l 343 951 l 718 951 l 718 921 l 343 921 z "},"ą":{"ha":1110,"x_min":119,"x_max":949,"o":"m 531 -14 q 313 33 406 -14 q 169 164 219 81 q 119 357 119 247 q 173 553 119 467 q 317 690 226 640 q 524 740 408 740 q 664 717 599 740 q 778 655 729 694 q 858 565 828 615 q 893 464 889 515 l 882 465 l 885 729 l 914 729 l 914 0 l 882 0 l 882 254 l 899 271 q 858 158 890 210 q 776 67 826 106 q 664 7 726 28 q 531 -14 601 -14 m 528 17 q 710 61 631 17 q 837 183 790 106 q 883 360 883 260 q 838 539 883 460 q 710 664 792 618 q 525 710 629 710 q 331 664 415 710 q 198 538 246 618 q 150 357 150 458 q 196 181 150 258 q 326 60 242 104 q 528 17 411 17 m 831 -321 q 762 -303 792 -321 q 715 -255 732 -286 q 699 -182 699 -224 q 719 -99 699 -136 q 772 -37 740 -62 q 839 4 803 -11 q 907 24 875 19 l 914 0 q 822 -34 864 -10 q 754 -95 779 -58 q 729 -182 729 -132 q 758 -259 729 -228 q 831 -290 786 -290 q 890 -272 865 -290 q 928 -228 914 -254 l 949 -246 q 921 -283 938 -265 q 881 -310 904 -300 q 831 -321 858 -321 z "},"å":{"ha":1110,"x_min":119,"x_max":914,"o":"m 531 -14 q 313 33 406 -14 q 169 164 219 81 q 119 357 119 247 q 173 553 119 467 q 317 690 226 640 q 524 740 408 740 q 664 717 599 740 q 778 655 729 694 q 858 565 828 615 q 893 464 889 515 l 882 465 l 885 729 l 914 729 l 914 0 l 882 0 l 882 254 l 899 271 q 858 158 890 210 q 776 67 826 106 q 664 7 726 28 q 531 -14 601 -14 m 528 17 q 710 61 631 17 q 837 183 790 106 q 883 360 883 260 q 838 539 883 460 q 710 664 792 618 q 525 710 629 710 q 331 664 415 710 q 198 538 246 618 q 150 357 150 458 q 196 181 150 258 q 326 60 242 104 q 528 17 411 17 m 531 825 q 468 842 497 825 q 421 886 439 858 q 403 947 403 914 q 420 1010 403 982 q 467 1055 438 1038 q 531 1072 496 1072 q 595 1055 567 1072 q 641 1010 624 1038 q 658 947 658 982 q 640 887 658 915 q 594 842 622 858 q 531 825 565 825 m 531 853 q 601 881 572 853 q 629 947 629 910 q 601 1018 629 992 q 531 1044 572 1044 q 460 1017 488 1044 q 432 947 432 990 q 461 881 432 910 q 531 853 490 853 z "},"ǻ":{"ha":1110,"x_min":119,"x_max":914,"o":"m 531 -14 q 313 33 406 -14 q 169 164 219 81 q 119 357 119 247 q 173 553 119 467 q 317 690 226 640 q 524 740 408 740 q 664 717 599 740 q 778 655 729 694 q 858 565 828 615 q 893 464 889 515 l 882 465 l 885 729 l 914 729 l 914 0 l 882 0 l 882 254 l 899 271 q 858 158 890 210 q 776 67 826 106 q 664 7 726 28 q 531 -14 601 -14 m 528 17 q 710 61 631 17 q 837 183 790 106 q 883 360 883 260 q 838 539 883 460 q 710 664 792 618 q 525 710 629 710 q 331 664 415 710 q 198 538 246 618 q 150 357 150 458 q 196 181 150 258 q 326 60 242 104 q 528 17 411 17 m 531 825 q 468 842 497 825 q 421 886 439 858 q 403 947 403 914 q 420 1010 403 982 q 467 1055 438 1038 q 531 1072 496 1072 q 595 1055 567 1072 q 641 1010 624 1038 q 658 947 658 982 q 640 887 658 915 q 594 842 622 858 q 531 825 565 825 m 531 853 q 601 881 572 853 q 629 947 629 910 q 601 1018 629 992 q 531 1044 572 1044 q 460 1017 488 1044 q 432 947 432 990 q 461 881 432 910 q 531 853 490 853 m 465 1119 l 451 1140 l 646 1293 l 665 1264 l 465 1119 z "},"ã":{"ha":1110,"x_min":119,"x_max":914,"o":"m 531 -14 q 313 33 406 -14 q 169 164 219 81 q 119 357 119 247 q 173 553 119 467 q 317 690 226 640 q 524 740 408 740 q 664 717 599 740 q 778 655 729 694 q 858 565 828 615 q 893 464 889 515 l 882 465 l 885 729 l 914 729 l 914 0 l 882 0 l 882 254 l 899 271 q 858 158 890 210 q 776 67 826 106 q 664 7 726 28 q 531 -14 601 -14 m 528 17 q 710 61 631 17 q 837 183 790 106 q 883 360 883 260 q 838 539 883 460 q 710 664 792 618 q 525 710 629 710 q 331 664 415 710 q 198 538 246 618 q 150 357 150 458 q 196 181 150 258 q 326 60 242 104 q 528 17 411 17 m 624 879 q 565 896 592 879 q 515 929 539 913 q 467 958 482 953 q 442 964 453 964 q 402 944 421 964 q 383 888 383 924 l 356 892 q 382 963 356 933 q 442 992 408 992 q 497 976 471 992 q 549 942 524 960 q 581 921 558 935 q 622 907 603 907 q 660 924 643 907 q 678 983 676 942 l 706 979 q 694 926 706 949 q 663 892 682 904 q 624 879 644 879 z "},"æ":{"ha":1679,"x_min":119,"x_max":1549,"o":"m 418 -14 q 258 14 325 -14 q 156 91 192 42 q 119 207 119 140 q 145 299 119 263 q 216 358 171 336 q 322 390 261 381 q 453 399 383 399 l 1532 399 l 1518 378 l 1518 410 q 1472 567 1518 500 q 1351 669 1426 633 q 1186 706 1275 706 q 985 663 1071 706 q 851 543 899 619 q 801 365 803 467 q 853 185 803 264 q 993 63 904 107 q 1199 18 1082 18 q 1360 44 1286 18 q 1500 118 1433 69 l 1511 89 q 1414 32 1461 54 q 1315 -2 1367 10 q 1200 -14 1263 -14 q 973 35 1069 -14 q 824 169 876 83 q 771 365 771 256 q 802 517 771 450 q 890 635 833 585 q 1021 710 946 685 q 1182 736 1096 736 q 1372 697 1289 736 q 1501 583 1454 657 q 1549 404 1549 508 l 1546 368 l 444 368 q 334 361 388 368 q 240 336 281 354 q 174 288 199 318 q 150 207 150 257 q 183 106 150 149 q 278 40 217 63 q 419 17 339 17 q 572 44 497 17 q 706 118 646 71 q 801 226 765 165 l 819 201 q 721 90 783 138 q 581 14 658 42 q 418 -14 503 -14 m 771 383 l 771 494 q 752 585 771 546 q 698 652 733 625 q 610 693 663 679 q 494 707 558 707 q 330 674 411 707 q 179 579 249 640 l 160 603 q 264 676 210 647 q 376 721 318 706 q 496 736 433 736 q 617 722 561 736 q 715 678 674 708 q 778 601 756 647 q 801 493 801 556 l 801 383 l 771 383 z "},"ǽ":{"ha":1679,"x_min":119,"x_max":1549,"o":"m 418 -14 q 258 14 325 -14 q 156 91 192 42 q 119 207 119 140 q 145 299 119 263 q 216 358 171 336 q 322 390 261 381 q 453 399 383 399 l 1532 399 l 1518 378 l 1518 410 q 1472 567 1518 500 q 1351 669 1426 633 q 1186 706 1275 706 q 985 663 1071 706 q 851 543 899 619 q 801 365 803 467 q 853 185 803 264 q 993 63 904 107 q 1199 18 1082 18 q 1360 44 1286 18 q 1500 118 1433 69 l 1511 89 q 1414 32 1461 54 q 1315 -2 1367 10 q 1200 -14 1263 -14 q 973 35 1069 -14 q 824 169 876 83 q 771 365 771 256 q 802 517 771 450 q 890 635 833 585 q 1021 710 946 685 q 1182 736 1096 736 q 1372 697 1289 736 q 1501 583 1454 657 q 1549 404 1549 508 l 1546 368 l 444 368 q 334 361 388 368 q 240 336 281 354 q 174 288 199 318 q 150 207 150 257 q 183 106 150 149 q 278 40 217 63 q 419 17 339 17 q 572 44 497 17 q 706 118 646 71 q 801 226 765 165 l 819 201 q 721 90 783 138 q 581 14 658 42 q 418 -14 503 -14 m 771 383 l 771 494 q 752 585 771 546 q 698 652 733 625 q 610 693 663 679 q 494 707 558 707 q 330 674 411 707 q 179 579 249 640 l 160 603 q 264 676 210 647 q 376 721 318 706 q 496 736 433 736 q 617 722 561 736 q 715 678 674 708 q 778 601 756 647 q 801 493 801 556 l 801 383 l 771 383 m 765 849 l 751 869 l 946 1022 l 965 993 l 765 849 z "},"b":{"ha":1117,"x_min":213,"x_max":992,"o":"m 604 -14 q 479 3 539 -14 q 371 53 419 19 q 286 135 322 86 q 231 247 250 183 l 243 244 l 240 0 l 213 0 l 213 1028 l 243 1028 l 243 479 l 229 476 q 288 590 251 542 q 372 672 324 639 q 477 723 419 706 q 600 740 535 740 q 803 692 715 740 q 942 559 892 643 q 992 365 992 475 q 940 170 992 256 q 800 35 888 85 q 604 -14 713 -14 m 603 17 q 787 60 706 17 q 915 183 868 104 q 961 365 961 263 q 915 542 961 464 q 788 665 868 619 q 601 710 707 710 q 415 665 496 710 q 288 542 333 619 q 243 365 243 464 q 290 183 244 261 q 417 60 336 104 q 603 17 497 17 z "},"c":{"ha":999,"x_min":125,"x_max":889,"o":"m 550 -14 q 329 35 425 -14 q 179 169 233 83 q 125 365 125 256 q 180 559 125 474 q 331 692 235 644 q 550 740 426 740 q 736 708 649 740 q 889 618 824 675 l 871 593 q 788 651 838 625 q 678 694 739 678 q 542 710 617 710 q 342 665 429 710 q 206 543 256 621 q 156 365 157 465 q 208 182 157 261 q 347 60 260 103 q 542 17 435 17 q 680 31 619 17 q 787 69 740 44 q 868 119 833 93 l 886 93 q 741 17 824 47 q 550 -14 658 -14 z "},"ć":{"ha":999,"x_min":125,"x_max":889,"o":"m 550 -14 q 329 35 425 -14 q 179 169 233 83 q 125 365 125 256 q 180 559 125 474 q 331 692 235 644 q 550 740 426 740 q 736 708 649 740 q 889 618 824 675 l 871 593 q 788 651 838 625 q 678 694 739 678 q 542 710 617 710 q 342 665 429 710 q 206 543 256 621 q 156 365 157 465 q 208 182 157 261 q 347 60 260 103 q 542 17 435 17 q 680 31 619 17 q 787 69 740 44 q 868 119 833 93 l 886 93 q 741 17 824 47 q 550 -14 658 -14 m 485 849 l 471 869 l 665 1022 l 685 993 l 485 849 z "},"č":{"ha":999,"x_min":125,"x_max":889,"o":"m 550 -14 q 329 35 425 -14 q 179 169 233 83 q 125 365 125 256 q 180 559 125 474 q 331 692 235 644 q 550 740 426 740 q 736 708 649 740 q 889 618 824 675 l 871 593 q 788 651 838 625 q 678 694 739 678 q 542 710 617 710 q 342 665 429 710 q 206 543 256 621 q 156 365 157 465 q 208 182 157 261 q 347 60 260 103 q 542 17 435 17 q 680 31 619 17 q 787 69 740 44 q 868 119 833 93 l 886 93 q 741 17 824 47 q 550 -14 658 -14 m 531 863 l 382 990 l 399 1008 l 561 881 l 540 881 l 701 1008 l 718 990 l 569 863 l 531 863 z "},"ç":{"ha":999,"x_min":125,"x_max":889,"o":"m 550 -14 q 329 35 425 -14 q 179 169 233 83 q 125 365 125 256 q 180 559 125 474 q 331 692 235 644 q 550 740 426 740 q 736 708 649 740 q 889 618 824 675 l 871 593 q 788 651 838 625 q 678 694 739 678 q 542 710 617 710 q 342 665 429 710 q 206 543 256 621 q 156 365 157 465 q 208 182 157 261 q 347 60 260 103 q 542 17 435 17 q 680 31 619 17 q 787 69 740 44 q 868 119 833 93 l 886 93 q 741 17 824 47 q 550 -14 658 -14 m 440 -315 l 433 -289 q 519 -274 478 -282 q 588 -247 561 -265 q 614 -194 614 -228 q 596 -151 614 -167 q 547 -129 578 -136 q 474 -122 517 -122 l 461 -100 l 533 0 l 564 0 l 492 -96 q 603 -122 564 -97 q 643 -193 643 -147 q 624 -253 643 -232 q 574 -287 604 -275 q 508 -306 544 -300 q 440 -315 472 -311 z "},"ḉ":{"ha":999,"x_min":125,"x_max":889,"o":"m 550 -14 q 329 35 425 -14 q 179 169 233 83 q 125 365 125 256 q 180 559 125 474 q 331 692 235 644 q 550 740 426 740 q 736 708 649 740 q 889 618 824 675 l 871 593 q 788 651 838 625 q 678 694 739 678 q 542 710 617 710 q 342 665 429 710 q 206 543 256 621 q 156 365 157 465 q 208 182 157 261 q 347 60 260 103 q 542 17 435 17 q 680 31 619 17 q 787 69 740 44 q 868 119 833 93 l 886 93 q 741 17 824 47 q 550 -14 658 -14 m 440 -315 l 433 -289 q 519 -274 478 -282 q 588 -247 561 -265 q 614 -194 614 -228 q 596 -151 614 -167 q 547 -129 578 -136 q 474 -122 517 -122 l 461 -100 l 533 0 l 564 0 l 492 -96 q 603 -122 564 -97 q 643 -193 643 -147 q 624 -253 643 -232 q 574 -287 604 -275 q 508 -306 544 -300 q 440 -315 472 -311 m 485 849 l 471 869 l 665 1022 l 685 993 l 485 849 z "},"ĉ":{"ha":999,"x_min":125,"x_max":889,"o":"m 550 -14 q 329 35 425 -14 q 179 169 233 83 q 125 365 125 256 q 180 559 125 474 q 331 692 235 644 q 550 740 426 740 q 736 708 649 740 q 889 618 824 675 l 871 593 q 788 651 838 625 q 678 694 739 678 q 542 710 617 710 q 342 665 429 710 q 206 543 256 621 q 156 365 157 465 q 208 182 157 261 q 347 60 260 103 q 542 17 435 17 q 680 31 619 17 q 787 69 740 44 q 868 119 833 93 l 886 93 q 741 17 824 47 q 550 -14 658 -14 m 399 863 l 382 881 l 531 1008 l 569 1008 l 718 881 l 701 863 l 540 990 l 561 990 l 399 863 z "},"ċ":{"ha":999,"x_min":125,"x_max":889,"o":"m 550 -14 q 329 35 425 -14 q 179 169 233 83 q 125 365 125 256 q 180 559 125 474 q 331 692 235 644 q 550 740 426 740 q 736 708 649 740 q 889 618 824 675 l 871 593 q 788 651 838 625 q 678 694 739 678 q 542 710 617 710 q 342 665 429 710 q 206 543 256 621 q 156 365 157 465 q 208 182 157 261 q 347 60 260 103 q 542 17 435 17 q 680 31 619 17 q 787 69 740 44 q 868 119 833 93 l 886 93 q 741 17 824 47 q 550 -14 658 -14 m 550 921 q 521 932 531 921 q 511 961 511 943 q 521 990 511 978 q 550 1001 531 1001 q 578 990 568 1001 q 589 961 589 979 q 579 932 589 943 q 550 921 569 921 z "},"d":{"ha":1119,"x_min":126,"x_max":904,"o":"m 515 -14 q 316 35 404 -14 q 177 169 228 83 q 126 363 126 254 q 177 558 126 472 q 315 692 228 643 q 514 740 403 740 q 638 724 579 740 q 744 673 696 707 q 829 591 793 639 q 886 481 865 543 l 874 482 l 874 1028 l 904 1028 l 904 0 l 875 0 l 874 247 l 889 250 q 831 136 867 186 q 747 53 794 86 q 640 3 699 19 q 515 -14 582 -14 m 515 17 q 701 60 619 17 q 828 183 782 104 q 874 365 874 261 q 828 541 874 463 q 703 665 783 619 q 514 710 622 710 q 330 665 411 710 q 203 542 249 621 q 157 363 157 463 q 203 183 157 261 q 331 61 250 106 q 515 17 413 17 z "},"ð":{"ha":1057,"x_min":125,"x_max":931,"o":"m 525 -14 q 318 35 408 -14 q 176 169 228 83 q 125 365 125 256 q 153 513 125 446 q 235 630 182 581 q 361 706 289 679 q 519 732 433 732 q 701 697 619 732 q 835 606 782 663 q 904 485 889 550 l 888 481 q 866 606 889 542 q 802 733 843 671 q 707 849 761 794 q 594 944 653 904 q 474 1006 535 985 l 496 1026 q 622 965 560 1007 q 740 862 685 922 q 840 724 796 801 q 907 556 883 647 q 931 361 931 464 q 878 168 931 253 q 735 35 826 83 q 525 -14 643 -14 m 525 17 q 719 61 635 17 q 851 185 803 106 q 900 365 900 264 q 851 540 900 464 q 715 658 801 615 q 517 701 628 701 q 331 658 411 701 q 203 540 250 615 q 157 365 157 464 q 204 185 157 264 q 335 61 251 106 q 525 17 418 17 m 407 813 l 401 843 l 667 896 l 685 900 l 856 935 l 863 906 l 714 876 l 693 871 l 407 813 z "},"ď":{"ha":1100,"x_min":126,"x_max":1076,"o":"m 515 -14 q 316 35 404 -14 q 177 169 228 83 q 126 363 126 254 q 177 558 126 472 q 315 692 228 643 q 514 740 403 740 q 638 724 579 740 q 744 673 696 707 q 829 591 793 639 q 886 481 865 543 l 874 482 l 874 1028 l 904 1028 l 904 0 l 875 0 l 874 247 l 889 250 q 831 136 867 186 q 747 53 794 86 q 640 3 699 19 q 515 -14 582 -14 m 515 17 q 701 60 619 17 q 828 183 782 104 q 874 365 874 261 q 828 541 874 463 q 703 665 783 619 q 514 710 622 710 q 330 665 411 710 q 203 542 249 621 q 157 363 157 463 q 203 183 157 261 q 331 61 250 106 q 515 17 413 17 m 1010 840 l 993 857 q 1012 876 1001 865 q 1031 900 1022 888 q 1040 922 1040 913 q 1035 943 1040 936 q 1015 956 1029 950 q 996 970 1003 961 q 989 993 989 979 q 999 1018 989 1008 q 1026 1028 1010 1028 q 1063 1011 1050 1028 q 1076 964 1076 994 q 1073 932 1076 949 q 1063 900 1069 915 q 1042 870 1056 885 q 1010 840 1029 856 z "},"đ":{"ha":1119,"x_min":126,"x_max":1060,"o":"m 579 867 l 579 893 l 1060 893 l 1060 867 l 579 867 m 515 -14 q 316 35 404 -14 q 177 169 228 83 q 126 363 126 254 q 177 558 126 472 q 315 692 228 643 q 514 740 403 740 q 638 724 579 740 q 744 673 696 707 q 829 591 793 639 q 886 481 865 543 l 874 482 l 874 1028 l 904 1028 l 904 0 l 875 0 l 874 247 l 889 250 q 831 136 867 186 q 747 53 794 86 q 640 3 699 19 q 515 -14 582 -14 m 515 17 q 701 60 619 17 q 828 183 782 104 q 874 365 874 261 q 828 541 874 463 q 703 665 783 619 q 514 710 622 710 q 330 665 411 710 q 203 542 249 621 q 157 363 157 463 q 203 183 157 261 q 331 61 250 106 q 515 17 413 17 z "},"ḍ":{"ha":1119,"x_min":126,"x_max":904,"o":"m 515 -14 q 316 35 404 -14 q 177 169 228 83 q 126 363 126 254 q 177 558 126 472 q 315 692 228 643 q 514 740 403 740 q 638 724 579 740 q 744 673 696 707 q 829 591 793 639 q 886 481 865 543 l 874 482 l 874 1028 l 904 1028 l 904 0 l 875 0 l 874 247 l 889 250 q 831 136 867 186 q 747 53 794 86 q 640 3 699 19 q 515 -14 582 -14 m 515 17 q 701 60 619 17 q 828 183 782 104 q 874 365 874 261 q 828 541 874 463 q 703 665 783 619 q 514 710 622 710 q 330 665 411 710 q 203 542 249 621 q 157 363 157 463 q 203 183 157 261 q 331 61 250 106 q 515 17 413 17 m 536 -193 q 506 -181 515 -193 q 497 -153 497 -169 q 506 -126 497 -139 q 536 -112 514 -112 q 565 -124 556 -112 q 575 -153 575 -136 q 567 -181 575 -168 q 536 -193 558 -193 z "},"ḏ":{"ha":1119,"x_min":126,"x_max":904,"o":"m 515 -14 q 316 35 404 -14 q 177 169 228 83 q 126 363 126 254 q 177 558 126 472 q 315 692 228 643 q 514 740 403 740 q 638 724 579 740 q 744 673 696 707 q 829 591 793 639 q 886 481 865 543 l 874 482 l 874 1028 l 904 1028 l 904 0 l 875 0 l 874 247 l 889 250 q 831 136 867 186 q 747 53 794 86 q 640 3 699 19 q 515 -14 582 -14 m 515 17 q 701 60 619 17 q 828 183 782 104 q 874 365 874 261 q 828 541 874 463 q 703 665 783 619 q 514 710 622 710 q 330 665 411 710 q 203 542 249 621 q 157 363 157 463 q 203 183 157 261 q 331 61 250 106 q 515 17 413 17 m 349 -168 l 349 -137 l 725 -137 l 725 -168 l 349 -168 z "},"ǆ":{"ha":1906,"x_min":126,"x_max":1814,"o":"m 515 -14 q 316 35 404 -14 q 177 169 228 83 q 126 363 126 254 q 177 558 126 472 q 315 692 228 643 q 514 740 403 740 q 638 724 579 740 q 744 673 696 707 q 829 591 793 639 q 886 481 865 543 l 874 482 l 874 1028 l 904 1028 l 904 0 l 875 0 l 874 247 l 889 250 q 831 136 867 186 q 747 53 794 86 q 640 3 699 19 q 515 -14 582 -14 m 515 17 q 701 60 619 17 q 828 183 782 104 q 874 365 874 261 q 828 541 874 463 q 703 665 783 619 q 514 710 622 710 q 330 665 411 710 q 203 542 249 621 q 157 363 157 463 q 203 183 157 261 q 331 61 250 106 q 515 17 413 17 m 1207 0 l 1207 36 l 1767 718 l 1768 699 l 1207 699 l 1207 729 l 1785 729 l 1785 690 l 1231 17 l 1226 31 l 1814 31 l 1814 0 l 1207 0 m 1492 863 l 1343 990 l 1360 1008 l 1522 881 l 1501 881 l 1663 1008 l 1679 990 l 1531 863 l 1492 863 z "},"e":{"ha":1025,"x_min":118,"x_max":897,"o":"m 546 -14 q 320 35 417 -14 q 171 171 224 85 q 118 365 118 257 q 149 518 118 449 q 235 637 181 588 q 363 713 290 686 q 521 740 436 740 q 669 717 600 740 q 790 650 739 694 q 869 544 842 606 q 894 404 897 482 l 893 360 l 135 360 l 135 390 l 878 390 l 863 375 l 864 410 q 818 569 864 501 q 695 673 772 636 q 525 710 618 710 q 334 667 419 710 q 199 547 249 625 q 149 365 150 469 q 200 186 150 265 q 340 63 250 107 q 544 18 431 18 q 719 47 647 18 q 846 118 792 75 l 857 89 q 767 33 813 56 q 667 -1 721 11 q 546 -14 614 -14 z "},"é":{"ha":1025,"x_min":118,"x_max":897,"o":"m 546 -14 q 320 35 417 -14 q 171 171 224 85 q 118 365 118 257 q 149 518 118 449 q 235 637 181 588 q 363 713 290 686 q 521 740 436 740 q 669 717 600 740 q 790 650 739 694 q 869 544 842 606 q 894 404 897 482 l 893 360 l 135 360 l 135 390 l 878 390 l 863 375 l 864 410 q 818 569 864 501 q 695 673 772 636 q 525 710 618 710 q 334 667 419 710 q 199 547 249 625 q 149 365 150 469 q 200 186 150 265 q 340 63 250 107 q 544 18 431 18 q 719 47 647 18 q 846 118 792 75 l 857 89 q 767 33 813 56 q 667 -1 721 11 q 546 -14 614 -14 m 454 849 l 440 869 l 635 1022 l 654 993 l 454 849 z "},"ĕ":{"ha":1025,"x_min":118,"x_max":897,"o":"m 546 -14 q 320 35 417 -14 q 171 171 224 85 q 118 365 118 257 q 149 518 118 449 q 235 637 181 588 q 363 713 290 686 q 521 740 436 740 q 669 717 600 740 q 790 650 739 694 q 869 544 842 606 q 894 404 897 482 l 893 360 l 135 360 l 135 390 l 878 390 l 863 375 l 864 410 q 818 569 864 501 q 695 673 772 636 q 525 710 618 710 q 334 667 419 710 q 199 547 249 625 q 149 365 150 469 q 200 186 150 265 q 340 63 250 107 q 544 18 431 18 q 719 47 647 18 q 846 118 792 75 l 857 89 q 767 33 813 56 q 667 -1 721 11 q 546 -14 614 -14 m 521 851 q 402 896 450 851 q 338 1018 354 940 l 368 1021 q 424 917 382 954 q 521 881 465 881 q 618 917 575 881 q 674 1021 661 954 l 704 1018 q 640 896 689 940 q 521 851 590 851 z "},"ě":{"ha":1025,"x_min":118,"x_max":897,"o":"m 546 -14 q 320 35 417 -14 q 171 171 224 85 q 118 365 118 257 q 149 518 118 449 q 235 637 181 588 q 363 713 290 686 q 521 740 436 740 q 669 717 600 740 q 790 650 739 694 q 869 544 842 606 q 894 404 897 482 l 893 360 l 135 360 l 135 390 l 878 390 l 863 375 l 864 410 q 818 569 864 501 q 695 673 772 636 q 525 710 618 710 q 334 667 419 710 q 199 547 249 625 q 149 365 150 469 q 200 186 150 265 q 340 63 250 107 q 544 18 431 18 q 719 47 647 18 q 846 118 792 75 l 857 89 q 767 33 813 56 q 667 -1 721 11 q 546 -14 614 -14 m 501 863 l 353 990 l 369 1008 l 532 881 l 511 881 l 672 1008 l 689 990 l 540 863 l 501 863 z "},"ḝ":{"ha":1025,"x_min":118,"x_max":897,"o":"m 546 -14 q 320 35 417 -14 q 171 171 224 85 q 118 365 118 257 q 149 518 118 449 q 235 637 181 588 q 363 713 290 686 q 521 740 436 740 q 669 717 600 740 q 790 650 739 694 q 869 544 842 606 q 894 404 897 482 l 893 360 l 135 360 l 135 390 l 878 390 l 863 375 l 864 410 q 818 569 864 501 q 695 673 772 636 q 525 710 618 710 q 334 667 419 710 q 199 547 249 625 q 149 365 150 469 q 200 186 150 265 q 340 63 250 107 q 544 18 431 18 q 719 47 647 18 q 846 118 792 75 l 857 89 q 767 33 813 56 q 667 -1 721 11 q 546 -14 614 -14 m 438 -315 l 431 -289 q 517 -274 475 -282 q 585 -247 558 -265 q 611 -194 611 -228 q 593 -151 611 -167 q 544 -129 575 -136 q 471 -122 514 -122 l 458 -100 l 531 0 l 561 0 l 489 -96 q 601 -122 561 -97 q 640 -193 640 -147 q 621 -253 640 -232 q 572 -287 601 -275 q 506 -306 542 -300 q 438 -315 469 -311 m 521 851 q 402 896 450 851 q 338 1018 354 940 l 368 1021 q 424 917 382 954 q 521 881 465 881 q 618 917 575 881 q 674 1021 661 954 l 704 1018 q 640 896 689 940 q 521 851 590 851 z "},"ê":{"ha":1025,"x_min":118,"x_max":897,"o":"m 546 -14 q 320 35 417 -14 q 171 171 224 85 q 118 365 118 257 q 149 518 118 449 q 235 637 181 588 q 363 713 290 686 q 521 740 436 740 q 669 717 600 740 q 790 650 739 694 q 869 544 842 606 q 894 404 897 482 l 893 360 l 135 360 l 135 390 l 878 390 l 863 375 l 864 410 q 818 569 864 501 q 695 673 772 636 q 525 710 618 710 q 334 667 419 710 q 199 547 249 625 q 149 365 150 469 q 200 186 150 265 q 340 63 250 107 q 544 18 431 18 q 719 47 647 18 q 846 118 792 75 l 857 89 q 767 33 813 56 q 667 -1 721 11 q 546 -14 614 -14 m 369 863 l 353 881 l 501 1008 l 540 1008 l 689 881 l 672 863 l 511 990 l 532 990 l 369 863 z "},"ế":{"ha":1025,"x_min":118,"x_max":897,"o":"m 546 -14 q 320 35 417 -14 q 171 171 224 85 q 118 365 118 257 q 149 518 118 449 q 235 637 181 588 q 363 713 290 686 q 521 740 436 740 q 669 717 600 740 q 790 650 739 694 q 869 544 842 606 q 894 404 897 482 l 893 360 l 135 360 l 135 390 l 878 390 l 863 375 l 864 410 q 818 569 864 501 q 695 673 772 636 q 525 710 618 710 q 334 667 419 710 q 199 547 249 625 q 149 365 150 469 q 200 186 150 265 q 340 63 250 107 q 544 18 431 18 q 719 47 647 18 q 846 118 792 75 l 857 89 q 767 33 813 56 q 667 -1 721 11 q 546 -14 614 -14 m 369 863 l 353 881 l 501 1008 l 540 1008 l 689 881 l 672 863 l 511 990 l 532 990 l 369 863 m 681 1007 l 660 1022 l 769 1176 l 801 1153 l 681 1007 z "},"ệ":{"ha":1025,"x_min":118,"x_max":897,"o":"m 546 -14 q 320 35 417 -14 q 171 171 224 85 q 118 365 118 257 q 149 518 118 449 q 235 637 181 588 q 363 713 290 686 q 521 740 436 740 q 669 717 600 740 q 790 650 739 694 q 869 544 842 606 q 894 404 897 482 l 893 360 l 135 360 l 135 390 l 878 390 l 863 375 l 864 410 q 818 569 864 501 q 695 673 772 636 q 525 710 618 710 q 334 667 419 710 q 199 547 249 625 q 149 365 150 469 q 200 186 150 265 q 340 63 250 107 q 544 18 431 18 q 719 47 647 18 q 846 118 792 75 l 857 89 q 767 33 813 56 q 667 -1 721 11 q 546 -14 614 -14 m 546 -193 q 516 -181 525 -193 q 507 -153 507 -169 q 515 -126 507 -139 q 546 -112 524 -112 q 575 -124 565 -112 q 585 -153 585 -136 q 576 -181 585 -168 q 546 -193 568 -193 m 369 863 l 353 881 l 501 1008 l 540 1008 l 689 881 l 672 863 l 511 990 l 532 990 l 369 863 z "},"ề":{"ha":1025,"x_min":118,"x_max":897,"o":"m 546 -14 q 320 35 417 -14 q 171 171 224 85 q 118 365 118 257 q 149 518 118 449 q 235 637 181 588 q 363 713 290 686 q 521 740 436 740 q 669 717 600 740 q 790 650 739 694 q 869 544 842 606 q 894 404 897 482 l 893 360 l 135 360 l 135 390 l 878 390 l 863 375 l 864 410 q 818 569 864 501 q 695 673 772 636 q 525 710 618 710 q 334 667 419 710 q 199 547 249 625 q 149 365 150 469 q 200 186 150 265 q 340 63 250 107 q 544 18 431 18 q 719 47 647 18 q 846 118 792 75 l 857 89 q 767 33 813 56 q 667 -1 721 11 q 546 -14 614 -14 m 369 863 l 353 881 l 501 1008 l 540 1008 l 689 881 l 672 863 l 511 990 l 532 990 l 369 863 m 697 1006 l 575 1150 l 607 1174 l 717 1019 l 697 1006 z "},"ể":{"ha":1025,"x_min":118,"x_max":897,"o":"m 546 -14 q 320 35 417 -14 q 171 171 224 85 q 118 365 118 257 q 149 518 118 449 q 235 637 181 588 q 363 713 290 686 q 521 740 436 740 q 669 717 600 740 q 790 650 739 694 q 869 544 842 606 q 894 404 897 482 l 893 360 l 135 360 l 135 390 l 878 390 l 863 375 l 864 410 q 818 569 864 501 q 695 673 772 636 q 525 710 618 710 q 334 667 419 710 q 199 547 249 625 q 149 365 150 469 q 200 186 150 265 q 340 63 250 107 q 544 18 431 18 q 719 47 647 18 q 846 118 792 75 l 857 89 q 767 33 813 56 q 667 -1 721 11 q 546 -14 614 -14 m 368 863 l 351 881 l 500 1008 l 539 1008 l 688 881 l 671 863 l 510 990 l 531 990 l 368 863 m 686 1011 q 681 1024 683 1018 q 678 1038 678 1029 q 693 1069 678 1057 q 726 1093 708 1082 q 761 1119 746 1106 q 776 1151 776 1132 q 752 1184 776 1174 q 692 1194 728 1194 q 646 1191 669 1194 q 596 1178 622 1188 l 586 1206 q 635 1220 610 1215 q 690 1225 661 1225 q 778 1205 744 1225 q 811 1151 811 1185 q 792 1105 811 1122 q 750 1075 772 1088 q 723 1057 735 1067 q 711 1036 711 1047 q 713 1026 711 1031 q 717 1018 715 1022 l 686 1011 z "},"ễ":{"ha":1025,"x_min":118,"x_max":897,"o":"m 546 -14 q 320 35 417 -14 q 171 171 224 85 q 118 365 118 257 q 149 518 118 449 q 235 637 181 588 q 363 713 290 686 q 521 740 436 740 q 669 717 600 740 q 790 650 739 694 q 869 544 842 606 q 894 404 897 482 l 893 360 l 135 360 l 135 390 l 878 390 l 863 375 l 864 410 q 818 569 864 501 q 695 673 772 636 q 525 710 618 710 q 334 667 419 710 q 199 547 249 625 q 149 365 150 469 q 200 186 150 265 q 340 63 250 107 q 544 18 431 18 q 719 47 647 18 q 846 118 792 75 l 857 89 q 767 33 813 56 q 667 -1 721 11 q 546 -14 614 -14 m 365 863 l 349 881 l 497 1008 l 536 1008 l 685 881 l 668 863 l 507 990 l 528 990 l 365 863 m 613 1110 q 560 1122 586 1110 q 513 1147 535 1133 q 472 1170 492 1160 q 431 1181 453 1181 q 394 1168 410 1181 q 371 1126 378 1156 l 339 1132 q 371 1190 346 1168 q 431 1211 396 1211 q 478 1200 458 1211 q 519 1175 499 1189 q 562 1151 539 1163 q 611 1140 585 1140 q 649 1151 632 1140 q 676 1197 667 1163 l 703 1192 q 684 1147 697 1165 q 652 1119 671 1128 q 613 1110 633 1110 z "},"ȅ":{"ha":1025,"x_min":118,"x_max":897,"o":"m 546 -14 q 320 35 417 -14 q 171 171 224 85 q 118 365 118 257 q 149 518 118 449 q 235 637 181 588 q 363 713 290 686 q 521 740 436 740 q 669 717 600 740 q 790 650 739 694 q 869 544 842 606 q 894 404 897 482 l 893 360 l 135 360 l 135 390 l 878 390 l 863 375 l 864 410 q 818 569 864 501 q 695 673 772 636 q 525 710 618 710 q 334 667 419 710 q 199 547 249 625 q 149 365 150 469 q 200 186 150 265 q 340 63 250 107 q 544 18 431 18 q 719 47 647 18 q 846 118 792 75 l 857 89 q 767 33 813 56 q 667 -1 721 11 q 546 -14 614 -14 m 608 849 l 408 993 l 428 1022 l 622 869 l 608 849 m 442 849 l 242 993 l 261 1022 l 456 869 l 442 849 z "},"ë":{"ha":1025,"x_min":118,"x_max":897,"o":"m 546 -14 q 320 35 417 -14 q 171 171 224 85 q 118 365 118 257 q 149 518 118 449 q 235 637 181 588 q 363 713 290 686 q 521 740 436 740 q 669 717 600 740 q 790 650 739 694 q 869 544 842 606 q 894 404 897 482 l 893 360 l 135 360 l 135 390 l 878 390 l 863 375 l 864 410 q 818 569 864 501 q 695 673 772 636 q 525 710 618 710 q 334 667 419 710 q 199 547 249 625 q 149 365 150 469 q 200 186 150 265 q 340 63 250 107 q 544 18 431 18 q 719 47 647 18 q 846 118 792 75 l 857 89 q 767 33 813 56 q 667 -1 721 11 q 546 -14 614 -14 m 625 921 q 596 932 606 921 q 586 961 586 943 q 596 990 586 978 q 625 1001 606 1001 q 653 990 643 1001 q 664 961 664 979 q 654 932 664 943 q 625 921 644 921 m 417 921 q 388 932 397 921 q 378 961 378 943 q 388 990 378 978 q 417 1001 397 1001 q 445 990 435 1001 q 456 961 456 979 q 446 932 456 943 q 417 921 436 921 z "},"ė":{"ha":1025,"x_min":118,"x_max":897,"o":"m 546 -14 q 320 35 417 -14 q 171 171 224 85 q 118 365 118 257 q 149 518 118 449 q 235 637 181 588 q 363 713 290 686 q 521 740 436 740 q 669 717 600 740 q 790 650 739 694 q 869 544 842 606 q 894 404 897 482 l 893 360 l 135 360 l 135 390 l 878 390 l 863 375 l 864 410 q 818 569 864 501 q 695 673 772 636 q 525 710 618 710 q 334 667 419 710 q 199 547 249 625 q 149 365 150 469 q 200 186 150 265 q 340 63 250 107 q 544 18 431 18 q 719 47 647 18 q 846 118 792 75 l 857 89 q 767 33 813 56 q 667 -1 721 11 q 546 -14 614 -14 m 521 921 q 492 932 501 921 q 482 961 482 943 q 492 990 482 978 q 521 1001 501 1001 q 549 990 539 1001 q 560 961 560 979 q 550 932 560 943 q 521 921 540 921 z "},"ẹ":{"ha":1025,"x_min":118,"x_max":897,"o":"m 546 -14 q 320 35 417 -14 q 171 171 224 85 q 118 365 118 257 q 149 518 118 449 q 235 637 181 588 q 363 713 290 686 q 521 740 436 740 q 669 717 600 740 q 790 650 739 694 q 869 544 842 606 q 894 404 897 482 l 893 360 l 135 360 l 135 390 l 878 390 l 863 375 l 864 410 q 818 569 864 501 q 695 673 772 636 q 525 710 618 710 q 334 667 419 710 q 199 547 249 625 q 149 365 150 469 q 200 186 150 265 q 340 63 250 107 q 544 18 431 18 q 719 47 647 18 q 846 118 792 75 l 857 89 q 767 33 813 56 q 667 -1 721 11 q 546 -14 614 -14 m 546 -193 q 516 -181 525 -193 q 507 -153 507 -169 q 515 -126 507 -139 q 546 -112 524 -112 q 575 -124 565 -112 q 585 -153 585 -136 q 576 -181 585 -168 q 546 -193 568 -193 z "},"è":{"ha":1025,"x_min":118,"x_max":897,"o":"m 546 -14 q 320 35 417 -14 q 171 171 224 85 q 118 365 118 257 q 149 518 118 449 q 235 637 181 588 q 363 713 290 686 q 521 740 436 740 q 669 717 600 740 q 790 650 739 694 q 869 544 842 606 q 894 404 897 482 l 893 360 l 135 360 l 135 390 l 878 390 l 863 375 l 864 410 q 818 569 864 501 q 695 673 772 636 q 525 710 618 710 q 334 667 419 710 q 199 547 249 625 q 149 365 150 469 q 200 186 150 265 q 340 63 250 107 q 544 18 431 18 q 719 47 647 18 q 846 118 792 75 l 857 89 q 767 33 813 56 q 667 -1 721 11 q 546 -14 614 -14 m 578 849 l 378 993 l 397 1022 l 592 869 l 578 849 z "},"ẻ":{"ha":1025,"x_min":118,"x_max":897,"o":"m 546 -14 q 320 35 417 -14 q 171 171 224 85 q 118 365 118 257 q 149 518 118 449 q 235 637 181 588 q 363 713 290 686 q 521 740 436 740 q 669 717 600 740 q 790 650 739 694 q 869 544 842 606 q 894 404 897 482 l 893 360 l 135 360 l 135 390 l 878 390 l 863 375 l 864 410 q 818 569 864 501 q 695 673 772 636 q 525 710 618 710 q 334 667 419 710 q 199 547 249 625 q 149 365 150 469 q 200 186 150 265 q 340 63 250 107 q 544 18 431 18 q 719 47 647 18 q 846 118 792 75 l 857 89 q 767 33 813 56 q 667 -1 721 11 q 546 -14 614 -14 m 508 842 q 503 854 506 849 q 500 868 500 860 q 515 900 500 888 q 549 924 531 913 q 583 949 568 936 q 599 982 599 963 q 574 1015 599 1004 q 514 1025 550 1025 q 468 1022 492 1025 q 418 1008 444 1018 l 408 1036 q 458 1051 432 1046 q 513 1056 483 1056 q 600 1035 567 1056 q 633 982 633 1015 q 614 935 633 953 q 572 906 594 918 q 545 888 557 897 q 533 867 533 878 q 535 857 533 861 q 539 849 538 853 l 508 842 z "},"ȇ":{"ha":1025,"x_min":118,"x_max":897,"o":"m 546 -14 q 320 35 417 -14 q 171 171 224 85 q 118 365 118 257 q 149 518 118 449 q 235 637 181 588 q 363 713 290 686 q 521 740 436 740 q 669 717 600 740 q 790 650 739 694 q 869 544 842 606 q 894 404 897 482 l 893 360 l 135 360 l 135 390 l 878 390 l 863 375 l 864 410 q 818 569 864 501 q 695 673 772 636 q 525 710 618 710 q 334 667 419 710 q 199 547 249 625 q 149 365 150 469 q 200 186 150 265 q 340 63 250 107 q 544 18 431 18 q 719 47 647 18 q 846 118 792 75 l 857 89 q 767 33 813 56 q 667 -1 721 11 q 546 -14 614 -14 m 368 865 l 338 868 q 402 990 354 946 q 521 1035 450 1035 q 640 990 590 1035 q 704 868 689 946 l 674 865 q 618 969 661 932 q 521 1006 575 1006 q 424 969 465 1006 q 368 865 382 932 z "},"ē":{"ha":1025,"x_min":118,"x_max":897,"o":"m 546 -14 q 320 35 417 -14 q 171 171 224 85 q 118 365 118 257 q 149 518 118 449 q 235 637 181 588 q 363 713 290 686 q 521 740 436 740 q 669 717 600 740 q 790 650 739 694 q 869 544 842 606 q 894 404 897 482 l 893 360 l 135 360 l 135 390 l 878 390 l 863 375 l 864 410 q 818 569 864 501 q 695 673 772 636 q 525 710 618 710 q 334 667 419 710 q 199 547 249 625 q 149 365 150 469 q 200 186 150 265 q 340 63 250 107 q 544 18 431 18 q 719 47 647 18 q 846 118 792 75 l 857 89 q 767 33 813 56 q 667 -1 721 11 q 546 -14 614 -14 m 333 921 l 333 951 l 708 951 l 708 921 l 333 921 z "},"ḗ":{"ha":1025,"x_min":118,"x_max":897,"o":"m 546 -14 q 320 35 417 -14 q 171 171 224 85 q 118 365 118 257 q 149 518 118 449 q 235 637 181 588 q 363 713 290 686 q 521 740 436 740 q 669 717 600 740 q 790 650 739 694 q 869 544 842 606 q 894 404 897 482 l 893 360 l 135 360 l 135 390 l 878 390 l 863 375 l 864 410 q 818 569 864 501 q 695 673 772 636 q 525 710 618 710 q 334 667 419 710 q 199 547 249 625 q 149 365 150 469 q 200 186 150 265 q 340 63 250 107 q 544 18 431 18 q 719 47 647 18 q 846 118 792 75 l 857 89 q 767 33 813 56 q 667 -1 721 11 q 546 -14 614 -14 m 333 907 l 333 938 l 708 938 l 708 907 l 333 907 m 511 999 l 490 1014 l 600 1168 l 632 1144 l 511 999 z "},"ḕ":{"ha":1025,"x_min":118,"x_max":897,"o":"m 546 -14 q 320 35 417 -14 q 171 171 224 85 q 118 365 118 257 q 149 518 118 449 q 235 637 181 588 q 363 713 290 686 q 521 740 436 740 q 669 717 600 740 q 790 650 739 694 q 869 544 842 606 q 894 404 897 482 l 893 360 l 135 360 l 135 390 l 878 390 l 863 375 l 864 410 q 818 569 864 501 q 695 673 772 636 q 525 710 618 710 q 334 667 419 710 q 199 547 249 625 q 149 365 150 469 q 200 186 150 265 q 340 63 250 107 q 544 18 431 18 q 719 47 647 18 q 846 118 792 75 l 857 89 q 767 33 813 56 q 667 -1 721 11 q 546 -14 614 -14 m 553 999 l 432 1144 l 464 1168 l 574 1014 l 553 999 m 333 907 l 333 938 l 708 938 l 708 907 l 333 907 z "},"ę":{"ha":1025,"x_min":118,"x_max":897,"o":"m 733 -322 q 642 -285 681 -322 q 604 -187 604 -249 q 632 -80 604 -128 q 708 10 660 -32 q 821 90 757 53 l 828 68 q 685 -55 735 7 q 635 -183 635 -117 q 663 -262 635 -232 q 735 -292 690 -292 q 792 -274 767 -292 q 832 -229 817 -257 l 853 -247 q 823 -286 842 -269 q 781 -312 804 -303 q 733 -322 758 -322 m 546 -14 q 320 35 417 -14 q 171 171 224 85 q 118 365 118 257 q 149 518 118 449 q 235 637 181 588 q 363 713 290 686 q 521 740 436 740 q 669 717 600 740 q 790 650 739 694 q 869 544 842 606 q 894 404 897 482 l 893 360 l 135 360 l 135 390 l 878 390 l 863 375 l 864 410 q 818 569 864 501 q 695 673 772 636 q 525 710 618 710 q 334 667 419 710 q 199 547 249 625 q 149 365 150 469 q 200 186 150 265 q 340 63 250 107 q 544 18 431 18 q 719 47 647 18 q 846 118 792 75 l 857 89 q 767 33 813 56 q 667 -1 721 11 q 546 -14 614 -14 z "},"ẽ":{"ha":1025,"x_min":118,"x_max":897,"o":"m 546 -14 q 320 35 417 -14 q 171 171 224 85 q 118 365 118 257 q 149 518 118 449 q 235 637 181 588 q 363 713 290 686 q 521 740 436 740 q 669 717 600 740 q 790 650 739 694 q 869 544 842 606 q 894 404 897 482 l 893 360 l 135 360 l 135 390 l 878 390 l 863 375 l 864 410 q 818 569 864 501 q 695 673 772 636 q 525 710 618 710 q 334 667 419 710 q 199 547 249 625 q 149 365 150 469 q 200 186 150 265 q 340 63 250 107 q 544 18 431 18 q 719 47 647 18 q 846 118 792 75 l 857 89 q 767 33 813 56 q 667 -1 721 11 q 546 -14 614 -14 m 614 879 q 556 896 582 879 q 506 929 529 913 q 458 958 472 953 q 432 964 443 964 q 392 944 411 964 q 374 888 374 924 l 346 892 q 372 963 346 933 q 432 992 399 992 q 488 976 461 992 q 539 942 514 960 q 571 921 549 935 q 613 907 593 907 q 650 924 633 907 q 668 983 667 942 l 696 979 q 684 926 696 949 q 653 892 672 904 q 614 879 635 879 z "},"ə":{"ha":1017,"x_min":122,"x_max":899,"o":"m 497 -11 q 306 30 390 -11 q 172 147 221 71 q 122 325 122 222 l 124 369 l 883 369 l 883 339 l 139 339 l 154 354 l 153 319 q 199 162 153 229 q 324 57 246 94 q 493 19 401 19 q 683 62 599 19 q 818 182 768 104 q 868 364 868 260 q 817 543 868 465 q 678 666 767 621 q 472 711 589 711 q 299 683 371 711 q 171 611 226 654 l 160 640 q 251 695 206 672 q 351 731 297 718 q 472 743 404 743 q 697 694 601 743 q 846 559 793 644 q 899 364 899 474 q 868 211 899 281 q 782 92 838 142 q 654 16 726 43 q 497 -11 582 -11 z "},"f":{"ha":735,"x_min":119,"x_max":658,"o":"m 303 0 l 303 822 q 326 945 303 896 q 393 1018 350 994 q 496 1042 436 1042 q 590 1026 549 1042 q 658 983 632 1011 l 642 958 q 576 999 614 986 q 493 1011 539 1011 q 405 990 440 1011 q 352 927 369 969 q 335 821 335 885 l 335 0 l 321 0 q 312 0 315 0 q 303 0 308 0 m 119 699 l 119 729 l 622 729 l 622 699 l 119 699 z "},"g":{"ha":1103,"x_min":125,"x_max":904,"o":"m 544 -333 q 377 -304 453 -333 q 253 -229 301 -275 l 267 -201 q 342 -253 300 -231 q 434 -290 383 -276 q 543 -303 485 -303 q 703 -262 628 -303 q 826 -142 779 -222 q 874 57 874 -62 l 874 247 l 889 249 q 803 107 858 165 q 676 19 749 49 q 515 -10 604 -10 q 314 38 403 -10 q 175 169 225 85 q 125 361 125 253 q 177 557 125 471 q 317 692 229 643 q 513 740 404 740 q 614 729 565 740 q 705 697 663 718 q 783 644 747 675 q 844 571 818 613 q 886 479 871 529 l 874 482 l 876 729 l 904 729 l 904 60 q 875 -115 904 -40 q 795 -238 846 -190 q 679 -310 744 -286 q 544 -333 614 -333 m 515 21 q 702 65 621 21 q 828 186 783 108 q 874 361 874 264 q 827 542 872 464 q 700 665 782 621 q 514 710 618 710 q 331 665 413 710 q 203 542 250 621 q 156 361 157 464 q 202 185 156 263 q 330 65 249 108 q 515 21 411 21 z "},"ğ":{"ha":1103,"x_min":125,"x_max":904,"o":"m 544 -333 q 377 -304 453 -333 q 253 -229 301 -275 l 267 -201 q 342 -253 300 -231 q 434 -290 383 -276 q 543 -303 485 -303 q 703 -262 628 -303 q 826 -142 779 -222 q 874 57 874 -62 l 874 247 l 889 249 q 803 107 858 165 q 676 19 749 49 q 515 -10 604 -10 q 314 38 403 -10 q 175 169 225 85 q 125 361 125 253 q 177 557 125 471 q 317 692 229 643 q 513 740 404 740 q 614 729 565 740 q 705 697 663 718 q 783 644 747 675 q 844 571 818 613 q 886 479 871 529 l 874 482 l 876 729 l 904 729 l 904 60 q 875 -115 904 -40 q 795 -238 846 -190 q 679 -310 744 -286 q 544 -333 614 -333 m 515 21 q 702 65 621 21 q 828 186 783 108 q 874 361 874 264 q 827 542 872 464 q 700 665 782 621 q 514 710 618 710 q 331 665 413 710 q 203 542 250 621 q 156 361 157 464 q 202 185 156 263 q 330 65 249 108 q 515 21 411 21 m 531 851 q 412 896 460 851 q 347 1018 364 940 l 378 1021 q 433 917 392 954 q 531 881 475 881 q 628 917 585 881 q 683 1021 671 954 l 714 1018 q 649 896 699 940 q 531 851 600 851 z "},"ǧ":{"ha":1103,"x_min":125,"x_max":904,"o":"m 544 -333 q 377 -304 453 -333 q 253 -229 301 -275 l 267 -201 q 342 -253 300 -231 q 434 -290 383 -276 q 543 -303 485 -303 q 703 -262 628 -303 q 826 -142 779 -222 q 874 57 874 -62 l 874 247 l 889 249 q 803 107 858 165 q 676 19 749 49 q 515 -10 604 -10 q 314 38 403 -10 q 175 169 225 85 q 125 361 125 253 q 177 557 125 471 q 317 692 229 643 q 513 740 404 740 q 614 729 565 740 q 705 697 663 718 q 783 644 747 675 q 844 571 818 613 q 886 479 871 529 l 874 482 l 876 729 l 904 729 l 904 60 q 875 -115 904 -40 q 795 -238 846 -190 q 679 -310 744 -286 q 544 -333 614 -333 m 515 21 q 702 65 621 21 q 828 186 783 108 q 874 361 874 264 q 827 542 872 464 q 700 665 782 621 q 514 710 618 710 q 331 665 413 710 q 203 542 250 621 q 156 361 157 464 q 202 185 156 263 q 330 65 249 108 q 515 21 411 21 m 511 863 l 363 990 l 379 1008 l 542 881 l 521 881 l 682 1008 l 699 990 l 550 863 l 511 863 z "},"ĝ":{"ha":1103,"x_min":125,"x_max":904,"o":"m 544 -333 q 377 -304 453 -333 q 253 -229 301 -275 l 267 -201 q 342 -253 300 -231 q 434 -290 383 -276 q 543 -303 485 -303 q 703 -262 628 -303 q 826 -142 779 -222 q 874 57 874 -62 l 874 247 l 889 249 q 803 107 858 165 q 676 19 749 49 q 515 -10 604 -10 q 314 38 403 -10 q 175 169 225 85 q 125 361 125 253 q 177 557 125 471 q 317 692 229 643 q 513 740 404 740 q 614 729 565 740 q 705 697 663 718 q 783 644 747 675 q 844 571 818 613 q 886 479 871 529 l 874 482 l 876 729 l 904 729 l 904 60 q 875 -115 904 -40 q 795 -238 846 -190 q 679 -310 744 -286 q 544 -333 614 -333 m 515 21 q 702 65 621 21 q 828 186 783 108 q 874 361 874 264 q 827 542 872 464 q 700 665 782 621 q 514 710 618 710 q 331 665 413 710 q 203 542 250 621 q 156 361 157 464 q 202 185 156 263 q 330 65 249 108 q 515 21 411 21 m 379 863 l 363 881 l 511 1008 l 550 1008 l 699 881 l 682 863 l 521 990 l 542 990 l 379 863 z "}}}
